<svg width="80" height="80" viewBox="0 0 80 80" fill="none" xmlns="http://www.w3.org/2000/svg">
<g clip-path="url(#clip0_382_1689)">
<path d="M35.7977 79.9624L29.2435 75.9728C28.5914 75.4645 28.581 74.477 29.2435 73.9561L35.7894 70.0374C36.2873 69.6895 37.5144 70.3082 37.5144 70.8249V73.7145C43.5539 73.2832 49.3706 71.077 53.9164 67.0791C66.1498 56.3228 66.1456 37.377 53.9164 26.6249C45.656 19.3624 32.0998 17.1624 23.2977 24.7499C9.54769 36.6061 17.2727 58.6561 35.0144 59.9707V53.7228C33.1935 53.7457 31.3623 53.2103 29.8102 52.2895C29.3685 52.027 28.5894 51.2082 28.181 51.102C27.6644 50.9686 26.2519 51.2895 25.4289 51.2041C21.9373 50.8436 18.8769 47.652 18.7644 44.1249C18.6873 41.727 20.2956 39.0207 21.5185 37.0249C22.3352 35.6916 24.281 32.5999 25.3331 31.6228C25.8602 31.1332 26.5769 31.0478 27.1331 31.5416C27.6435 31.9936 27.5289 33.2832 27.7227 34.077C28.5602 37.5124 33.1873 38.8207 33.7289 42.752C33.9831 44.6041 33.3977 46.7561 32.2727 48.2416C32.031 48.5603 30.7456 49.6499 30.8019 49.8916C32.0206 50.777 33.5227 51.202 35.0206 51.2228V40.602C30.5373 38.2207 29.9727 31.6853 33.9248 28.4957C36.0227 26.8041 41.1935 25.7499 43.8935 25.3436C44.856 25.1978 47.1727 24.5978 47.7394 25.4603C48.5373 26.6728 47.1414 27.4582 46.6102 28.3728C45.0414 31.0603 46.4769 34.0041 45.6331 36.9228C44.706 40.127 40.7539 42.302 37.5206 41.5395V59.8124C38.1519 60.0686 41.581 58.7666 41.5789 58.3291C39.3602 56.4499 38.2519 53.6291 39.006 50.7561C39.8789 47.4291 43.9352 46.077 44.781 42.9436C45.0623 41.9061 44.7477 40.1478 46.0456 39.9811C47.1373 39.8416 47.8269 41.177 48.4248 41.9582C50.1477 44.2145 53.3998 49.0603 53.7206 51.8124C54.2602 56.4582 50.1373 60.2999 45.5664 59.9645C45.1477 59.9332 44.3248 59.6103 44.031 59.6791C43.8977 59.7103 43.3373 60.2728 43.0685 60.4395C35.5831 65.0645 24.9456 61.1165 19.4769 54.9707C7.88311 41.9395 14.9789 21.052 32.0456 17.8707C46.0748 15.2561 60.1873 24.7436 64.3373 38.0686C70.0914 56.5374 56.6602 75.3957 37.5164 76.2082C37.3581 77.4916 38.0373 79.1832 36.7373 79.9582H35.7998L35.7977 79.9624ZM43.9185 27.9561C41.4977 28.3332 38.7352 28.7811 36.5227 29.852C33.2789 31.4228 32.9269 35.2041 35.2519 37.7936C35.5685 36.5728 37.9602 31.377 39.706 33.3395C40.6769 34.4311 39.5144 35.052 39.0123 35.777C38.3435 36.7416 37.6727 37.8291 37.6706 39.0436C40.4123 39.477 43.1185 38.1686 43.431 35.1978C43.581 33.7624 43.2123 32.4124 43.2956 31.002C43.3581 29.9666 43.7206 28.9624 43.9185 27.9561ZM26.2685 48.727C25.6435 47.4916 23.7269 42.3603 26.3435 42.4707C27.7414 42.5291 27.3789 43.7353 27.5373 44.5707C27.7623 45.7624 28.0977 46.9686 28.856 47.9457C31.456 46.3645 32.1019 43.2041 30.0206 40.8374C28.5352 39.1478 26.3352 37.9645 25.5664 35.6103C24.8456 35.9353 21.8019 41.4874 21.5123 42.4895C20.5769 45.7103 22.9956 48.6624 26.2685 48.7291V48.727ZM46.1081 57.4728C49.4414 57.5061 51.9727 54.5166 51.0206 51.2332C50.7289 50.2311 47.6873 44.6811 46.9664 44.3541C45.706 48.3041 39.8164 49.4041 41.5977 54.252C41.7852 54.7624 42.8581 56.6436 43.5102 56.5145C44.4456 55.6957 44.7331 54.4457 44.9706 53.2916C45.1456 52.4478 44.8227 51.2728 46.1873 51.2145C47.9498 51.1416 47.5331 53.2666 47.3081 54.3811C47.0769 55.5291 46.5748 56.427 46.106 57.4728H46.1081ZM35.0164 73.5603C34.256 73.827 33.3914 74.3291 32.7206 74.7749C32.6102 74.8478 32.4498 74.7291 32.5164 75.0436L35.0164 76.5291V73.5624V73.5603Z" fill="#898989"/>
<path d="M79.9999 45.1354V49.8209L79.329 54.5375C78.9519 56.3604 78.4269 58.1396 77.8165 59.8959C77.6332 60.4229 76.6853 62.3834 76.7165 62.6979C76.7728 63.275 79.6228 65.0146 79.9999 65.75V66.6875C79.7478 67.0063 79.6019 67.2 79.2207 67.3917C78.2353 67.8896 72.6374 69.7813 71.604 69.9334C70.8332 70.0459 70.2874 69.8292 70.0374 69.075L70.0749 59.4959C71.3186 57.4209 73.0915 60.0959 74.2999 60.9104C74.429 60.9979 74.4499 61.1313 74.6894 61.0646C79.4269 50.1938 78.1103 37.525 71.2269 27.9063C64.8249 18.9584 54.4894 13.6584 43.4082 13.7105C42.2582 13.4542 42.204 11.6542 43.2894 11.3146C43.7957 11.1563 44.9853 11.2167 45.5686 11.2375C63.3582 11.9146 78.9082 26.9646 79.8394 44.7584L80.0019 45.1354H79.9999ZM72.5019 67L76.0915 65.6729L72.5019 62.6271V67Z" fill="#898989"/>
<path d="M37.9856 0L44.5398 3.98958C45.0731 4.39792 45.171 5.11042 44.8418 5.68333C44.2585 6.69792 39.121 8.875 37.9939 9.925C37.496 10.2729 36.2689 9.65417 36.2689 9.1375V6.24792C21.3627 6.20417 8.04185 16.2375 3.89601 30.4917C1.43351 38.9583 2.37101 47.6958 6.25226 55.5604C6.05435 57.1104 4.60643 57.3729 3.75226 56.0188C2.40435 53.8833 0.971015 48.7958 0.548098 46.2604L0.0314314 42.325C0.100181 40.7833 -0.0623186 39.1729 0.0314314 37.6396C0.0501814 37.3229 0.146015 36.7271 0.187681 36.3125C2.00435 18.025 17.8481 3.63542 36.2668 3.74792V0.858333C36.2668 0.633333 36.8564 0.164583 37.0481 0H37.9856ZM38.7648 3.43542V6.55833C39.4835 6.03958 40.3252 5.67708 41.0606 5.18958C41.171 5.11667 41.3314 5.23542 41.2648 4.92083L38.7648 3.43542Z" fill="#898989"/>
<path d="M67.0353 79.9624C66.6936 80.0103 65.8145 80.0103 65.4728 79.9624C59.6186 79.1249 60.0374 69.9666 66.177 69.9583C72.3166 69.9499 72.8541 79.1312 67.0353 79.9624ZM68.7666 74.9666C68.7666 73.5791 67.6416 72.4541 66.2541 72.4541C64.8666 72.4541 63.7416 73.5791 63.7416 74.9666C63.7416 76.3541 64.8666 77.4791 66.2541 77.4791C67.6416 77.4791 68.7666 76.3541 68.7666 74.9666Z" fill="#898989"/>
<path d="M65.0002 6.24377C65.0002 9.00418 62.7627 11.2417 60.0023 11.2417C57.2419 11.2417 55.0044 9.00418 55.0044 6.24377C55.0044 3.48335 57.2419 1.24585 60.0023 1.24585C62.7627 1.24585 65.0002 3.48335 65.0002 6.24377ZM62.519 6.24793C62.519 4.86043 61.394 3.73543 60.0065 3.73543C58.619 3.73543 57.494 4.86043 57.494 6.24793C57.494 7.63543 58.619 8.76043 60.0065 8.76043C61.394 8.76043 62.519 7.63543 62.519 6.24793Z" fill="#898989"/>
<path d="M11.2707 66.2167C11.2707 68.9771 9.03324 71.2146 6.27282 71.2146C3.5124 71.2146 1.2749 68.9771 1.2749 66.2167C1.2749 63.4562 3.5124 61.2188 6.27282 61.2188C9.03324 61.2188 11.2707 63.4562 11.2707 66.2167ZM8.78948 66.2187C8.78948 64.8312 7.66448 63.7063 6.27698 63.7063C4.88949 63.7063 3.76449 64.8312 3.76449 66.2187C3.76449 67.6062 4.88949 68.7312 6.27698 68.7312C7.66448 68.7312 8.78948 67.6062 8.78948 66.2187Z" fill="#898989"/>
<path d="M74.9978 44.9771C74.9978 47.0438 73.3228 48.7209 71.254 48.7209C69.1853 48.7209 67.5103 47.0459 67.5103 44.9771C67.5103 42.9084 69.1853 41.2334 71.254 41.2334C73.3228 41.2334 74.9978 42.9084 74.9978 44.9771ZM72.5248 44.9792C72.5248 44.2771 71.9561 43.7084 71.254 43.7084C70.5519 43.7084 69.9832 44.2771 69.9832 44.9792C69.9832 45.6813 70.5519 46.2501 71.254 46.2501C71.9561 46.2501 72.5248 45.6813 72.5248 44.9792Z" fill="#898989"/>
<path d="M16.2707 24.9854C16.2707 27.0521 14.5957 28.7292 12.527 28.7292C10.4582 28.7292 8.7832 27.0542 8.7832 24.9854C8.7832 22.9167 10.4582 21.2417 12.527 21.2417C14.5957 21.2417 16.2707 22.9167 16.2707 24.9854ZM13.7957 24.9896C13.7957 24.2875 13.227 23.7188 12.5249 23.7188C11.8228 23.7188 11.254 24.2875 11.254 24.9896C11.254 25.6917 11.8228 26.2605 12.5249 26.2605C13.227 26.2605 13.7957 25.6917 13.7957 24.9896Z" fill="#898989"/>
<path d="M74.9978 13.7416C74.9978 15.8082 73.3228 17.4853 71.254 17.4853C69.1853 17.4853 67.5103 15.8103 67.5103 13.7416C67.5103 11.6728 69.1853 9.9978 71.254 9.9978C73.3228 9.9978 74.9978 11.6728 74.9978 13.7416ZM72.5248 13.7436C72.5248 13.0416 71.9561 12.4728 71.254 12.4728C70.5519 12.4728 69.9832 13.0416 69.9832 13.7436C69.9832 14.4457 70.5519 15.0145 71.254 15.0145C71.9561 15.0145 72.5248 14.4457 72.5248 13.7436Z" fill="#898989"/>
<path d="M17.5187 57.4708C17.5187 59.5375 15.8438 61.2145 13.775 61.2145C11.7063 61.2145 10.0312 59.5395 10.0312 57.4708C10.0312 55.402 11.7063 53.7271 13.775 53.7271C15.8438 53.7271 17.5187 55.402 17.5187 57.4708ZM15.0458 57.4729C15.0458 56.7708 14.4771 56.202 13.775 56.202C13.0729 56.202 12.5042 56.7708 12.5042 57.4729C12.5042 58.175 13.0729 58.7437 13.775 58.7437C14.4771 58.7437 15.0458 58.175 15.0458 57.4729Z" fill="#898989"/>
<path d="M31.2644 66.2167C31.2644 68.2833 29.5894 69.9604 27.5206 69.9604C25.4519 69.9604 23.7769 68.2854 23.7769 66.2167C23.7769 64.1479 25.4519 62.4729 27.5206 62.4729C29.5894 62.4729 31.2644 64.1479 31.2644 66.2167ZM28.7914 66.2187C28.7914 65.5167 28.2227 64.9479 27.5206 64.9479C26.8185 64.9479 26.2498 65.5167 26.2498 66.2187C26.2498 66.9208 26.8185 67.4896 27.5206 67.4896C28.2227 67.4896 28.7914 66.9208 28.7914 66.2187Z" fill="#898989"/>
<path d="M49.654 36.2667C50.4248 36.0917 51.8832 36.3917 52.6603 36.6313C54.5728 37.2188 56.4415 38.7063 57.479 40.4042C58.2228 41.6209 59.9998 46.348 57.4353 46.2417C56.1019 46.1855 56.404 45.1021 56.2415 44.298C55.7478 41.8396 54.4748 39.8355 51.9728 39.0396C51.1332 38.773 50.3873 38.8667 49.654 38.7021C48.4582 38.4355 48.4561 36.5417 49.654 36.2688V36.2667Z" fill="#898989"/>
<path d="M15.0207 4.99595C15.0207 7.06261 13.3457 8.7397 11.277 8.7397C9.2082 8.7397 7.5332 7.0647 7.5332 4.99595C7.5332 2.9272 9.21029 1.2522 11.277 1.2522C13.3436 1.2522 15.0207 2.9272 15.0207 4.99595ZM12.5478 4.99803C12.5478 4.29595 11.979 3.7272 11.277 3.7272C10.5749 3.7272 10.0061 4.29595 10.0061 4.99803C10.0061 5.70011 10.5749 6.26886 11.277 6.26886C11.979 6.26886 12.5478 5.70011 12.5478 4.99803Z" fill="#898989"/>
</g>
<defs>
<clipPath id="clip0_382_1689">
<rect width="80" height="80" fill="white"/>
</clipPath>
</defs>
</svg>
