<svg width="80" height="80" viewBox="0 0 80 80" fill="none" xmlns="http://www.w3.org/2000/svg">
<g clip-path="url(#clip0_382_1703)">
<path d="M22.9758 0C23.4727 0.250306 23.9697 0.335828 24.4896 0.596564C30.9038 3.80049 37.3159 8.56882 43.6069 12.1023C45.1332 13.7856 43.9765 16.9749 41.5753 16.8644C41.9324 18.9816 41.1786 20.5564 39.2326 21.47V28.1052C45.1353 27.9258 50.8208 30.8357 54.0174 35.7688C55.6481 34.9782 56.6963 34.0792 58.6548 34.3879C65.5931 37.765 72.0302 42.1954 78.766 45.9938C80.9938 47.5832 79.9373 51.2023 77.2125 51.2148C77.6886 53.1359 76.8388 54.9089 75.0181 55.6911V68.2857C76.3523 68.8635 77.3315 70.1046 77.3754 71.5981C77.3858 71.9652 77.0872 72.4929 77.2814 72.7682C81.2047 73.9071 80.7934 79.5807 76.6738 79.9499C75.9577 80.0146 73.3895 80.1356 73.0993 79.4389C72.0553 76.9317 75.5025 77.7848 76.6592 77.5929C77.9517 77.3801 78.0936 75.338 76.6592 75.1128L39.3078 75.0961C37.5998 75.1503 37.5978 77.2279 39.1679 77.5929L69.4829 77.5991C70.932 77.7285 70.9173 79.7956 69.4871 79.952H39.3099C34.8646 79.7643 34.3322 73.7987 38.6146 72.7599C37.8483 70.7491 39.0238 69.0491 40.8007 68.1563V61.5211C31.6909 61.8507 23.8548 54.6836 23.2786 45.6121L3.06924 45.5808C1.45108 45.2533 0.576225 44.2563 0.00830078 42.7836V41.2213C0.538641 39.9969 1.33624 38.6369 2.81869 38.5639C2.39692 36.6761 3.04419 34.6966 4.9839 34.0146L5.01522 21.3407C3.15902 20.6148 2.3656 18.7646 2.82286 16.8644C1.20052 16.952 0.446771 15.7422 0.00830078 14.3655V13.5854C0.31523 12.751 0.546993 12.2066 1.26943 11.6434C3.73321 9.72857 7.51867 8.31226 10.1036 6.41827C11.4419 5.77999 12.5799 7.26931 11.4232 8.36023L2.50967 13.6626C2.20901 13.8273 2.36143 14.5199 2.58484 14.5199H41.8927C41.9825 14.1715 42.1182 13.8378 41.7778 13.5749L22.7065 2.37791C22.2262 2.27987 21.913 2.32785 21.4558 2.46343C19.5453 3.03288 16.8894 5.6611 15.0061 6.1784C13.818 6.50379 13.1019 5.01864 13.9183 4.14674C16.428 2.793 18.7331 1.00123 21.4119 0.00208589H22.9758V0ZM5.35347 17.2148C4.60598 17.9115 5.12797 19.0421 6.18656 19.1902C7.12614 19.3216 10.4063 19.3403 11.3208 19.1964C12.4546 19.017 12.8137 17.559 11.7614 17.0563C11.1287 16.7538 7.36625 16.7747 6.48305 16.8623C6.21997 16.8894 5.52259 17.0563 5.35138 17.2169L5.35347 17.2148ZM16.2547 16.8623L14.6031 17.0146C15.0562 18.8627 14.1834 20.5293 12.5005 21.3094L12.346 21.6244L12.3398 33.9332C14.1813 34.6966 15.1481 36.4258 14.5342 38.4095H16.2526C16.0083 37.0933 16.2046 35.725 17.2068 34.7592C17.5722 34.4067 18.5222 34.0458 18.5974 33.6495V21.6265C18.5159 21.1926 17.568 20.9089 17.1838 20.5397C16.19 19.5844 16.0521 18.1535 16.2526 16.8644L16.2547 16.8623ZM18.7999 18.8502C18.9711 19.0212 19.5098 19.1818 19.7687 19.2089C20.7563 19.3195 23.8277 19.3445 24.7652 19.1964C26.1516 18.9774 26.2769 17.1126 24.6044 16.8769C23.6481 16.7434 20.7438 16.7434 19.7875 16.8769C18.8312 17.0104 17.9919 18.0346 18.802 18.8502H18.7999ZM29.6969 16.8623H28.1331C28.2228 18.1994 28.1769 19.5114 27.1956 20.5314C26.8051 20.9381 25.8739 21.1759 25.7904 21.6244L25.782 33.9415L26.8093 34.4714C26.9909 34.4588 28.987 32.2645 29.3858 31.9287C30.0561 31.3634 31.3464 30.7606 31.8183 30.2996C31.9394 30.1828 32.0313 30.0743 32.0417 29.897L32.0459 21.6244C31.9624 21.1822 31.0938 20.9548 30.7179 20.6086C29.5904 19.574 29.6364 18.2891 29.7011 16.8623H29.6969ZM39.0322 18.8543C39.8005 18.0221 38.9988 17.0125 38.0425 16.8769C37.0862 16.7413 34.1819 16.7434 33.2256 16.8769C31.5531 17.1126 31.6784 18.9753 33.0648 19.1964C34.0044 19.3445 37.0716 19.3195 38.0613 19.2089C38.2993 19.1818 38.8881 19.0108 39.0322 18.8543ZM10.0033 21.5472H7.34537V33.7267H10.0033V21.5472ZM23.4435 21.5472H20.9421V33.7267H23.4435V21.5472ZM36.8837 21.5472H34.3823V29.0418L36.8837 28.4181V21.5472ZM54.3411 44.8111C54.3411 36.9035 47.9248 30.4936 40.0093 30.4936C32.0939 30.4936 25.6776 36.9035 25.6776 44.8111C25.6776 52.7187 32.0939 59.1286 40.0093 59.1286C47.9248 59.1286 54.3411 52.7187 54.3411 44.8111ZM5.35347 36.4196C4.7062 37.0224 5.07159 38.2531 6.02579 38.3991C6.9069 38.5347 10.446 38.5368 11.3208 38.3991C12.463 38.2197 12.8096 36.7325 11.7551 36.2652C11.0536 35.9544 7.40384 35.9732 6.48305 36.065C6.21997 36.0921 5.52259 36.259 5.35138 36.4196H5.35347ZM19.6518 36.1046C18.1485 36.3737 18.0461 38.2301 19.7708 38.4095C21.2303 38.5618 22.9466 38.3198 24.4332 38.3845L25.473 36.4634C25.3916 36.2923 25.2308 36.284 25.0826 36.2235C24.4499 35.9711 20.4306 35.9628 19.6497 36.1025L19.6518 36.1046ZM77.5195 48.8702L77.6552 48.1986L58.9032 36.9431C57.4605 36.1296 56.4332 37.3249 55.17 37.7858C56.7673 41.3089 57.0909 45.099 56.2641 48.8681H77.5195V48.8702ZM23.7567 40.752H3.20496C2.39692 40.752 1.57427 43.0694 3.6664 43.2571L23.4456 43.2509L23.7567 40.752ZM61.2251 51.5631C60.5841 50.8685 56.667 51.342 55.5855 51.2377C55.1032 52.0554 53.8045 53.3716 55.4017 53.5572C56.2557 53.6573 59.7823 53.6886 60.5298 53.5218C61.3733 53.334 61.8201 52.2077 61.2251 51.5631ZM65.4845 51.2148H63.7661C64.0104 52.4684 63.7974 53.9619 62.8349 54.888C62.4507 55.2572 61.5048 55.5409 61.4213 55.9748V67.9978C61.5028 68.4317 62.4507 68.7154 62.8349 69.0846C63.8287 70.0399 63.9665 71.4708 63.7661 72.7599H65.4845C64.8727 70.82 65.8373 68.999 67.6831 68.2898V55.6807C65.8373 54.9715 64.8727 53.1505 65.4845 51.2127V51.2148ZM74.6631 51.5694C74.4919 51.3962 73.9532 51.2377 73.6943 51.2085C72.7067 51.098 69.6353 51.0729 68.6978 51.221C67.3114 51.44 67.1862 53.3048 68.8586 53.5405C69.8316 53.6782 72.8633 53.6803 73.8363 53.5447C74.8093 53.4091 75.4148 52.3265 74.6631 51.5694ZM52.8795 69.0658C53.2971 68.6674 54.2241 68.513 54.2429 67.8497L54.2346 55.9727L53.2157 55.1425C52.2782 55.9268 51.4847 56.9906 50.5556 57.7645C49.9146 58.2984 48.6597 58.8825 48.2067 59.3226C48.0375 59.4853 47.9645 59.6313 47.9728 59.8691L47.9791 67.9957C48.0563 68.4046 49.0815 68.78 49.449 69.1826C50.4011 70.2255 50.399 71.4228 50.3238 72.7599H51.8877C51.7938 71.4228 51.8439 70.0545 52.8774 69.0658H52.8795ZM56.5773 55.8976V68.0771H59.0786V55.8976H56.5773ZM72.6754 55.8976H70.0174V68.0771H72.6754V55.8976ZM45.6364 60.5804L43.135 61.2041V68.075H45.6364V60.5804ZM40.9886 72.4074C41.1327 72.5638 41.7215 72.7369 41.9595 72.762C42.9492 72.8725 46.0164 72.8976 46.956 72.7495C48.3591 72.5263 48.3653 70.6469 46.956 70.4258C46.1083 70.2923 42.6631 70.2923 41.8154 70.4258C40.8905 70.5718 40.3434 71.7107 40.9886 72.4074ZM61.2251 72.4074C61.8681 71.7107 61.3232 70.5718 60.3982 70.4258C59.5505 70.2923 56.1054 70.2923 55.2577 70.4258C53.8483 70.6469 53.8546 72.5284 55.2577 72.7495C56.1973 72.8976 59.2645 72.8725 60.2542 72.762C60.4922 72.7349 61.081 72.5638 61.2251 72.4074ZM74.6631 70.7741C74.4919 70.601 73.9532 70.4425 73.6943 70.4133C72.667 70.2985 69.8608 70.2902 68.8607 70.432C67.1903 70.6677 67.3094 72.5325 68.6999 72.7515C69.6061 72.8934 72.9093 72.8809 73.8384 72.7515C74.7675 72.6222 75.4169 71.5334 74.6652 70.7762L74.6631 70.7741Z" fill="#898989"/>
<path d="M68.769 31.3821C67.343 22.7236 60.8453 16.5139 52.1218 15.4606C51.3179 15.3625 49.4492 15.7547 49.2341 14.5928C48.8938 12.751 51.0214 13.0326 52.2784 13.1181C60.5341 13.6813 68.1113 20.1413 70.3726 27.9863C70.5647 28.6496 70.8591 30.7522 71.0324 31.0755C71.2057 31.3988 71.285 31.0922 71.3999 30.9691C72.1098 30.2057 72.9303 28.5641 74.1393 29.534C74.8158 30.0764 74.5652 30.7564 74.1497 31.3738C73.6173 32.1643 72.0471 33.9603 71.3498 34.6653C70.7296 35.2911 70.2912 35.7708 69.4017 35.2035C68.7168 34.7675 66.0422 32.5169 65.4993 31.9203C64.9564 31.3237 65.0045 30.3872 65.7415 30.0034C66.9797 29.3588 67.6854 31.0797 68.769 31.3863V31.3821Z" fill="#898989"/>
<path d="M11.2541 58.0835C12.5486 66.8066 19.1591 73.106 27.8993 74.1636C28.7031 74.2616 30.5719 73.8695 30.7869 75.0313C31.1273 76.871 28.9996 76.5936 27.7427 76.506C19.4848 75.9261 11.9139 69.4954 9.64846 61.6378C9.45637 60.9745 9.16197 58.8719 8.98867 58.5486C8.81537 58.2253 8.73602 58.5319 8.62119 58.655C7.95513 59.3684 7.08863 61.0684 5.88179 60.0901C5.20738 59.5436 5.45376 58.8698 5.87135 58.2503C6.40795 57.4535 7.96766 55.6743 8.6713 54.9588C9.37494 54.2434 9.72363 53.8804 10.7071 54.4916C11.3272 54.8775 14.0248 57.1573 14.5217 57.7059C15.2024 58.4568 14.8203 59.7397 13.8202 59.8002C12.9892 59.8502 11.9494 58.484 11.2541 58.0835Z" fill="#898989"/>
<path d="M51.8107 44.809C51.8107 51.319 46.5282 56.5984 40.0096 56.5984C33.491 56.5984 28.2085 51.3211 28.2085 44.809C28.2085 38.2968 33.491 33.0195 40.0096 33.0195C46.5282 33.0195 51.8107 38.2968 51.8107 44.809ZM49.4681 44.811C49.4681 39.5942 45.2337 35.3641 40.0117 35.3641C34.7897 35.3641 30.5554 39.5942 30.5554 44.811C30.5554 50.0278 34.7897 54.258 40.0117 54.258C45.2337 54.258 49.4681 50.0278 49.4681 44.811Z" fill="#898989"/>
<path d="M38.7505 50.5973C38.7171 50.5618 38.0489 50.5013 37.7796 50.395C36.8546 50.0383 35.7 49.3374 36.4329 48.1818C37.3119 46.7989 40.1975 49.6837 41.2414 47.6791C42.1434 45.9499 40.0951 45.7685 39.0178 45.2553C37.0718 44.3292 35.8336 42.9108 36.8588 40.6455C37.362 39.5337 38.6002 39.2167 38.7338 39.0039C38.9342 38.6827 38.6106 37.8296 39.5377 37.5376C41.0452 37.062 40.9053 38.6472 41.2644 38.9539C41.8553 39.4566 43.4317 39.4753 43.1081 40.9501C42.6174 43.184 39.8112 39.9238 39.0011 41.6906C38.3413 43.1298 41.3166 43.4844 42.156 43.9996C44.4464 45.4076 44.2042 48.4989 42.1935 50.032C41.9325 50.2302 41.3103 50.3845 41.1892 50.5889C40.8927 51.0875 41.1663 52.1575 39.9385 52.1575C38.619 52.1575 38.882 50.7329 38.7568 50.5973H38.7505Z" fill="#898989"/>
</g>
<defs>
<clipPath id="clip0_382_1703">
<rect width="80" height="80" fill="white"/>
</clipPath>
</defs>
</svg>
