<svg width="81" height="80" viewBox="0 0 81 80" fill="none" xmlns="http://www.w3.org/2000/svg">
<g clip-path="url(#clip0_80_802)">
<path d="M23.4763 0C23.9732 0.250306 24.4702 0.335828 24.9901 0.596564C31.4043 3.80049 37.8164 8.56882 44.1074 12.1023C45.6337 13.7856 44.4769 16.9749 42.0758 16.8644C42.4328 18.9816 41.6791 20.5564 39.7331 21.47V28.1052C45.6358 27.9258 51.3213 30.8357 54.5179 35.7688C56.1486 34.9782 57.1968 34.0792 59.1553 34.3879C66.0935 37.765 72.5307 42.1954 79.2664 45.9938C81.4943 47.5832 80.4378 51.2023 77.713 51.2148C78.1891 53.1359 77.3393 54.9089 75.5186 55.6911V68.2857C76.8528 68.8635 77.832 70.1046 77.8759 71.5981C77.8863 71.9652 77.5877 72.4929 77.7819 72.7682C81.7052 73.9071 81.2939 79.5807 77.1743 79.9499C76.4582 80.0146 73.89 80.1356 73.5997 79.4389C72.5558 76.9317 76.003 77.7848 77.1597 77.5929C78.4521 77.3801 78.5941 75.3381 77.1597 75.1128L39.8083 75.0961C38.1003 75.1503 38.0982 77.2279 39.6684 77.5929L69.9834 77.5991C71.4324 77.7285 71.4178 79.7956 69.9876 79.952H39.8104C35.3651 79.7643 34.8327 73.7987 39.1151 72.7599C38.3488 70.7491 39.5243 69.0491 41.3012 68.1563V61.5211C32.1914 61.8507 24.3553 54.6836 23.779 45.6121L3.56973 45.5808C1.95157 45.2533 1.07671 44.2563 0.508789 42.7836V41.2213C1.03913 39.9969 1.83673 38.6369 3.31918 38.5639C2.89741 36.6761 3.54468 34.6966 5.48439 34.0146L5.51571 21.3407C3.65951 20.6148 2.86609 18.7646 3.32335 16.8644C1.70101 16.952 0.94726 15.7422 0.508789 14.3655V13.5854C0.815718 12.751 1.04748 12.2066 1.76991 11.6434C4.2337 9.72857 8.01916 8.31226 10.6041 6.41827C11.9424 5.77999 13.0804 7.26931 11.9236 8.36023L3.01016 13.6626C2.70949 13.8273 2.86191 14.5199 3.08533 14.5199H42.3932C42.483 14.1715 42.6187 13.8378 42.2783 13.5749L23.2069 2.37791C22.7267 2.27987 22.4135 2.32785 21.9563 2.46343C20.0458 3.03288 17.3899 5.6611 15.5066 6.1784C14.3185 6.50379 13.6024 5.01864 14.4187 4.14674C16.9285 2.793 19.2336 1.00123 21.9124 0.00208589H23.4763V0ZM5.85395 17.2148C5.10647 17.9115 5.62845 19.0421 6.68705 19.1902C7.62663 19.3216 10.9068 19.3403 11.8213 19.1964C12.9551 19.017 13.3142 17.559 12.2619 17.0563C11.6292 16.7538 7.86674 16.7747 6.98354 16.8623C6.72045 16.8894 6.02308 17.0563 5.85187 17.2169L5.85395 17.2148ZM16.7552 16.8623L15.1036 17.0146C15.5567 18.8627 14.6839 20.5293 13.001 21.3094L12.8465 21.6244L12.8403 33.9332C14.6818 34.6966 15.6486 36.4258 15.0347 38.4095H16.7531C16.5088 37.0933 16.7051 35.725 17.7073 34.7592C18.0727 34.4067 19.0227 34.0458 19.0979 33.6495V21.6265C19.0164 21.1926 18.0685 20.9089 17.6843 20.5397C16.6904 19.5844 16.5526 18.1535 16.7531 16.8644L16.7552 16.8623ZM19.3004 18.8502C19.4716 19.0212 20.0103 19.1818 20.2692 19.2089C21.2568 19.3195 24.3282 19.3445 25.2657 19.1964C26.6521 18.9774 26.7773 17.1126 25.1049 16.8769C24.1486 16.7434 21.2443 16.7434 20.288 16.8769C19.3317 17.0104 18.4923 18.0346 19.3025 18.8502H19.3004ZM30.1974 16.8623H28.6335C28.7233 18.1994 28.6774 19.5114 27.6961 20.5314C27.3056 20.9381 26.3744 21.1759 26.2909 21.6244L26.2825 33.9415L27.3098 34.4714C27.4914 34.4588 29.4875 32.2645 29.8863 31.9287C30.5566 31.3634 31.8469 30.7606 32.3188 30.2996C32.4399 30.1828 32.5318 30.0743 32.5422 29.897L32.5464 21.6244C32.4629 21.1822 31.5943 20.9548 31.2184 20.6086C30.0909 19.574 30.1369 18.2891 30.2016 16.8623H30.1974ZM39.5327 18.8543C40.301 18.0221 39.4993 17.0125 38.543 16.8769C37.5867 16.7413 34.6824 16.7434 33.7261 16.8769C32.0536 17.1126 32.1789 18.9753 33.5653 19.1964C34.5049 19.3445 37.5721 19.3195 38.5618 19.2089C38.7998 19.1818 39.3886 19.0108 39.5327 18.8543ZM10.5038 21.5472H7.84586V33.7267H10.5038V21.5472ZM23.944 21.5472H21.4426V33.7267H23.944V21.5472ZM37.3842 21.5472H34.8828V29.0418L37.3842 28.4181V21.5472ZM54.8416 44.8111C54.8416 36.9035 48.4253 30.4936 40.5098 30.4936C32.5944 30.4936 26.1781 36.9035 26.1781 44.8111C26.1781 52.7187 32.5944 59.1286 40.5098 59.1286C48.4253 59.1286 54.8416 52.7187 54.8416 44.8111ZM5.85395 36.4196C5.20669 37.0224 5.57208 38.2531 6.52628 38.3991C7.40739 38.5347 10.9465 38.5368 11.8213 38.3991C12.9634 38.2197 13.31 36.7325 12.2556 36.2652C11.5541 35.9544 7.90433 35.9732 6.98354 36.065C6.72045 36.0921 6.02308 36.259 5.85187 36.4196H5.85395ZM20.1523 36.1046C18.6489 36.3737 18.5466 38.2301 20.2713 38.4095C21.7308 38.5618 23.4471 38.3198 24.9337 38.3845L25.9735 36.4634C25.8921 36.2923 25.7313 36.284 25.583 36.2235C24.9504 35.9711 20.9311 35.9628 20.1502 36.1025L20.1523 36.1046ZM78.0199 48.8702L78.1557 48.1986L59.4037 36.9431C57.961 36.1296 56.9337 37.3249 55.6705 37.7858C57.2678 41.3089 57.5914 45.0989 56.7646 48.8681H78.0199V48.8702ZM24.2572 40.752H3.70545C2.89741 40.752 2.07475 43.0694 4.16689 43.2571L23.9461 43.2509L24.2572 40.752ZM61.7255 51.5631C61.0845 50.8685 57.1675 51.342 56.086 51.2377C55.6037 52.0554 54.3049 53.3716 55.9022 53.5572C56.7562 53.6573 60.2828 53.6886 61.0303 53.5218C61.8738 53.334 62.3206 52.2077 61.7255 51.5631ZM65.985 51.2148H64.2666C64.5109 52.4684 64.2979 53.9619 63.3354 54.888C62.9512 55.2572 62.0053 55.5409 61.9218 55.9748V67.9978C62.0032 68.4317 62.9512 68.7154 63.3354 69.0846C64.3292 70.0399 64.467 71.4708 64.2666 72.7599H65.985C65.3732 70.82 66.3378 68.999 68.1836 68.2898V55.6807C66.3378 54.9715 65.3732 53.1505 65.985 51.2127V51.2148ZM75.1636 51.5694C74.9924 51.3962 74.4537 51.2377 74.1948 51.2085C73.2072 51.098 70.1358 51.0729 69.1983 51.221C67.8119 51.44 67.6867 53.3048 69.3591 53.5405C70.3321 53.6782 73.3638 53.6803 74.3368 53.5447C75.3098 53.4091 75.9153 52.3265 75.1636 51.5694ZM53.38 69.0658C53.7976 68.6674 54.7246 68.513 54.7434 67.8497L54.7351 55.9727L53.7161 55.1425C52.7787 55.9268 51.9852 56.9906 51.0561 57.7645C50.4151 58.2984 49.1602 58.8825 48.7071 59.3226C48.538 59.4853 48.4649 59.6313 48.4733 59.8691L48.4796 67.9957C48.5568 68.4046 49.582 68.78 49.9495 69.1826C50.9016 70.2255 50.8995 71.4228 50.8243 72.7599H52.3882C52.2943 71.4228 52.3444 70.0545 53.3779 69.0658H53.38ZM57.0778 55.8976V68.0771H59.5791V55.8976H57.0778ZM73.1759 55.8976H70.5179V68.0771H73.1759V55.8976ZM46.1369 60.5804L43.6355 61.2041V68.075H46.1369V60.5804ZM41.4891 72.4074C41.6332 72.5638 42.222 72.7369 42.46 72.762C43.4497 72.8725 46.5169 72.8976 47.4565 72.7495C48.8596 72.5263 48.8658 70.6469 47.4565 70.4258C46.6087 70.2923 43.1636 70.2923 42.3159 70.4258C41.3909 70.5718 40.8439 71.7107 41.4891 72.4074ZM61.7255 72.4074C62.3686 71.7107 61.8237 70.5718 60.8987 70.4258C60.051 70.2923 56.6059 70.2923 55.7582 70.4258C54.3488 70.6469 54.3551 72.5284 55.7582 72.7495C56.6977 72.8976 59.7649 72.8725 60.7546 72.762C60.9927 72.7349 61.5815 72.5638 61.7255 72.4074ZM75.1636 70.7741C74.9924 70.601 74.4537 70.4425 74.1948 70.4133C73.1675 70.2985 70.3613 70.2902 69.3612 70.432C67.6908 70.6677 67.8098 72.5325 69.2004 72.7515C70.1066 72.8934 73.4097 72.8809 74.3389 72.7515C75.268 72.6222 75.9174 71.5334 75.1657 70.7762L75.1636 70.7741Z" fill="#898989"/>
<path d="M69.2685 31.3821C67.8425 22.7236 61.3448 16.5139 52.6213 15.4606C51.8174 15.3625 49.9487 15.7547 49.7336 14.5928C49.3933 12.751 51.5209 13.0326 52.7779 13.1181C61.0337 13.6813 68.6108 20.1413 70.8721 27.9863C71.0642 28.6496 71.3586 30.7522 71.5319 31.0755C71.7052 31.3988 71.7845 31.0922 71.8994 30.9691C72.6093 30.2057 73.4298 28.5641 74.6388 29.534C75.3153 30.0764 75.0647 30.7564 74.6492 31.3738C74.1168 32.1643 72.5466 33.9603 71.8493 34.6653C71.2291 35.2911 70.7907 35.7708 69.9012 35.2035C69.2164 34.7675 66.5417 32.5169 65.9988 31.9203C65.4559 31.3237 65.504 30.3872 66.241 30.0034C67.4792 29.3588 68.1849 31.0797 69.2685 31.3863V31.3821Z" fill="#898989"/>
<path d="M11.7536 58.0836C13.0481 66.8068 19.6586 73.1061 28.3988 74.1637C29.2026 74.2617 31.0714 73.8696 31.2864 75.0314C31.6268 76.8712 29.4991 76.5937 28.2422 76.5061C19.9843 75.9263 12.4134 69.4955 10.148 61.6379C9.95588 60.9746 9.66148 58.8721 9.48818 58.5487C9.31488 58.2254 9.23554 58.5321 9.1207 58.6551C8.45464 59.3685 7.58814 61.0685 6.3813 60.0902C5.70689 59.5437 5.95327 58.87 6.37086 58.2505C6.90747 57.4537 8.46717 55.6744 9.17081 54.9589C9.87445 54.2435 10.2231 53.8805 11.2066 54.4917C11.8267 54.8776 14.5243 57.1575 15.0213 57.706C15.7019 58.457 15.3198 59.7398 14.3197 59.8003C13.4887 59.8503 12.4489 58.4841 11.7536 58.0836Z" fill="#898989"/>
<path d="M52.3103 44.809C52.3103 51.319 47.0277 56.5984 40.5091 56.5984C33.9905 56.5984 28.708 51.3211 28.708 44.809C28.708 38.2968 33.9905 33.0195 40.5091 33.0195C47.0277 33.0195 52.3103 38.2968 52.3103 44.809ZM49.9676 44.811C49.9676 39.5942 45.7332 35.3641 40.5112 35.3641C35.2892 35.3641 31.0549 39.5942 31.0549 44.811C31.0549 50.0278 35.2892 54.258 40.5112 54.258C45.7332 54.258 49.9676 50.0278 49.9676 44.811Z" fill="#898989"/>
<path d="M39.25 50.5973C39.2166 50.5618 38.5485 50.5013 38.2791 50.395C37.3541 50.0383 36.1995 49.3374 36.9324 48.1818C37.8114 46.7989 40.697 49.6837 41.7409 47.6791C42.6429 45.9499 40.5947 45.7685 39.5173 45.2553C37.5713 44.3292 36.3331 42.9108 37.3583 40.6455C37.8615 39.5337 39.0997 39.2167 39.2333 39.0039C39.4337 38.6827 39.1101 37.8296 40.0372 37.5376C41.5447 37.062 41.4048 38.6472 41.7639 38.9539C42.3548 39.4566 43.9312 39.4753 43.6076 40.9501C43.1169 43.184 40.3107 39.9238 39.5006 41.6906C38.8408 43.1298 41.8161 43.4844 42.6555 43.9996C44.946 45.4076 44.7037 48.4989 42.693 50.032C42.4321 50.2302 41.8098 50.3845 41.6887 50.5889C41.3923 51.0875 41.6658 52.1575 40.4381 52.1575C39.1185 52.1575 39.3815 50.7329 39.2563 50.5973H39.25Z" fill="#898989"/>
</g>
<defs>
<clipPath id="clip0_80_802">
<rect width="80" height="80" fill="white" transform="translate(0.5)"/>
</clipPath>
</defs>
</svg>
