<svg width="81" height="80" viewBox="0 0 81 80" fill="none" xmlns="http://www.w3.org/2000/svg">
<g clip-path="url(#clip0_382_2325)">
<path d="M19.5484 10.0157C18.2825 12.2451 16.1233 14.1147 13.4325 14.2317L20.4287 42.8425C22.3831 42.8641 22.3874 43.9431 22.2218 45.5918C21.0801 56.9485 4.17899 58.9027 0.544714 47.5633C0.067551 46.0727 -0.819231 42.6302 1.75178 42.9161L10.1642 13.9176C6.86984 13.1658 3.84781 8.59668 5.07885 5.35777C6.17044 2.48717 10.515 2.43734 11.6044 5.26461C11.9051 6.04455 11.7286 7.57843 12.8507 7.42461C13.6307 7.31629 13.3453 6.48218 13.5044 5.95356C13.9706 4.40018 14.9141 3.34943 16.6048 3.19778C20.0278 2.8923 23.8821 3.45776 27.353 3.18261C27.9957 1.98021 28.7758 0.762637 30.1375 0.275176C31.9133 -0.359607 33.3034 0.164685 34.7436 1.23493C36.7829 -0.467932 38.977 -0.301112 41.0513 1.23927C42.8117 -0.463599 45.2978 -0.329276 47.1106 1.22843C49.577 -1.05722 53.3442 0.0368616 54.3029 3.21511L66.1971 3.19994C67.2669 3.22811 68.4216 3.92789 68.9511 4.83998C69.3912 5.59609 69.3585 7.31845 70.1146 7.42678C71.2476 7.53077 70.9404 6.03155 71.2977 5.20395C72.6377 2.10153 77.5422 2.76448 77.9998 6.05972C78.4987 9.6561 75.7251 13.4431 72.1562 14.0844L79.1371 42.8446C81.0915 42.8663 81.0959 43.9452 80.9303 45.5939C79.66 58.2441 60.0637 58.2809 58.7891 45.5939C58.6431 44.1424 58.6017 42.7645 60.4602 42.9183L68.8748 14.3119C66.6263 13.6013 64.356 12.3491 63.4975 10.0179H54.5273V18.8572C54.5273 20.7789 52.4727 22.0918 51.429 23.2357C49.991 24.8151 50.5553 27.0617 50.4485 28.9921C51.453 28.9336 52.5162 28.8426 52.7406 30.0363L52.6121 79.5494L52.2047 79.9545L26.1394 80.0022C25.562 79.7314 25.1219 79.2049 25.1611 78.542L25.1654 30.2031C25.3833 28.3551 27.3857 29.2997 27.7081 28.8382C27.7778 27.833 27.8628 26.6566 27.7844 25.66C27.5033 22.0918 23.2938 18.7684 23.5335 15.1178C23.6686 13.0683 25.2461 10.9343 27.2876 10.4989V10.0157H19.5419H19.5484ZM33.4929 10.1782V4.25936C33.4929 2.55 30.7999 1.82855 30.022 3.57691L29.9044 10.1782H33.4929ZM36.1031 10.1782C36.9202 10.2367 37.7874 9.96158 38.4715 10.4989C38.7156 10.6917 39.0075 11.4825 39.2842 11.1531C39.8485 10.4815 39.7788 5.97739 39.6982 4.90064C39.5893 3.44692 38.8528 1.97804 37.1228 2.67999C36.881 2.77748 36.1031 3.57475 36.1031 3.7719V10.1782ZM43.5569 2.58899C43.0405 2.70598 42.3912 3.41876 42.3084 3.94305C42.1276 5.07396 42.1537 9.07981 42.2954 10.2627C42.5285 12.2191 45.3501 12.2169 45.69 10.7112C45.897 9.79042 45.8534 4.99814 45.7292 3.93222C45.605 2.8663 44.5352 2.37018 43.5591 2.59116L43.5569 2.58899ZM49.5922 2.59116C48.9931 2.72765 48.4353 3.52925 48.346 4.10771C48.1695 5.23645 48.2 8.91733 48.3351 10.0981C48.5943 12.3491 51.5292 12.3079 51.8844 10.5465C52.0826 9.56727 52.0565 5.32961 51.9258 4.25503C51.7776 3.03312 50.8189 2.31168 49.5922 2.59116ZM27.2963 5.63725H16.777C15.9686 5.63725 15.9011 7.38561 15.6832 7.9554C14.6853 10.553 10.7068 10.5747 9.65002 8.0204C9.2927 7.15813 9.49751 5.09346 7.93093 5.75858C6.71733 6.27637 7.72176 8.86316 8.30569 9.6821C10.3364 12.5245 14.7376 12.531 16.7661 9.6821C17.0885 9.22713 17.6267 7.58493 18.2433 7.58493H27.2941V5.63942L27.2963 5.63725ZM54.3682 7.58276H64.7242C65.2297 7.58276 65.7199 9.01048 65.9792 9.41562C67.8726 12.3556 72.0538 12.7044 74.3328 10.0006C75.0954 9.09714 76.3765 6.38686 74.871 5.75641C73.47 5.16929 73.5288 7.20146 73.2521 7.9554C72.2804 10.605 68.1493 10.5552 67.1754 7.90341C66.9793 7.37045 66.9488 5.63725 66.1927 5.63725H54.3682V7.58276ZM36.4278 12.7715H28.0284C27.719 12.7715 26.7037 13.6966 26.5054 14.0151C25.8627 15.0485 25.9346 15.7635 26.3921 16.8315C27.0784 18.4347 30.2312 23.0277 30.2312 24.3666V28.9877H48.0082V24.5291C48.0082 23.1144 49.5509 21.7776 50.3766 20.885C51.1 20.1029 52.0848 19.2342 52.0848 18.0426V14.0693C50.2677 14.5004 48.5159 14.5329 47.1127 13.1268C45.2825 14.7105 42.8379 14.8297 41.0534 13.1138C40.7179 13.4518 39.0685 14.0844 38.9182 14.2729C38.7896 14.4311 38.5543 15.5273 38.3669 15.9151C37.5303 17.6483 35.9877 18.8464 34.1378 19.3512C34.384 20.976 36.0705 22.3929 37.6959 22.6226C38.8899 22.7916 41.1232 22.2044 40.8247 24.1933C40.5676 25.9113 36.9246 25.127 35.7785 24.6894C33.628 23.8661 31.4601 21.1169 31.2291 18.8377C30.9982 16.5586 32.4754 17.267 33.9788 16.7427C35.578 16.1837 36.6195 14.4397 36.43 12.7737L36.4278 12.7715ZM17.8359 42.9356L11.7199 18.1228L4.62565 42.9356H17.8359ZM76.5487 42.9356L70.4327 18.1228L63.175 42.9356H76.5487ZM50.2917 31.4207H27.7844V77.4761H37.7329V54.5286C37.7329 53.8158 38.4127 51.7078 38.7068 50.956C40.5414 46.2872 45.2498 42.8446 50.2895 42.446V31.4185L50.2917 31.4207ZM50.2917 45.0436C46.2935 45.2884 42.559 48.1937 41.0796 51.8573C40.4782 53.3456 40.3322 54.7235 40.1732 56.3072L40.1797 77.4782H50.2917V45.0436ZM19.629 45.3686H2.66907C4.18989 55.0637 18.1235 55.1113 19.6312 45.3686H19.629ZM78.344 45.3686H61.3819C62.8874 55.0745 76.8101 55.1092 78.344 45.3686Z" fill="#898989"/>
</g>
<defs>
<clipPath id="clip0_382_2325">
<rect width="81" height="80" fill="white"/>
</clipPath>
</defs>
</svg>
