<svg width="81" height="80" viewBox="0 0 81 80" fill="none" xmlns="http://www.w3.org/2000/svg">
<g clip-path="url(#clip0_80_832)">
<path d="M49.7911 23.9203C50.9984 23.4132 53.3866 22.8309 52.9036 24.961C52.6444 26.1079 51.0538 25.716 50.2762 26.3493L51.1513 33.8289L57.033 38.1511C59.1708 36.3089 61.4858 33.9972 62.959 31.5306C64.5119 28.9289 65.6927 25.7027 61.6586 24.9078C60.3427 27.8284 56.282 28.3731 54.6271 25.4636C52.2589 21.3053 57.9479 17.2798 61.138 21.2765C61.3507 21.5444 61.4769 22.1555 61.6719 22.2751C61.9466 22.4434 62.4982 22.4168 62.8527 22.5452C70.469 25.3108 65.5376 32.8657 61.9776 36.8491C61.5567 37.3208 58.8717 39.7786 58.9204 40.0553C61.869 42.8298 66.5434 47.628 66.8646 51.8483C67.5071 60.2757 54.3768 57.9153 49.6249 56.0708C49.2594 57.1093 49.3502 59.0091 47.8482 59.0091C45.8411 59.0069 47.434 55.7653 47.1127 55.2671C44.8442 54.5297 42.6223 53.6241 40.5155 52.5059L33.5394 55.2494C33.9891 57.6784 34.698 60.1827 35.7171 62.4323C36.7361 64.682 39.0068 68.9377 41.9244 66.8519C40.0303 63.5682 43.0919 59.7797 46.6852 61.0816C50.2784 62.3836 49.7335 68.0742 45.8744 68.486C45.3072 68.5458 44.3259 68.3089 44.0999 68.3642C43.9537 68.3997 43.1495 69.1658 42.7707 69.3628C37.5625 72.0775 34.1021 65.22 32.7042 61.2964C32.0928 59.5804 31.7849 57.7359 31.1336 56.0841C26.6697 57.7404 14.9617 60.1716 14.0113 53.1303C13.3533 48.2524 18.9515 43.2018 21.9156 39.9358L19.4477 37.4337C16.7051 38.3017 14.0113 36.1782 14.2993 33.282C14.3657 32.6133 14.9838 31.6634 14.9661 31.3091C14.9439 30.8907 14.3059 29.6197 14.1796 28.9289C12.7928 21.2632 21.7782 21.8057 26.7671 22.8109C28.3223 23.1254 29.8066 23.69 31.3795 23.9203C32.1748 19.824 33.9027 13.8765 37.3631 11.2549C44.1508 6.11346 49.1575 19.0401 49.7866 23.9203H49.7911ZM40.1322 12.6853C37.3099 13.0993 35.1344 19.1995 34.4521 21.5998C34.2926 22.1577 33.6679 24.2701 33.6989 24.6687C33.7144 24.8724 33.7853 24.9897 33.9825 25.0517L40.562 27.6889C41.827 27.08 43.0831 26.4401 44.3702 25.8799C45.0215 25.5964 46.6209 25.1957 47.0374 24.899C47.2102 24.7772 47.2811 24.7307 47.3077 24.5004C47.3586 24.031 46.3772 20.8624 46.1491 20.1849C45.3914 17.9485 43.1207 12.2469 40.1322 12.6853ZM59.4854 23.5372C59.4854 22.7799 58.8717 22.1666 58.1141 22.1666C57.3564 22.1666 56.7428 22.7799 56.7428 23.5372C56.7428 24.2945 57.3564 24.9078 58.1141 24.9078C58.8717 24.9078 59.4854 24.2945 59.4854 23.5372ZM29.6847 33.9928L30.5554 27.1464C30.5709 26.8696 30.6307 26.5242 30.3892 26.3227C30.1234 26.0991 26.6918 25.2798 26.0804 25.1602C22.0263 24.3653 14.2948 23.3734 16.9554 30.0559C20.4601 29.075 23.1429 32.8303 21.2909 35.9147L23.5904 38.2707L23.9094 38.2662L29.6825 33.995L29.6847 33.9928ZM32.3786 32.0398L37.5159 29.1414C37.013 28.7495 33.3024 27.1287 33.0432 27.401L32.3808 32.0421L32.3786 32.0398ZM47.9656 27.401C47.7042 27.1265 43.8761 28.8049 43.3245 29.1414L48.4641 32.0421L47.9679 27.401H47.9656ZM48.7609 35.2239C46.0826 33.5854 43.422 31.9048 40.5598 30.5873C37.6223 31.8627 34.8708 33.5455 32.2102 35.308C32.033 38.4677 31.9798 41.6164 32.2479 44.7716C34.9329 46.3969 37.5868 48.093 40.449 49.4082C43.3954 48.1439 46.1247 46.4301 48.7986 44.6875C48.8119 43.5383 48.7765 42.3847 48.7875 41.2333C48.7964 40.496 48.7942 39.8295 48.7875 39.0922C48.7765 37.8035 48.8429 36.5082 48.7609 35.2239ZM19.4809 33.7381C19.4809 32.9897 18.8739 32.383 18.1251 32.383C17.3764 32.383 16.7694 32.9897 16.7694 33.7381C16.7694 34.4866 17.3764 35.0933 18.1251 35.0933C18.8739 35.0933 19.4809 34.4866 19.4809 33.7381ZM29.5585 37.1791C28.978 37.3938 28.4109 37.8943 27.9169 38.2729C27.2346 38.7954 26.5678 39.3667 25.9165 39.9313L26.4947 40.6532L29.5562 42.8143V37.1791H29.5585ZM51.4481 42.8143L55.0901 40.0642C55.1389 39.8339 53.5018 38.5917 53.1827 38.346C52.6555 37.943 52.064 37.4182 51.4481 37.1791V42.8143ZM29.6737 46.0138L23.9116 41.7293L23.5926 41.7249C22.4207 42.925 21.1801 44.0919 20.1101 45.3872C18.5527 47.2715 14.523 52.5746 17.5935 54.5231C19.6537 55.8295 23.6192 55.2914 25.943 54.8641C26.6054 54.7423 30.0591 53.9496 30.387 53.6728C30.6285 53.4713 30.5687 53.1237 30.5531 52.8469L29.6692 46.0138H29.6737ZM50.2851 53.5887C52.4295 54.0249 54.5075 54.7777 56.694 55.0567C62.9546 55.8561 67.0884 54.4057 62.7884 47.8051C62.2257 46.9416 57.7663 41.5876 57.1991 41.6762L51.3307 46.0116L50.2851 53.5865V53.5887ZM37.6843 50.9338L32.5447 47.9535L33.041 52.5945C33.3511 52.92 37.033 51.0955 37.6821 50.9338H37.6843ZM48.4619 47.9535L43.3223 50.9338C43.9714 51.0955 47.6555 52.92 47.9634 52.5945L48.4597 47.9535H48.4619ZM46.632 64.5159C46.632 63.783 46.0383 63.1896 45.305 63.1896C44.5718 63.1896 43.978 63.783 43.978 64.5159C43.978 65.2488 44.5718 65.8422 45.305 65.8422C46.0383 65.8422 46.632 65.2488 46.632 64.5159Z" fill="#898989"/>
<path d="M2.81258 28.5967C3.75853 28.3819 4.32344 28.7473 4.42756 29.6972C-1.81081 52.3067 13.5215 74.77 36.7714 77.2876C38.1626 77.4381 39.6136 77.385 41.0071 77.5289C42.0904 77.8633 41.9486 79.7409 40.739 79.9291C39.0953 80.1838 35.5795 79.6767 33.8339 79.3933C17.0616 76.6764 3.4661 62.7689 0.916259 46.0005C0.249445 41.6097 0.271598 33.9396 1.8179 29.757C2.01506 29.2211 2.17457 28.7406 2.81258 28.5967Z" fill="#898989"/>
<path d="M40.1236 0.088522C41.0828 -0.132901 43.3159 0.117307 44.3992 0.219161C67.669 2.43782 84.2796 24.6443 79.7559 47.6545C79.6229 48.3254 79.1843 50.6482 78.8033 51.0113C77.9526 51.8195 76.8183 51.3058 76.661 50.181C82.7532 27.6556 67.3699 5.21224 44.2353 2.70574C42.844 2.55517 41.393 2.60831 39.9995 2.46439C38.9384 2.13668 39.0846 0.329873 40.1258 0.088522H40.1236Z" fill="#898989"/>
<path d="M45.6906 79.0679C45.1212 78.4966 45.3051 77.622 45.9874 77.2212C54.8222 75.6912 63.1186 71.3402 68.8386 64.4119C69.0047 63.772 66.816 61.2633 66.9001 60.3444C66.9289 60.0388 69.0003 56.2813 69.3259 55.7964C69.7402 55.1764 69.9994 55.0037 70.7681 54.9173C71.7562 54.8066 74.9086 54.7977 75.7947 55.0302C76.0539 55.0989 76.3818 55.2206 76.5656 55.4199C76.9245 56.527 79.1531 59.3502 79.1509 60.3023C79.1509 60.8603 76.6675 65.2644 76.1514 65.5987C75.1013 66.2807 72.1704 65.5478 70.8523 65.9375C65.3228 72.4518 57.3942 77.3386 48.9626 79.0324C48.0698 79.2118 46.3951 79.7764 45.6906 79.0679ZM71.4571 57.426L69.769 60.3709L71.5125 63.4509H74.6627L76.3663 60.6632C76.5413 60.1761 74.995 58.0482 74.6649 57.4836L71.4571 57.4282V57.426Z" fill="#898989"/>
<path d="M9.79128 14.6029C14.6783 8.50044 21.8117 3.75536 29.3571 1.59206C30.2698 1.33078 32.7731 0.529229 33.5285 0.972074C34.2397 1.38835 34.2308 2.59953 33.4931 3.07338C32.6734 3.60036 29.5786 4.16056 28.3624 4.57462C21.8338 6.79992 15.91 10.9295 11.6699 16.3477C12.2082 17.5212 13.9007 19.3457 13.6039 20.6521C13.5285 20.9798 11.5946 24.3831 11.2888 24.8038C11.1028 25.0584 10.9012 25.2976 10.6486 25.4902H4.52101C4.09789 25.3131 2.41645 22.2286 2.10852 21.602C1.77844 20.9289 1.26669 20.2602 1.66102 19.4897C2.51392 18.5597 3.42664 15.6723 4.29062 14.9926C5.29638 14.1976 8.45987 14.8863 9.78907 14.6029H9.79128ZM9.29505 23.0568C9.54095 22.2286 10.7195 20.9798 10.9211 20.2757C11.0031 19.9856 10.9698 19.9214 10.8635 19.6601C10.7262 19.328 9.36816 17.1359 9.16213 17.0429L6.01193 17.0385L4.25517 19.9414L6.01193 23.0081L9.29505 23.0546V23.0568Z" fill="#898989"/>
<path d="M46.3615 40.0708C46.3615 43.2682 43.7696 45.8588 40.5707 45.8588C37.3717 45.8588 34.7798 43.2682 34.7798 40.0708C34.7798 36.8735 37.3717 34.2828 40.5707 34.2828C43.7696 34.2828 46.3615 36.8735 46.3615 40.0708ZM43.856 39.949C43.856 38.1157 42.3673 36.6277 40.533 36.6277C38.6987 36.6277 37.21 38.1157 37.21 39.949C37.21 41.7824 38.6987 43.2704 40.533 43.2704C42.3673 43.2704 43.856 41.7824 43.856 39.949Z" fill="#898989"/>
</g>
<defs>
<clipPath id="clip0_80_832">
<rect width="80" height="80" fill="white" transform="translate(0.5)"/>
</clipPath>
</defs>
</svg>
