<svg width="81" height="80" viewBox="0 0 81 80" fill="none" xmlns="http://www.w3.org/2000/svg">
<g clip-path="url(#clip0_80_844)">
<path d="M36.2982 79.9625L29.744 75.9729C29.0919 75.4646 29.0815 74.4771 29.744 73.9563L36.2898 70.0375C36.7878 69.6896 38.0148 70.3083 38.0148 70.825V73.7146C44.0544 73.2833 49.8711 71.0771 54.4169 67.0792C66.6503 56.3229 66.6461 37.3771 54.4169 26.625C46.1565 19.3625 32.6003 17.1625 23.7982 24.75C10.0482 36.6063 17.7732 58.6563 35.5148 59.9708V53.7229C33.694 53.7458 31.8628 53.2104 30.3107 52.2896C29.869 52.0271 29.0898 51.2083 28.6815 51.1021C28.1648 50.9688 26.7523 51.2896 25.9294 51.2042C22.4378 50.8438 19.3773 47.6521 19.2648 44.125C19.1878 41.7271 20.7961 39.0208 22.019 37.025C22.8357 35.6917 24.7815 32.6 25.8336 31.6229C26.3607 31.1333 27.0773 31.0479 27.6336 31.5417C28.144 31.9938 28.0294 33.2833 28.2232 34.0771C29.0607 37.5125 33.6878 38.8208 34.2294 42.7521C34.4836 44.6042 33.8982 46.7563 32.7732 48.2417C32.5315 48.5604 31.2461 49.65 31.3023 49.8917C32.5211 50.7771 34.0232 51.2021 35.5211 51.2229V40.6021C31.0378 38.2208 30.4732 31.6854 34.4253 28.4958C36.5232 26.8042 41.694 25.75 44.394 25.3438C45.3565 25.1979 47.6732 24.5979 48.2398 25.4604C49.0378 26.6729 47.6419 27.4583 47.1107 28.3729C45.5419 31.0604 46.9773 34.0042 46.1336 36.9229C45.2065 40.1271 41.2544 42.3021 38.0211 41.5396V59.8125C38.6523 60.0688 42.0815 58.7667 42.0794 58.3292C39.8607 56.45 38.7523 53.6292 39.5065 50.7563C40.3794 47.4292 44.4357 46.0771 45.2815 42.9438C45.5628 41.9063 45.2482 40.1479 46.5461 39.9813C47.6378 39.8417 48.3273 41.1771 48.9253 41.9583C50.6482 44.2146 53.9003 49.0604 54.2211 51.8125C54.7607 56.4583 50.6378 60.3 46.0669 59.9646C45.6482 59.9333 44.8253 59.6104 44.5315 59.6792C44.3982 59.7104 43.8378 60.2729 43.569 60.4396C36.0836 65.0646 25.4461 61.1167 19.9773 54.9708C8.3836 41.9396 15.4794 21.0521 32.5461 17.8708C46.5753 15.2563 60.6878 24.7438 64.8378 38.0688C70.5919 56.5375 57.1607 75.3958 38.0169 76.2083C37.8586 77.4917 38.5378 79.1833 37.2378 79.9583H36.3003L36.2982 79.9625ZM44.419 27.9563C41.9982 28.3333 39.2357 28.7813 37.0232 29.8521C33.7794 31.4229 33.4273 35.2042 35.7523 37.7938C36.069 36.5729 38.4607 31.3771 40.2065 33.3396C41.1773 34.4313 40.0148 35.0521 39.5128 35.7771C38.844 36.7417 38.1732 37.8292 38.1711 39.0438C40.9128 39.4771 43.619 38.1688 43.9315 35.1979C44.0815 33.7625 43.7128 32.4125 43.7961 31.0021C43.8586 29.9667 44.2211 28.9625 44.419 27.9563ZM26.769 48.7271C26.144 47.4917 24.2273 42.3604 26.844 42.4708C28.2419 42.5292 27.8794 43.7354 28.0378 44.5708C28.2628 45.7625 28.5982 46.9688 29.3565 47.9458C31.9565 46.3646 32.6023 43.2042 30.5211 40.8375C29.0357 39.1479 26.8357 37.9646 26.0669 35.6104C25.3461 35.9354 22.3023 41.4875 22.0128 42.4896C21.0773 45.7104 23.4961 48.6625 26.769 48.7292V48.7271ZM46.6086 57.4729C49.9419 57.5063 52.4732 54.5167 51.5211 51.2333C51.2294 50.2313 48.1878 44.6813 47.4669 44.3542C46.2065 48.3042 40.3169 49.4042 42.0982 54.2521C42.2857 54.7625 43.3586 56.6438 44.0107 56.5146C44.9461 55.6958 45.2336 54.4458 45.4711 53.2917C45.6461 52.4479 45.3232 51.2729 46.6878 51.2146C48.4503 51.1417 48.0336 53.2667 47.8086 54.3813C47.5773 55.5292 47.0753 56.4271 46.6065 57.4729H46.6086ZM35.5169 73.5604C34.7565 73.8271 33.8919 74.3292 33.2211 74.775C33.1107 74.8479 32.9503 74.7292 33.0169 75.0438L35.5169 76.5292V73.5625V73.5604Z" fill="#898989"/>
<path d="M80.5003 45.1354V49.8209L79.8295 54.5375C79.4524 56.3604 78.9274 58.1396 78.317 59.8959C78.1337 60.4229 77.1858 62.3834 77.217 62.6979C77.2733 63.275 80.1233 65.0146 80.5003 65.75V66.6875C80.2483 67.0063 80.1024 67.2 79.7212 67.3917C78.7358 67.8896 73.1378 69.7813 72.1045 69.9334C71.3337 70.0459 70.7878 69.8292 70.5378 69.075L70.5753 59.4959C71.8191 57.4209 73.592 60.0959 74.8003 60.9104C74.9295 60.9979 74.9503 61.1313 75.1899 61.0646C79.9274 50.1938 78.6108 37.525 71.7274 27.9063C65.3253 18.9584 54.9899 13.6584 43.9087 13.7105C42.7587 13.4542 42.7045 11.6542 43.7899 11.3146C44.2962 11.1563 45.4858 11.2167 46.0691 11.2375C63.8587 11.9146 79.4087 26.9646 80.3399 44.7584L80.5024 45.1354H80.5003ZM73.0024 67L76.592 65.6729L73.0024 62.6271V67Z" fill="#898989"/>
<path d="M38.4851 0L45.0393 3.98958C45.5726 4.39792 45.6705 5.11042 45.3414 5.68333C44.758 6.69792 39.6205 8.875 38.4934 9.925C37.9955 10.2729 36.7684 9.65417 36.7684 9.1375V6.24792C21.8622 6.20417 8.54136 16.2375 4.39553 30.4917C1.93303 38.9583 2.87053 47.6958 6.75178 55.5604C6.55386 57.1104 5.10594 57.3729 4.25178 56.0188C2.90386 53.8833 1.47053 48.7958 1.04761 46.2604L0.530943 42.325C0.599693 40.7833 0.437193 39.1729 0.530943 37.6396C0.549693 37.3229 0.645526 36.7271 0.687193 36.3125C2.50386 18.025 18.3476 3.63542 36.7664 3.74792V0.858333C36.7664 0.633333 37.3559 0.164583 37.5476 0H38.4851ZM39.2643 3.43542V6.55833C39.983 6.03958 40.8247 5.67708 41.5601 5.18958C41.6705 5.11667 41.8309 5.23542 41.7643 4.92083L39.2643 3.43542Z" fill="#898989"/>
<path d="M67.5353 79.9626C67.1936 80.0105 66.3145 80.0105 65.9728 79.9626C60.1186 79.1251 60.5374 69.9667 66.677 69.9584C72.8166 69.95 73.3541 79.1313 67.5353 79.9626ZM69.2666 74.9667C69.2666 73.5792 68.1416 72.4542 66.7541 72.4542C65.3666 72.4542 64.2416 73.5792 64.2416 74.9667C64.2416 76.3542 65.3666 77.4792 66.7541 77.4792C68.1416 77.4792 69.2666 76.3542 69.2666 74.9667Z" fill="#898989"/>
<path d="M65.4997 6.24377C65.4997 9.00418 63.2622 11.2417 60.5018 11.2417C57.7414 11.2417 55.5039 9.00418 55.5039 6.24377C55.5039 3.48335 57.7414 1.24585 60.5018 1.24585C63.2622 1.24585 65.4997 3.48335 65.4997 6.24377ZM63.0185 6.24793C63.0185 4.86043 61.8935 3.73543 60.506 3.73543C59.1185 3.73543 57.9935 4.86043 57.9935 6.24793C57.9935 7.63543 59.1185 8.76043 60.506 8.76043C61.8935 8.76043 63.0185 7.63543 63.0185 6.24793Z" fill="#898989"/>
<path d="M11.7712 66.2167C11.7712 68.9771 9.53372 71.2146 6.77331 71.2146C4.01289 71.2146 1.77539 68.9771 1.77539 66.2167C1.77539 63.4562 4.01289 61.2188 6.77331 61.2188C9.53372 61.2188 11.7712 63.4562 11.7712 66.2167ZM9.28997 66.2187C9.28997 64.8312 8.16497 63.7063 6.77747 63.7063C5.38997 63.7063 4.26497 64.8312 4.26497 66.2187C4.26497 67.6062 5.38997 68.7312 6.77747 68.7312C8.16497 68.7312 9.28997 67.6062 9.28997 66.2187Z" fill="#898989"/>
<path d="M75.4982 44.977C75.4982 47.0437 73.8232 48.7208 71.7545 48.7208C69.6857 48.7208 68.0107 47.0458 68.0107 44.977C68.0107 42.9083 69.6857 41.2333 71.7545 41.2333C73.8232 41.2333 75.4982 42.9083 75.4982 44.977ZM73.0253 44.9791C73.0253 44.277 72.4566 43.7083 71.7545 43.7083C71.0524 43.7083 70.4837 44.277 70.4837 44.9791C70.4837 45.6812 71.0524 46.2499 71.7545 46.2499C72.4566 46.2499 73.0253 45.6812 73.0253 44.9791Z" fill="#898989"/>
<path d="M16.7707 24.9854C16.7707 27.0521 15.0957 28.7292 13.027 28.7292C10.9582 28.7292 9.2832 27.0542 9.2832 24.9854C9.2832 22.9167 10.9582 21.2417 13.027 21.2417C15.0957 21.2417 16.7707 22.9167 16.7707 24.9854ZM14.2957 24.9896C14.2957 24.2875 13.727 23.7188 13.0249 23.7188C12.3228 23.7188 11.754 24.2875 11.754 24.9896C11.754 25.6917 12.3228 26.2605 13.0249 26.2605C13.727 26.2605 14.2957 25.6917 14.2957 24.9896Z" fill="#898989"/>
<path d="M75.4982 13.7417C75.4982 15.8083 73.8232 17.4854 71.7545 17.4854C69.6857 17.4854 68.0107 15.8104 68.0107 13.7417C68.0107 11.6729 69.6857 9.99792 71.7545 9.99792C73.8232 9.99792 75.4982 11.6729 75.4982 13.7417ZM73.0253 13.7438C73.0253 13.0417 72.4566 12.4729 71.7545 12.4729C71.0524 12.4729 70.4837 13.0417 70.4837 13.7438C70.4837 14.4458 71.0524 15.0146 71.7545 15.0146C72.4566 15.0146 73.0253 14.4458 73.0253 13.7438Z" fill="#898989"/>
<path d="M18.0187 57.4708C18.0187 59.5375 16.3438 61.2145 14.275 61.2145C12.2063 61.2145 10.5312 59.5395 10.5312 57.4708C10.5312 55.402 12.2063 53.7271 14.275 53.7271C16.3438 53.7271 18.0187 55.402 18.0187 57.4708ZM15.5458 57.4729C15.5458 56.7708 14.9771 56.202 14.275 56.202C13.5729 56.202 13.0042 56.7708 13.0042 57.4729C13.0042 58.175 13.5729 58.7437 14.275 58.7437C14.9771 58.7437 15.5458 58.175 15.5458 57.4729Z" fill="#898989"/>
<path d="M31.7648 66.2167C31.7648 68.2833 30.0898 69.9604 28.0211 69.9604C25.9523 69.9604 24.2773 68.2854 24.2773 66.2167C24.2773 64.1479 25.9523 62.4729 28.0211 62.4729C30.0898 62.4729 31.7648 64.1479 31.7648 66.2167ZM29.2919 66.2187C29.2919 65.5167 28.7232 64.9479 28.0211 64.9479C27.319 64.9479 26.7503 65.5167 26.7503 66.2187C26.7503 66.9208 27.319 67.4896 28.0211 67.4896C28.7232 67.4896 29.2919 66.9208 29.2919 66.2187Z" fill="#898989"/>
<path d="M50.1545 36.2667C50.9253 36.0917 52.3837 36.3917 53.1607 36.6313C55.0732 37.2188 56.942 38.7063 57.9795 40.4042C58.7232 41.6209 60.5003 46.348 57.9357 46.2417C56.6024 46.1855 56.9045 45.1021 56.742 44.298C56.2482 41.8396 54.9753 39.8355 52.4732 39.0396C51.6337 38.773 50.8878 38.8667 50.1545 38.7021C48.9587 38.4355 48.9566 36.5417 50.1545 36.2688V36.2667Z" fill="#898989"/>
<path d="M15.5207 4.99583C15.5207 7.06249 13.8457 8.73958 11.777 8.73958C9.7082 8.73958 8.0332 7.06458 8.0332 4.99583C8.0332 2.92708 9.71029 1.25208 11.777 1.25208C13.8436 1.25208 15.5207 2.92708 15.5207 4.99583ZM13.0478 4.99791C13.0478 4.29583 12.479 3.72708 11.777 3.72708C11.0749 3.72708 10.5061 4.29583 10.5061 4.99791C10.5061 5.69999 11.0749 6.26874 11.777 6.26874C12.479 6.26874 13.0478 5.69999 13.0478 4.99791Z" fill="#898989"/>
</g>
<defs>
<clipPath id="clip0_80_844">
<rect width="80" height="80" fill="white" transform="translate(0.5)"/>
</clipPath>
</defs>
</svg>
