<svg width="80" height="80" viewBox="0 0 80 80" fill="none" xmlns="http://www.w3.org/2000/svg">
<g clip-path="url(#clip0_382_2356)">
<path d="M49.2911 23.9203C50.4984 23.4132 52.8866 22.8309 52.4036 24.961C52.1444 26.1079 50.5538 25.716 49.7762 26.3493L50.6513 33.8289L56.533 38.1511C58.6708 36.3089 60.9858 33.9972 62.459 31.5306C64.0119 28.9288 65.1927 25.7027 61.1586 24.9078C59.8427 27.8284 55.782 28.3731 54.1271 25.4636C51.759 21.3053 57.4479 17.2798 60.638 21.2765C60.8507 21.5444 60.9769 22.1555 61.1719 22.2751C61.4466 22.4434 61.9982 22.4168 62.3527 22.5452C69.969 25.3108 65.0376 32.8657 61.4776 36.8491C61.0567 37.3208 58.3717 39.7786 58.4204 40.0553C61.369 42.8298 66.0434 47.628 66.3646 51.8483C67.0071 60.2757 53.8768 57.9153 49.1249 56.0708C48.7594 57.1093 48.8502 59.0091 47.3482 59.0091C45.3411 59.0069 46.934 55.7653 46.6127 55.2671C44.3442 54.5297 42.1223 53.6241 40.0155 52.5059L33.0394 55.2494C33.4891 57.6784 34.198 60.1827 35.2171 62.4323C36.2361 64.682 38.5068 68.9377 41.4244 66.8519C39.5303 63.5682 42.5919 59.7797 46.1852 61.0816C49.7784 62.3836 49.2335 68.0742 45.3744 68.486C44.8072 68.5458 43.8259 68.3089 43.5999 68.3642C43.4537 68.3997 42.6495 69.1658 42.2707 69.3628C37.0624 72.0775 33.6021 65.22 32.2042 61.2964C31.5928 59.5804 31.2849 57.7359 30.6336 56.0841C26.1697 57.7404 14.4617 60.1716 13.5113 53.1303C12.8533 48.2524 18.4515 43.2018 21.4156 39.9358L18.9477 37.4337C16.2051 38.3017 13.5113 36.1782 13.7993 33.282C13.8657 32.6133 14.4838 31.6634 14.4661 31.3091C14.4439 30.8907 13.8059 29.6197 13.6796 28.9288C12.2928 21.2632 21.2782 21.8057 26.2671 22.8109C27.8223 23.1254 29.3066 23.69 30.8795 23.9203C31.6748 19.824 33.4027 13.8765 36.8631 11.2549C43.6508 6.11346 48.6575 19.0401 49.2866 23.9203H49.2911ZM39.6322 12.6853C36.8099 13.0993 34.6344 19.1995 33.9521 21.5998C33.7926 22.1577 33.1679 24.2701 33.1989 24.6687C33.2144 24.8724 33.2853 24.9897 33.4825 25.0517L40.062 27.6889C41.327 27.08 42.5831 26.4401 43.8702 25.8799C44.5215 25.5964 46.1209 25.1957 46.5374 24.899C46.7102 24.7772 46.7811 24.7307 46.8077 24.5004C46.8586 24.031 45.8772 20.8624 45.6491 20.1849C44.8914 17.9485 42.6207 12.2469 39.6322 12.6853ZM58.9854 23.5372C58.9854 22.7799 58.3717 22.1666 57.6141 22.1666C56.8564 22.1666 56.2428 22.7799 56.2428 23.5372C56.2428 24.2945 56.8564 24.9078 57.6141 24.9078C58.3717 24.9078 58.9854 24.2945 58.9854 23.5372ZM29.1847 33.9928L30.0554 27.1464C30.0709 26.8696 30.1307 26.5242 29.8892 26.3227C29.6234 26.0991 26.1918 25.2798 25.5804 25.1602C21.5263 24.3653 13.7948 23.3734 16.4554 30.0559C19.9601 29.075 22.6429 32.8303 20.7909 35.9147L23.0904 38.2707L23.4094 38.2662L29.1825 33.995L29.1847 33.9928ZM31.8786 32.0398L37.0159 29.1414C36.513 28.7495 32.8024 27.1287 32.5432 27.401L31.8808 32.0421L31.8786 32.0398ZM47.4656 27.401C47.2042 27.1265 43.3761 28.8049 42.8245 29.1414L47.9641 32.0421L47.4679 27.401H47.4656ZM48.2609 35.2239C45.5826 33.5854 42.922 31.9048 40.0598 30.5873C37.1223 31.8627 34.3708 33.5455 31.7102 35.308C31.533 38.4677 31.4798 41.6164 31.7479 44.7716C34.4329 46.3969 37.0868 48.093 39.949 49.4082C42.8954 48.1439 45.6247 46.4301 48.2986 44.6875C48.3119 43.5383 48.2765 42.3847 48.2875 41.2333C48.2964 40.496 48.2942 39.8295 48.2875 39.0922C48.2765 37.8035 48.3429 36.5081 48.2609 35.2239ZM18.9809 33.7382C18.9809 32.9897 18.3739 32.383 17.6251 32.383C16.8764 32.383 16.2694 32.9897 16.2694 33.7382C16.2694 34.4866 16.8764 35.0933 17.6251 35.0933C18.3739 35.0933 18.9809 34.4866 18.9809 33.7382ZM29.0585 37.1791C28.478 37.3938 27.9109 37.8943 27.4169 38.2729C26.7346 38.7954 26.0678 39.3667 25.4165 39.9313L25.9947 40.6532L29.0562 42.8143V37.1791H29.0585ZM50.9481 42.8143L54.5901 40.0642C54.6389 39.8339 53.0017 38.5917 52.6827 38.346C52.1555 37.943 51.564 37.4182 50.9481 37.1791V42.8143ZM29.1737 46.0138L23.4116 41.7293L23.0926 41.7249C21.9207 42.925 20.6801 44.0919 19.6101 45.3872C18.0527 47.2715 14.023 52.5746 17.0935 54.5231C19.1537 55.8295 23.1192 55.2914 25.443 54.8641C26.1054 54.7423 29.5591 53.9496 29.887 53.6728C30.1285 53.4713 30.0687 53.1237 30.0531 52.8469L29.1692 46.0138H29.1737ZM49.7851 53.5887C51.9295 54.0249 54.0075 54.7777 56.194 55.0567C62.4546 55.8561 66.5884 54.4057 62.2884 47.8051C61.7257 46.9416 57.2663 41.5876 56.6991 41.6762L50.8307 46.0116L49.7851 53.5865V53.5887ZM37.1843 50.9338L32.0447 47.9535L32.541 52.5945C32.8511 52.92 36.533 51.0955 37.1821 50.9338H37.1843ZM47.9619 47.9535L42.8223 50.9338C43.4714 51.0955 47.1555 52.92 47.4634 52.5945L47.9597 47.9535H47.9619ZM46.132 64.5159C46.132 63.783 45.5383 63.1896 44.805 63.1896C44.0718 63.1896 43.478 63.783 43.478 64.5159C43.478 65.2488 44.0718 65.8422 44.805 65.8422C45.5383 65.8422 46.132 65.2488 46.132 64.5159Z" fill="#898989"/>
<path d="M2.31258 28.5967C3.25853 28.3819 3.82344 28.7473 3.92756 29.6972C-2.31081 52.3067 13.0215 74.77 36.2714 77.2876C37.6626 77.4381 39.1136 77.385 40.5071 77.5289C41.5904 77.8633 41.4486 79.7409 40.239 79.9291C38.5953 80.1838 35.0795 79.6767 33.3338 79.3933C16.5616 76.6764 2.9661 62.7689 0.416259 46.0005C-0.250555 41.6097 -0.228402 33.9396 1.3179 29.757C1.51506 29.2211 1.67457 28.7406 2.31258 28.5967Z" fill="#898989"/>
<path d="M39.6236 0.088522C40.5828 -0.132901 42.8159 0.117307 43.8992 0.219161C67.169 2.43782 83.7796 24.6443 79.2559 47.6545C79.1229 48.3254 78.6843 50.6482 78.3033 51.0113C77.4526 51.8195 76.3183 51.3058 76.161 50.181C82.2532 27.6556 66.8699 5.21224 43.7353 2.70574C42.344 2.55517 40.893 2.60831 39.4995 2.46439C38.4384 2.13668 38.5846 0.329873 39.6258 0.088522H39.6236Z" fill="#898989"/>
<path d="M45.1906 79.0679C44.6212 78.4966 44.8051 77.622 45.4874 77.2212C54.3222 75.6912 62.6186 71.3402 68.3386 64.4119C68.5047 63.772 66.316 61.2633 66.4001 60.3444C66.4289 60.0388 68.5003 56.2813 68.8259 55.7964C69.2402 55.1764 69.4994 55.0037 70.2681 54.9173C71.2562 54.8066 74.4086 54.7977 75.2947 55.0302C75.5539 55.0989 75.8818 55.2206 76.0656 55.4199C76.4245 56.527 78.6531 59.3502 78.6509 60.3023C78.6509 60.8603 76.1675 65.2644 75.6514 65.5987C74.6013 66.2807 71.6704 65.5478 70.3523 65.9375C64.8228 72.4518 56.8942 77.3386 48.4626 79.0324C47.5698 79.2118 45.8951 79.7764 45.1906 79.0679ZM70.9571 57.426L69.269 60.3709L71.0125 63.4509H74.1627L75.8663 60.6632C76.0413 60.1761 74.495 58.0482 74.1649 57.4836L70.9571 57.4282V57.426Z" fill="#898989"/>
<path d="M9.29128 14.6027C14.1783 8.50032 21.3117 3.75524 28.8571 1.59194C29.7698 1.33066 32.2731 0.529107 33.0285 0.971952C33.7397 1.38823 33.7308 2.59941 32.9931 3.07325C32.1734 3.60024 29.0786 4.16044 27.8624 4.5745C21.3338 6.7998 15.41 10.9293 11.1699 16.3475C11.7082 17.5211 13.4007 19.3456 13.1039 20.652C13.0285 20.9797 11.0946 24.383 10.7888 24.8037C10.6028 25.0583 10.4012 25.2974 10.1486 25.4901H4.02101C3.59789 25.3129 1.91645 22.2285 1.60852 21.6019C1.27844 20.9288 0.766694 20.2601 1.16102 19.4895C2.01392 18.5596 2.92664 15.6722 3.79062 14.9924C4.79638 14.1975 7.95987 14.8862 9.28907 14.6027H9.29128ZM8.79505 23.0566C9.04095 22.2285 10.2195 20.9797 10.4211 20.2756C10.5031 19.9855 10.4698 19.9213 10.3635 19.66C10.2262 19.3279 8.86816 17.1358 8.66213 17.0428L5.51193 17.0384L3.75517 19.9412L5.51193 23.0079L8.79505 23.0544V23.0566Z" fill="#898989"/>
<path d="M45.8615 40.0709C45.8615 43.2683 43.2696 45.8589 40.0707 45.8589C36.8717 45.8589 34.2798 43.2683 34.2798 40.0709C34.2798 36.8736 36.8717 34.283 40.0707 34.283C43.2696 34.283 45.8615 36.8736 45.8615 40.0709ZM43.356 39.9492C43.356 38.1158 41.8673 36.6278 40.033 36.6278C38.1987 36.6278 36.71 38.1158 36.71 39.9492C36.71 41.7825 38.1987 43.2705 40.033 43.2705C41.8673 43.2705 43.356 41.7825 43.356 39.9492Z" fill="#898989"/>
</g>
<defs>
<clipPath id="clip0_382_2356">
<rect width="80" height="80" fill="white"/>
</clipPath>
</defs>
</svg>
