<svg width="80" height="80" viewBox="0 0 80 80" fill="none" xmlns="http://www.w3.org/2000/svg">
<g clip-path="url(#clip0_382_2363)">
<path d="M55.625 0C56.6417 0.458333 57.3667 1.08333 57.5 2.26667L57.5167 32.95L70.8167 36.2917C71.975 36.6417 72.6917 37.9417 72.4583 39.1083L60.4667 67.5C61.0583 67.4667 61.675 67.55 62.2583 67.5C65.3417 67.2167 66.7833 64.7 70.8583 65C73.5083 65.1917 74.6333 66.6083 76.7417 67.2417C77.95 67.6083 79.2917 67.1583 79.9917 68.2917V69.225C79.2083 70.575 76.8 69.9417 75.575 69.5C74.6667 69.175 73.875 68.525 73.0167 68.15C68.0833 66 66.5417 69.6833 62.2583 70C59.2333 70.225 58.275 69.2083 55.8333 68.15C50.6833 65.9083 48.6333 70.3083 43.6583 70.0083C39.4917 69.7583 37.7333 66.075 32.9667 68.05C30.325 69.1417 29.6417 70.2333 26.3167 70.0083C23.3417 69.8083 21.7167 67.725 19.1333 67.5083C14.775 67.1417 13.2333 71.0417 7.65 69.775C5.95 69.3917 4.74167 68.2167 3.25 67.7667C2.04167 67.4 0.7 67.85 0 66.7167V65.7833C0.55 64.85 1.43333 64.9333 2.4 65.025C6.14167 65.375 7.60833 68.6833 12.075 67.1583C13.0083 66.8417 13.85 66.1417 14.7417 65.7583C16.05 65.2 17.4833 64.925 18.9083 65L7.54167 39.1083C7.30833 37.9417 8.01667 36.6417 9.18333 36.2917L22.2417 33.1L22.4833 32.875L22.5 2.26667C22.6333 1.08333 23.3583 0.458333 24.375 0L55.625 0ZM55 2.5H25V7.5H55V2.5ZM31.875 10H25V32.3417L31.875 30.775V10ZM45.625 10H34.375V30.1583C36.0417 29.9 38.4667 28.775 40.075 28.7417C41.6833 28.7083 43.9833 29.8583 45.625 30V10ZM55 10H48.125V30.625L55 32.3417V10ZM70 38.5917L40.0917 31.2583L10 38.6667L21.95 65.625C23.8083 66.7083 25.325 67.65 27.5833 67.5C30.0167 67.3417 31.2333 65.725 33.4333 65.225C38.9583 63.9667 40.4333 67.675 44.6167 67.5C46.95 67.4083 47.8583 66.1667 49.8 65.5C52.6833 64.5083 55.5417 64.9667 58.125 66.4833L70 38.5917Z" fill="#898989"/>
<path d="M80 78.2833V80H77.3416C76.7416 79.7333 76.0916 79.6833 75.4666 79.45C74.4916 79.0833 73.6583 78.375 72.6916 78.0083C68.35 76.325 66.5916 79.2667 62.65 80H60.3083C59.5416 79.7167 58.7333 79.5917 57.9666 79.2917C57.1 78.9583 56.3416 78.3333 55.5083 78C51.25 76.3083 49.3166 79.2 45.4666 79.9917H43.125C42.4333 79.7417 41.6833 79.6583 40.9833 79.4C39.4 78.8083 38.325 77.7 36.4666 77.5167C33.15 77.1833 31.475 79.3917 28.4416 80H25.7833C25.0083 79.7583 24.2 79.6083 23.4416 79.2917C22.6166 78.95 21.9166 78.3167 21.1416 78C16.9333 76.275 15 79.0917 11.2583 80H8.59997C7.82497 79.7583 7.01663 79.6083 6.2583 79.2917C5.2333 78.875 4.3083 78.075 3.2583 77.7667C2.04997 77.4 0.708301 77.85 0.00830078 76.7167V75.7833C0.558301 74.85 1.44163 74.9333 2.4083 75.025C5.52497 75.3167 6.9583 77.7333 10.4 77.5083C12.6916 77.3583 14.1166 75.7167 16.25 75.2333C21.8 73.975 23.3166 77.7917 27.5916 77.5083C30.275 77.3333 31.8666 75.2417 34.775 75.0083C38 74.7417 38.7833 75.7 41.35 76.8583C46.3666 79.1333 48.625 74.7167 53.525 75C56.5166 75.175 58.2583 77.225 60.725 77.4917C65.35 77.9917 67.0916 73.4917 73.175 75.5167C74.4583 75.9417 75.5583 76.8833 76.7583 77.2417C77.9583 77.6 79.3083 77.1583 80.0083 78.2917L80 78.2833Z" fill="#898989"/>
<path d="M80 73.2834V74.2167C79.2166 75.5667 76.8083 74.9334 75.5833 74.4917C74.675 74.1667 73.8833 73.5167 73.025 73.1417C68.0916 70.9917 66.55 74.675 62.2666 74.9917C59.2416 75.2167 58.2833 74.2 55.8416 73.1417C50.6916 70.9 48.6416 75.3 43.6666 75C39.5 74.75 37.7416 71.0667 32.975 73.0417C30.3333 74.1334 29.65 75.225 26.325 75C23.35 74.8 21.725 72.7167 19.1416 72.5C14.7833 72.1334 13.2416 76.0334 7.6583 74.7667C5.9583 74.3834 4.74997 73.2084 3.2583 72.7584C2.04997 72.3917 0.708301 72.8417 0.00830078 71.7084V70.775C0.558301 69.8417 1.44163 69.925 2.4083 70.0167C5.52497 70.3084 6.9583 72.725 10.4 72.5C12.6916 72.35 14.1166 70.7084 16.25 70.225C21.8 68.9667 23.3166 72.7834 27.5916 72.5C30.275 72.325 31.8666 70.2334 34.775 70C38 69.7334 38.7833 70.6917 41.35 71.85C46.3666 74.125 48.625 69.7084 53.525 69.9917C56.5166 70.1667 58.2583 72.2167 60.725 72.4834C65.35 72.9834 67.0916 68.4834 73.175 70.5084C74.4583 70.9334 75.5583 71.875 76.7583 72.2334C77.9583 72.5917 79.3083 72.15 80.0083 73.2834H80Z" fill="#898989"/>
<path d="M80 63.2833V64.2166C79.45 65.15 78.5666 65.0666 77.6 64.975C74.5666 64.6916 72.9166 62.2583 69.6083 62.4916C67.5666 62.6333 66.2416 63.9583 64.3833 64.525C64.9666 63.7833 65.4 61.5833 65.95 61.0166C67.0583 59.875 70.8833 59.8916 72.3583 60.225C74.0333 60.6083 75.1833 61.725 76.6416 62.1916C77.8916 62.5916 79.2833 62.1416 80.0083 63.275L80 63.2833Z" fill="#898989"/>
<path d="M0 60.7833C0.8 59.4083 3.275 60.0833 4.53333 60.55C5.625 60.9583 6.64167 61.85 7.73333 62.2C10.1417 62.9667 12.3667 62.3167 14.3833 60.9417L15.3083 63.1917C12.7833 65.2083 9.34167 65.5083 6.375 64.3417C5.30833 63.925 4.34167 63.0917 3.25833 62.7667C2.05 62.4 0.708333 62.85 0.00833333 61.7167V60.7833H0Z" fill="#898989"/>
<path d="M20 11.25V13.75H14.375V23.125H20V25.625H14.375V32.5L11.875 32.9667V13.2C11.875 12.575 13.2083 11.25 13.825 11.25H20Z" fill="#898989"/>
<path d="M68.125 32.9667L65.625 32.2667V25.625H60V23.125H65.625V13.75H60V11.25H66.175C66.8 11.25 68.125 12.5833 68.125 13.2V32.9667Z" fill="#898989"/>
<path d="M39.3332 37.0667C39.9582 36.975 40.6582 37.0167 41.2915 37.0667L59.3749 41.95C60.8499 42.5917 60.1165 44.725 58.5582 44.3333L40.2332 39.5167L21.9082 44.3333C20.4082 44.7583 19.6499 42.6417 20.9832 41.9917L39.3332 37.0667Z" fill="#898989"/>
<path d="M39.3332 55.0418C44.4582 54.2251 45.3166 61.8918 40.5332 62.4918C35.7499 63.0918 34.7166 55.7751 39.3332 55.0418ZM39.6416 57.5334C38.1999 57.8501 38.5166 60.3751 40.3499 59.9751C41.7916 59.6584 41.4749 57.1334 39.6416 57.5334Z" fill="#898989"/>
<path d="M33.8586 45.0333L46.0002 45.0083C47.4336 45.2333 47.4836 47.3083 45.8586 47.5C42.2086 47.925 37.7252 47.1833 33.9919 47.4916C32.6252 47.275 32.5586 45.4 33.8586 45.0333Z" fill="#898989"/>
<path d="M33.8586 50.0333L46.0002 50.0083C47.4336 50.2333 47.4836 52.3083 45.8586 52.5C42.2086 52.925 37.7252 52.1833 33.9919 52.4916C32.6252 52.275 32.5586 50.4 33.8586 50.0333Z" fill="#898989"/>
</g>
<defs>
<clipPath id="clip0_382_2363">
<rect width="80" height="80" fill="white"/>
</clipPath>
</defs>
</svg>
