<svg width="125" height="80" viewBox="0 0 125 80" fill="none" xmlns="http://www.w3.org/2000/svg">
<g clip-path="url(#clip0_272_1054)">
<path d="M0.00033402 37.7613L11.3613 3.12505C12.9638 0.013038 15.6172 -0.436657 18.8091 0.32261C21.2373 0.899392 31.4951 4.12546 33.0617 5.36375C35.9207 7.622 35.17 10.8481 34.2073 13.8493C34.3574 14.0611 37.3078 14.4978 37.7843 14.4978C40.1896 14.501 42.1544 12.6208 44.3737 11.6986C51.4723 8.75601 56.5539 10.6558 63.1694 13.6147C69.7294 10.9914 74.0539 9.8998 80.7836 12.8424C83.3456 13.9633 84.328 15.5079 87.3469 15.332C88.6883 15.2538 89.8208 14.7617 91.1231 14.589C89.7229 10.5613 88.9005 6.55316 93.5676 4.47088C96.531 3.15112 103.062 1.08514 106.27 0.32261C109.508 -0.446433 112.073 0.0554006 113.718 3.12505C116.782 14.2306 121.821 25.5153 124.654 36.6012C125.532 40.0391 124.824 42.7014 121.41 44.2232C119.044 45.279 109.912 48.3617 107.549 48.6745C105.914 48.8896 104.498 48.6126 103.094 47.7621C103.538 53.2432 98.721 57.3393 93.3195 56.1727C93.2249 61.4257 89.0539 65.235 83.7928 64.3487C84.1159 69.5625 79.6185 73.4273 74.5075 72.8864C74.8992 76.0864 72.1283 79.2798 68.9918 79.6969C65.1929 80.1988 62.954 77.9796 59.7458 76.5295C57.2947 81.0819 51.2242 81.1405 48.4925 76.7935C45.0232 80.4204 38.4468 79.1462 36.8835 74.3495C31.6681 78.7291 24.1681 75.0371 24.674 68.2493C21.5277 68.3308 18.5708 66.1475 17.7059 63.1332C16.3189 58.3039 20.1864 55.4949 22.1185 51.6595L19.625 48.7756C18.424 48.8342 17.5036 48.6354 16.3678 48.3682C13.4109 47.6709 5.72814 45.2953 3.16287 43.9886C1.37435 43.0762 0.649812 41.7955 -0.00292969 39.9544V37.758L0.00033402 37.7613ZM15.8097 3.90713C15.5291 3.99186 15.3267 4.24603 15.1439 4.4611L3.91026 39.0811L4.39002 40.0847L18.6818 44.8489C19.7784 44.8033 20.1374 44.1222 20.4605 43.1902L31.2373 9.83463C31.1492 9.05907 30.8293 8.37475 30.0493 8.12383C26.0056 7.16905 21.3385 4.72831 17.3567 3.96905C16.8313 3.86803 16.345 3.74746 15.8065 3.90713H15.8097ZM107.918 3.91691C105.966 4.233 96.8084 7.22444 95.033 8.12383C94.377 8.45621 93.9331 8.82118 93.8189 9.60326L104.622 43.1902C104.945 44.1222 105.304 44.8065 106.4 44.8489L119.955 40.567C120.669 40.3063 121.182 39.635 121.185 38.8595L110.307 5.07047C109.71 3.88758 109.246 3.69858 107.921 3.91039L107.918 3.91691ZM58.3848 15.811C54.0245 13.9633 50.6824 13.4126 46.1753 15.2016C44.2236 15.9772 41.9847 17.8346 40.1244 18.1833C37.7614 18.6297 35.0199 18.1279 32.7386 17.512L23.2445 46.853C23.5121 47.4102 23.8841 48.0456 24.3019 48.4986C26.0741 50.431 27.1283 49.2774 29.3247 49.8281C32.8659 50.7145 34.8926 53.9373 34.7033 57.5088C37.6211 57.6391 40.2027 59.1446 41.3091 61.8949C42.3861 61.5756 43.0813 60.901 44.2203 60.5654C48.1988 59.402 51.358 61.2986 53.1563 64.8147C56.7954 63.1234 61.0969 64.29 62.373 68.2982C63.0291 70.3576 62.5493 71.345 62.0891 73.3328C64.1616 74.1866 67.1315 76.8326 69.3737 75.4346C71.11 74.3528 71.0904 71.7002 69.4716 70.4815C67.4742 68.976 64.2627 68.0864 62.1674 66.5548C60.7575 64.9711 62.2425 62.7063 64.2105 63.2896C66.7954 64.0587 70.7608 66.9849 73.4501 68.2167C74.8012 68.8358 75.3528 69.2008 76.9129 68.813C80.3234 67.969 80.8619 63.7621 78.0552 61.6635C76.4527 60.4676 71.7268 58.8318 70.6792 57.6847C69.2856 56.1564 70.8326 53.7287 72.8104 54.4587C76.358 55.9609 79.9808 58.7405 83.4925 60.1352C88.4338 62.0937 91.4821 56.1206 87.4448 53.2627L76.2177 47.1528C74.9057 45.8102 76.4853 43.5389 78.1759 43.9593L94.4357 52.3764C97.8822 52.8587 100.539 49.5902 98.4142 46.4554C97.001 44.3731 90.5486 40.567 88.1139 39.1788C83.0878 36.3112 77.7451 34.0236 72.1576 32.466C65.4181 34.0106 58.6198 37.442 51.9847 39.0452C47.6994 40.0815 45.1048 38.3805 42.8952 34.809C42.0304 33.411 40.516 30.9214 41.3189 29.3703C41.6975 28.6371 45.999 24.5246 46.9031 23.7263C47.7157 23.0061 48.7014 22.4358 49.4814 21.6668L58.3848 15.8045V15.811ZM92.5819 18.255C90.0167 18.7699 87.8626 19.4868 85.17 19.1935C82.8039 18.9361 81.0349 17.1568 78.8319 16.2542C72.6864 13.7352 68.8352 15.4037 63.1106 17.9617C56.4462 20.9401 50.5225 25.411 45.4181 30.5629L45.2973 30.9409C46.2895 32.9157 47.236 35.1609 49.7131 35.5259L71.0806 28.6012C72.954 28.2525 77.5036 30.0155 79.4586 30.7487C86.9292 33.5446 93.7079 37.7939 100.16 42.3951L92.5819 18.255ZM27.484 53.5071C26.5082 53.5104 25.7053 53.8917 25.033 54.5825C24.4194 55.2114 21.6191 59.4802 21.42 60.246C20.6302 63.3059 24.3182 65.6847 26.8509 63.4688C27.4742 62.9246 30.3039 58.6819 30.5552 57.8965C31.2667 55.6415 29.8894 53.4908 27.4873 53.5039L27.484 53.5071ZM34.39 61.4713C33.8352 61.5495 32.8202 62.0318 32.3926 62.4196C31.7464 63.0061 28.8646 67.4411 28.6949 68.2395C27.9932 71.5275 31.7399 73.7499 34.2138 71.3124C34.8894 70.6477 37.608 66.5352 37.8561 65.6782C38.5023 63.4558 36.7562 61.1422 34.39 61.4713ZM45.6204 64.1597C43.9951 64.4888 40.2908 69.8363 40.1113 71.3646C39.8208 73.8574 42.6244 75.7572 44.8828 74.646C45.8913 74.1507 49.3541 69.1487 49.5401 68.0733C49.9481 65.7075 48.0062 63.6774 45.6204 64.1629V64.1597ZM55.6302 68.0603C54.8437 68.2395 52.014 72.2933 51.8443 73.0591C51.3026 75.4672 53.8972 77.0542 55.7118 75.4574C56.2275 75.0045 58.5153 71.4949 58.6785 70.8399C59.1713 68.8619 57.5525 67.6204 55.6302 68.0603Z" fill="#898989"/>
<path d="M101.795 12.8066C100.166 14.5793 97.0919 12.1385 98.9359 10.0725C100.597 8.21185 103.486 10.9654 101.795 12.8066Z" fill="#898989"/>
<path d="M26.0702 10.2681C27.9599 12.1516 24.9703 14.9931 23.2014 13.0119C21.4325 11.0306 24.4351 8.63874 26.0702 10.2681Z" fill="#898989"/>
</g>
<defs>
<clipPath id="clip0_272_1054">
<rect width="125" height="80" fill="white"/>
</clipPath>
</defs>
</svg>
