<svg width="125" height="80" viewBox="0 0 125 80" fill="none" xmlns="http://www.w3.org/2000/svg">
<g clip-path="url(#clip0_382_2375)">
<path d="M-0.000154261 37.7612L11.3608 3.12493C12.9633 0.012916 15.6167 -0.436779 18.8086 0.322488C21.2368 0.89927 31.4946 4.12534 33.0612 5.36363C35.9202 7.62188 35.1696 10.8479 34.2068 13.8492C34.3569 14.061 37.3073 14.4976 37.7838 14.4976C40.1891 14.5009 42.1539 12.6207 44.3732 11.6985C51.4718 8.75589 56.5534 10.6557 63.1689 13.6145C69.729 10.9913 74.0534 9.89968 80.7831 12.8422C83.3451 13.9632 84.3275 15.5078 87.3465 15.3319C88.6878 15.2536 89.8203 14.7616 91.1226 14.5889C89.7224 10.5612 88.9 6.55304 93.5671 4.47076C96.5305 3.151 103.061 1.08501 106.269 0.322488C109.507 -0.446555 112.072 0.0552785 113.717 3.12493C116.782 14.2304 121.821 25.5152 124.654 36.6011C125.532 40.039 124.824 42.7013 121.41 44.2231C119.044 45.2789 109.912 48.3616 107.549 48.6744C105.914 48.8895 104.497 48.6125 103.094 47.762C103.538 53.2431 98.7205 57.3392 93.319 56.1726C93.2244 61.4255 89.0534 65.2349 83.7923 64.3486C84.1154 69.5624 79.618 73.4272 74.507 72.8862C74.8987 76.0862 72.1278 79.2797 68.9914 79.6968C65.1924 80.1987 62.9535 77.9795 59.7453 76.5294C57.2942 81.0818 51.2237 81.1404 48.492 76.7934C45.0227 80.4202 38.4463 79.1461 36.883 74.3494C31.6676 78.729 24.1676 75.0369 24.6735 68.2492C21.5273 68.3306 18.5703 66.1473 17.7055 63.1331C16.3184 58.3038 20.1859 55.4948 22.118 51.6593L19.6245 48.7754C18.4235 48.8341 17.5031 48.6353 16.3673 48.3681C13.4104 47.6708 5.72765 45.2952 3.16238 43.9885C1.37387 43.0761 0.649324 41.7954 -0.00341797 39.9543V37.7579L-0.000154261 37.7612ZM15.8092 3.90701C15.5286 3.99173 15.3262 4.24591 15.1434 4.46098L3.90977 39.0809L4.38953 40.0846L18.6813 44.8488C19.7779 44.8031 20.1369 44.1221 20.46 43.1901L31.2368 9.8345C31.1487 9.05894 30.8288 8.37463 30.0488 8.12371C26.0051 7.16892 21.338 4.72819 17.3562 3.96892C16.8308 3.86791 16.3445 3.74734 15.806 3.90701H15.8092ZM107.918 3.91679C105.966 4.23288 96.8079 7.22432 95.0325 8.12371C94.3765 8.45609 93.9326 8.82106 93.8184 9.60314L104.621 43.1901C104.944 44.1221 105.303 44.8064 106.4 44.8488L119.954 40.5669C120.669 40.3062 121.181 39.6349 121.185 38.8594L110.307 5.07035C109.709 3.88746 109.246 3.69846 107.921 3.91027L107.918 3.91679ZM58.3843 15.8109C54.024 13.9632 50.682 13.4125 46.1748 15.2015C44.2231 15.9771 41.9842 17.8345 40.1239 18.1832C37.7609 18.6296 35.0194 18.1278 32.7381 17.5119L23.244 46.8528C23.5116 47.4101 23.8837 48.0455 24.3014 48.4985C26.0736 50.4308 27.1278 49.2773 29.3243 49.828C32.8654 50.7143 34.8921 53.9371 34.7028 57.5086C37.6206 57.639 40.2022 59.1445 41.3086 61.8948C42.3856 61.5754 43.0808 60.9009 44.2198 60.5653C48.1983 59.4019 51.3575 61.2985 53.1558 64.8145C56.7949 63.1233 61.0964 64.2899 62.3726 68.298C63.0286 70.3575 62.5488 71.3449 62.0886 73.3327C64.1611 74.1864 67.131 76.8325 69.3732 75.4345C71.1095 74.3526 71.0899 71.7001 69.4711 70.4813C67.4737 68.9758 64.2622 68.0862 62.1669 66.5547C60.757 64.971 62.242 62.7062 64.21 63.2895C66.7949 64.0585 70.7603 66.9848 73.4496 68.2166C74.8008 68.8357 75.3523 69.2007 76.9124 68.8129C80.3229 67.9689 80.8615 63.762 78.0547 61.6634C76.4522 60.4675 71.7263 58.8317 70.6787 57.6846C69.2851 56.1563 70.8321 53.7286 72.8099 54.4585C76.3575 55.9608 79.9803 58.7404 83.492 60.1351C88.4333 62.0936 91.4816 56.1204 87.4444 53.2626L76.2172 47.1526C74.9052 45.8101 76.4848 43.5388 78.1754 43.9591L94.4352 52.3763C97.8817 52.8585 100.538 49.5901 98.4137 46.4553C97.0005 44.373 90.5482 40.5669 88.1134 39.1787C83.0873 36.3111 77.7446 34.0235 72.1572 32.4659C65.4176 34.0105 58.6193 37.4418 51.9842 39.0451C47.6989 40.0813 45.1043 38.3803 42.8947 34.8088C42.0299 33.4109 40.5155 30.9213 41.3184 29.3701C41.697 28.6369 45.9985 24.5245 46.9026 23.7262C47.7152 23.006 48.7009 22.4357 49.4809 21.6667L58.3843 15.8044V15.8109ZM92.5814 18.2549C90.0162 18.7697 87.8621 19.4866 85.1696 19.1934C82.8034 18.9359 81.0344 17.1567 78.8314 16.2541C72.6859 13.7351 68.8347 15.4035 63.1102 17.9616C56.4457 20.94 50.522 25.4109 45.4176 30.5628L45.2968 30.9408C46.289 32.9156 47.2355 35.1608 49.7126 35.5257L71.0801 28.6011C72.9535 28.2524 77.5031 30.0154 79.4581 30.7486C86.9287 33.5445 93.7074 37.7938 100.16 42.395L92.5814 18.2549ZM27.4835 53.507C26.5077 53.5103 25.7048 53.8915 25.0325 54.5824C24.4189 55.2113 21.6186 59.4801 21.4196 60.2459C20.6297 63.3058 24.3177 65.6846 26.8504 63.4687C27.4737 62.9245 30.3034 58.6818 30.5547 57.8964C31.2662 55.6414 29.8889 53.4907 27.4868 53.5037L27.4835 53.507ZM34.3895 61.4712C33.8347 61.5494 32.8197 62.0317 32.3921 62.4194C31.7459 63.006 28.8641 67.441 28.6944 68.2394C27.9927 71.5274 31.7394 73.7498 34.2133 71.3123C34.8889 70.6475 37.6075 66.5351 37.8556 65.6781C38.5018 63.4557 36.7557 61.142 34.3895 61.4712ZM45.6199 64.1596C43.9946 64.4887 40.2903 69.8361 40.1108 71.3644C39.8203 73.8573 42.6239 75.7571 44.8824 74.6459C45.8908 74.1506 49.3536 69.1486 49.5397 68.0732C49.9476 65.7074 48.0057 63.6773 45.6199 64.1628V64.1596ZM55.6297 68.0602C54.8432 68.2394 52.0136 72.2932 51.8438 73.0589C51.3021 75.4671 53.8967 77.0541 55.7113 75.4573C56.227 75.0044 58.5149 71.4948 58.678 70.8398C59.1709 68.8618 57.5521 67.6202 55.6297 68.0602Z" fill="#898989"/>
<path d="M101.795 12.8064C100.166 14.5791 97.0919 12.1384 98.9359 10.0724C100.597 8.21172 103.486 10.9653 101.795 12.8064Z" fill="#898989"/>
<path d="M26.0707 10.2681C27.9604 12.1516 24.9708 14.9931 23.2019 13.0119C21.433 11.0306 24.4356 8.63874 26.0707 10.2681Z" fill="#898989"/>
</g>
<defs>
<clipPath id="clip0_382_2375">
<rect width="125" height="80" fill="white"/>
</clipPath>
</defs>
</svg>
