<svg width="65" height="80" viewBox="0 0 65 80" fill="none" xmlns="http://www.w3.org/2000/svg">
<g clip-path="url(#clip0_382_2379)">
<path d="M26.8936 0C27.3671 0.277083 27.7908 0.464583 27.9486 1.05C28.0192 2.59375 28.364 4.49792 28.2913 6.0125C28.1542 8.85833 25.9217 11.8375 24.8397 14.425C23.4296 17.7937 23.1243 22.2375 23.4566 25.8667C23.5522 26.9063 24.2354 27.5646 25.2966 27.0708C25.9093 26.7854 25.768 25.9437 25.9965 25.4312C26.5364 24.2187 28.4657 24.2187 28.8458 25.4604C29.149 26.4562 28.4221 28.8396 30.2372 28.7604C31.7636 28.6937 31.0658 27.0917 31.9505 26.4042C32.7604 25.775 34.0999 26.0208 34.4198 27.0562C34.723 28.0396 34.0356 30.1 35.6886 30.1375C37.3417 30.175 36.4446 27.5667 38.1973 27.3458C40.5358 27.0521 39.6407 29.4792 40.2201 30.4562C40.866 31.5437 42.3176 31.0958 42.4568 29.9104C42.1099 23.8438 43.6883 17.4333 40.4112 11.9833C39.9294 11.1812 39.2565 10.5146 38.8038 9.68958C37.5099 7.33333 37.4206 4.28333 37.8069 1.65417C37.9191 0.89375 38.2783 0.429167 38.8848 0H39.975C41.6344 1.03958 40.6604 3.35833 40.7476 5.08542C40.8971 8.02083 42.2304 8.8 43.4827 11.0917C45.2666 14.35 45.7339 17.6854 45.603 21.3854C48.2218 21.675 50.4128 23.0437 51.6837 25.3646L56.4976 42.4104C56.5765 42.5813 56.7011 42.625 56.8756 42.6562C58.8173 43.0104 60.2254 42.1354 62.2959 43.3125C67.0288 46 65.1369 53.2458 59.7685 53.4521L55.6628 76.2875C54.9941 78.3187 53.4884 79.425 51.4989 80.0021H13.4986C11.5091 79.425 10.0035 78.3187 9.33476 76.2875L5.22904 53.4521C-0.141419 53.225 -2.03333 46.0021 2.70164 43.3125C4.69532 42.1812 6.51247 42.95 8.59337 42.5042C10.2008 37.5021 11.1997 32.175 12.7967 27.1896C13.9784 23.4979 16.3625 21.4437 20.3519 21.4083C20.2771 18.5146 20.9188 15.6646 22.0382 13.0208C22.898 10.9875 25.1907 7.64583 25.1928 5.54792C25.1928 4.41458 24.7816 2.58333 24.875 1.50625C24.9394 0.772917 25.4441 0.425 25.9591 0.00208333H26.8936V0ZM20.3519 24.5312C18.4807 24.4896 16.8609 25.3292 16.1195 27.0813L11.9411 42.6562H26.1917C26.3682 42.6562 26.9954 43.2583 27.0847 43.4771C27.5623 44.6479 26.7213 45.6958 25.55 45.7625L4.61432 45.8542C2.45659 46.7958 2.66011 49.5896 4.92168 50.2417L59.9533 50.2729C62.2668 49.7333 62.6095 46.8125 60.3853 45.8521L39.4455 45.7646C38.1641 45.6083 37.3189 44.3917 38.1309 43.2229C38.2451 43.0583 38.6584 42.6521 38.8079 42.6521H53.2164L49.0421 27.0729C48.3713 25.6 47.1668 24.7708 45.5843 24.5271V30.3854C45.5843 30.5542 45.1627 31.6375 45.0444 31.875C43.7153 34.5708 39.9335 34.9562 38.0084 32.675C35.8402 33.775 33.695 33.1958 32.1146 31.4458C30.2185 32.3833 27.7638 31.8208 26.6382 29.9833C24.2686 30.8458 21.6769 30.1687 20.6842 27.7104C20.6156 27.5437 20.3519 26.8771 20.3519 26.7937V24.5271V24.5312ZM14.9004 53.4375H8.35869L12.2941 75.35C12.5558 76.1167 13.509 76.8792 14.348 76.8833L51.1957 76.8021C51.8374 76.5208 52.4957 76.0271 52.6743 75.3167L56.643 53.4396H50.1012V66.3313C50.1012 66.6083 49.6921 67.6417 49.5384 67.9542C47.929 71.2187 43.1774 71.375 41.3498 68.2354C41.2439 68.0542 40.7559 67.0521 40.7559 66.9563V53.4396H37.1735V66.6438C37.1735 66.8896 36.5505 68.2229 36.3698 68.4937C34.5651 71.175 30.4407 71.1771 28.6339 68.4937C28.4512 68.2229 27.8302 66.8917 27.8302 66.6438V53.4396H24.4036V65.7063C24.4036 69.7292 19.6084 72.0375 16.5411 69.375C15.9118 68.8292 14.9025 67.1417 14.9025 66.3313V53.4396L14.9004 53.4375ZM21.1307 53.4375H18.0156V66.0167C18.0156 66.0896 18.4351 66.8937 18.5306 66.9833C19.2907 67.6979 21.1307 67.2 21.1307 66.3292V53.4375ZM34.0584 53.4375H30.9433V66.1708C30.9433 67.7125 34.0584 67.7125 34.0584 66.1708V53.4375ZM46.9861 53.4375H43.871V66.3292C43.871 67.2 45.711 67.7 46.4711 66.9833C46.5666 66.8937 46.9861 66.0875 46.9861 66.0167V53.4375Z" fill="#898989"/>
<path d="M31.9881 42.6896C34.4469 42.1271 34.7252 45.4458 32.663 45.7146C30.8043 45.9583 30.3018 43.075 31.9881 42.6896Z" fill="#898989"/>
</g>
<defs>
<clipPath id="clip0_382_2379">
<rect width="65" height="80" fill="white"/>
</clipPath>
</defs>
</svg>
