<svg width="62" height="80" viewBox="0 0 62 80" fill="none" xmlns="http://www.w3.org/2000/svg">
<g clip-path="url(#clip0_382_2382)">
<path d="M59.1403 80.0001H3.00853C1.32144 79.3593 0.361866 78.3241 0.188349 76.4831C-0.185863 72.5152 0.464304 68.0089 0.182077 63.9826C0.345141 62.5841 1.95697 62.1792 2.53397 63.5213V76.3328C2.60714 76.8567 2.85591 77.4954 3.435 77.6227L58.2853 77.6624C58.9124 77.6979 59.2825 77.3994 59.4894 76.8317L59.6086 45.2328C59.8072 43.5338 62.1424 44.0744 61.9688 45.6983C61.8016 56.3391 62.2762 67.0571 61.7263 77.654C61.2392 78.921 60.3403 79.4971 59.1403 79.998V80.0001Z" fill="#898989"/>
<path d="M61.605 41.5216C60.9444 42.177 59.7089 41.8222 59.6023 40.8704L59.4894 3.17262C59.2824 2.60488 58.9124 2.30641 58.2852 2.34189L3.43497 2.38155C2.86843 2.50678 2.59874 3.14757 2.53602 3.67147C2.12836 7.08203 2.85588 11.2628 2.52975 14.7589C2.33115 16.0175 0.370195 16.1678 0.182044 14.1494C-0.0625523 11.5341 -0.0562806 6.13859 0.190407 3.52119C0.372286 1.58631 1.57854 0.214986 3.54995 0H58.5967C60.6643 0.240033 61.8078 1.64893 61.9667 3.67147V40.4008C61.9667 40.7138 61.8162 41.3108 61.603 41.5216H61.605Z" fill="#898989"/>
<path d="M51.3337 60.0335C50.9825 63.3063 51.6849 67.1949 51.3023 70.3946C50.9532 73.3272 46.5212 69.71 45.0829 69.4157C43.1805 69.8812 41.4683 71.551 39.4948 71.5301C38.8718 71.3694 38.8007 70.9686 38.7485 70.3988C38.4537 67.174 39.0098 63.538 38.7234 60.2694C32.1527 55.2871 33.9004 44.4439 41.8906 42.1124C52.9894 38.873 60.2981 53.0392 51.3337 60.0356V60.0335ZM43.5798 44.1057C34.5109 45.3289 34.9645 59.8644 44.9763 59.9417C56.0187 60.0273 55.3852 42.5132 43.5798 44.1057ZM48.9484 61.5635C46.3602 62.4839 43.6948 62.5257 41.1087 61.5635V68.5933C41.9909 68.3324 44.1756 66.8755 44.947 66.8693C46.0048 66.8588 47.8236 68.3616 48.9484 68.5933V61.5635Z" fill="#898989"/>
<path d="M10.4886 35.1931L51.7669 35.2432C53.0003 36.0948 52.3543 37.5559 50.9139 37.512H11.2349C9.72762 37.558 9.12763 35.9675 10.4886 35.1952V35.1931Z" fill="#898989"/>
<path d="M10.6474 22.0686L51.2274 22.031C52.8225 22.2147 52.7724 24.2184 51.2274 24.3812H10.9234C9.52268 24.2477 9.30526 22.5215 10.6474 22.0686Z" fill="#898989"/>
<path d="M10.6474 28.6308L51.2274 28.5933C52.8225 28.7769 52.7724 30.7807 51.2274 30.9435H10.9234C9.52268 30.8099 9.30526 29.0838 10.6474 28.6308Z" fill="#898989"/>
<path d="M1.38609 18.0193C1.88365 17.9921 2.55681 18.4325 2.54636 18.9815V59.1505C2.48573 60.9769 0.0564914 60.5803 0.179835 58.8375L0.255095 18.9042C0.439066 18.4722 0.892719 18.0485 1.384 18.0213L1.38609 18.0193Z" fill="#898989"/>
<path d="M10.11 41.9245C10.3525 41.7283 10.6306 41.7387 10.9211 41.7158C17.5838 41.1522 25.0367 42.152 31.785 41.7199C33.424 41.9099 32.9976 44.114 31.4693 44.066L11.0821 44.0702C9.97621 44.1161 9.21734 42.6467 10.1121 41.9266L10.11 41.9245Z" fill="#898989"/>
<path d="M10.6471 66.9087L31.628 66.8711C32.9618 67.0297 33.267 68.3864 32.1695 69.1358L10.7621 69.2255C9.50145 69.0627 9.39692 67.2259 10.6471 66.9066V66.9087Z" fill="#898989"/>
<path d="M31.6594 13.4795L50.7505 13.4419C52.7177 13.6631 52.7867 15.7212 50.5916 15.9403C44.7694 16.5206 38.0147 15.5124 32.0942 15.9403C30.2713 15.8944 29.7737 13.9992 31.6594 13.4795Z" fill="#898989"/>
<path d="M21.9343 60.3464C24.9279 60.5718 28.7077 59.9227 31.6073 60.3276C33.169 60.5447 33.261 62.4879 31.7808 62.6591C28.7411 63.0118 25.0241 62.3982 21.9092 62.6465C20.6716 62.4545 20.7217 60.6156 21.9322 60.3464H21.9343Z" fill="#898989"/>
<path d="M44.0503 46.293C51.9819 45.2118 52.9938 56.8106 45.8733 57.6414C37.9605 58.5639 36.9821 47.2573 44.0503 46.293ZM44.3597 48.6349C40.1514 49.2986 40.9375 56.0843 45.6956 55.2765C49.7053 54.5982 49.0091 47.9002 44.3597 48.6349Z" fill="#898989"/>
</g>
<defs>
<clipPath id="clip0_382_2382">
<rect width="62" height="80" fill="white"/>
</clipPath>
</defs>
</svg>
