<svg width="63" height="80" viewBox="0 0 63 80" fill="none" xmlns="http://www.w3.org/2000/svg">
<g clip-path="url(#clip0_272_4608)">
<path d="M59.6403 80.0001H3.50853C1.82144 79.3593 0.861866 78.3241 0.688349 76.4831C0.314137 72.5152 0.964304 68.0089 0.682077 63.9826C0.845141 62.5841 2.45697 62.1792 3.03397 63.5213V76.3328C3.10714 76.8567 3.35591 77.4954 3.935 77.6227L58.7853 77.6624C59.4124 77.6979 59.7825 77.3994 59.9894 76.8317L60.1086 45.2328C60.3072 43.5338 62.6424 44.0744 62.4688 45.6983C62.3016 56.3391 62.7762 67.0571 62.2263 77.654C61.7392 78.921 60.8403 79.4971 59.6403 79.998V80.0001Z" fill="#898989"/>
<path d="M62.105 41.5216C61.4444 42.177 60.2089 41.8222 60.1023 40.8704L59.9894 3.17262C59.7824 2.60488 59.4124 2.30641 58.7852 2.34189L3.93497 2.38155C3.36843 2.50678 3.09874 3.14757 3.03602 3.67147C2.62836 7.08203 3.35588 11.2628 3.02975 14.7589C2.83115 16.0175 0.870195 16.1678 0.682044 14.1494C0.437448 11.5341 0.443719 6.13859 0.690407 3.52119C0.872286 1.58631 2.07854 0.214986 4.04995 0H59.0967C61.1643 0.240033 62.3078 1.64893 62.4667 3.67147V40.4007C62.4667 40.7138 62.3162 41.3108 62.103 41.5216H62.105Z" fill="#898989"/>
<path d="M51.8337 60.0335C51.4825 63.3063 52.1849 67.1949 51.8023 70.3946C51.4532 73.3272 47.0212 69.71 45.5829 69.4157C43.6805 69.8812 41.9683 71.551 39.9948 71.5301C39.3718 71.3694 39.3007 70.9686 39.2485 70.3988C38.9537 67.174 39.5098 63.538 39.2234 60.2694C32.6527 55.2871 34.4004 44.4439 42.3906 42.1124C53.4894 38.873 60.7981 53.0392 51.8337 60.0356V60.0335ZM44.0798 44.1057C35.0109 45.3289 35.4645 59.8644 45.4763 59.9417C56.5187 60.0273 55.8852 42.5132 44.0798 44.1057ZM49.4484 61.5635C46.8602 62.4839 44.1948 62.5257 41.6087 61.5635V68.5933C42.4909 68.3324 44.6756 66.8755 45.447 66.8693C46.5048 66.8588 48.3236 68.3616 49.4484 68.5933V61.5635Z" fill="#898989"/>
<path d="M10.9886 35.1931L52.2669 35.2432C53.5003 36.0948 52.8543 37.5559 51.4139 37.512H11.7349C10.2276 37.558 9.62763 35.9675 10.9886 35.1952V35.1931Z" fill="#898989"/>
<path d="M11.1474 22.0686L51.7274 22.031C53.3225 22.2147 53.2724 24.2184 51.7274 24.3812H11.4234C10.0227 24.2477 9.80526 22.5215 11.1474 22.0686Z" fill="#898989"/>
<path d="M11.1474 28.6308L51.7274 28.5933C53.3225 28.7769 53.2724 30.7807 51.7274 30.9435H11.4234C10.0227 30.8099 9.80526 29.0838 11.1474 28.6308Z" fill="#898989"/>
<path d="M1.88609 18.0193C2.38365 17.9921 3.05681 18.4325 3.04636 18.9815V59.1505C2.98573 60.9769 0.556491 60.5803 0.679835 58.8375L0.755095 18.9042C0.939066 18.4722 1.39272 18.0485 1.884 18.0213L1.88609 18.0193Z" fill="#898989"/>
<path d="M10.61 41.9245C10.8525 41.7283 11.1306 41.7387 11.4211 41.7158C18.0838 41.1522 25.5367 42.152 32.285 41.7199C33.924 41.9099 33.4976 44.114 31.9693 44.066L11.5821 44.0702C10.4762 44.1161 9.71734 42.6467 10.6121 41.9266L10.61 41.9245Z" fill="#898989"/>
<path d="M11.1471 66.9087L32.128 66.8711C33.4618 67.0297 33.767 68.3864 32.6695 69.1358L11.2621 69.2255C10.0014 69.0627 9.89692 67.2259 11.1471 66.9066V66.9087Z" fill="#898989"/>
<path d="M32.1594 13.4795L51.2505 13.4419C53.2177 13.6631 53.2867 15.7212 51.0916 15.9403C45.2694 16.5206 38.5147 15.5124 32.5942 15.9403C30.7713 15.8944 30.2737 13.9992 32.1594 13.4795Z" fill="#898989"/>
<path d="M22.4343 60.3464C25.4279 60.5718 29.2077 59.9227 32.1073 60.3276C33.669 60.5447 33.761 62.4879 32.2808 62.6591C29.2411 63.0118 25.5241 62.3982 22.4092 62.6465C21.1716 62.4545 21.2217 60.6156 22.4322 60.3464H22.4343Z" fill="#898989"/>
<path d="M44.5503 46.293C52.4819 45.2118 53.4938 56.8106 46.3733 57.6414C38.4605 58.5639 37.4821 47.2573 44.5503 46.293ZM44.8597 48.6349C40.6514 49.2986 41.4375 56.0843 46.1956 55.2765C50.2053 54.5982 49.5091 47.9002 44.8597 48.6349Z" fill="#898989"/>
</g>
<defs>
<clipPath id="clip0_272_4608">
<rect width="62" height="80" fill="white" transform="translate(0.5)"/>
</clipPath>
</defs>
</svg>
