<svg width="80" height="80" viewBox="0 0 80 80" fill="none" xmlns="http://www.w3.org/2000/svg">
<g clip-path="url(#clip0_382_2395)">
<path d="M37.6457 0.0712777C72.0712 -1.90422 92.818 38.0468 71.1281 65.118C50.6055 90.7372 9.43599 81.7105 1.31393 50.0356C0.645973 47.4321 -0.321572 42.0401 0.106722 39.4878C0.468442 37.3296 3.37773 36.6147 4.81574 38.3586C5.67233 39.3964 5.41712 42.4388 5.57912 43.9287C8.28425 68.9354 36.3431 82.7327 57.9309 69.735C78.5267 57.3341 80.4085 27.6615 61.4637 12.7907C44.636 -0.416472 19.9813 4.57239 9.69119 23.2495C8.60825 25.2138 7.42323 29.7951 4.23432 27.7706C1.81324 26.2316 3.70617 23.118 4.69812 21.2472C11.1447 9.10023 23.8737 0.861924 37.6457 0.0712777Z" fill="#898989"/>
<path d="M38.4778 16.0758C43.3687 15.7573 48.495 17.0535 52.6448 19.6259C54.6753 20.8842 59.5995 24.0468 56.9943 26.7885C54.9216 28.9666 53.2861 26.6905 51.7393 25.5346C36.2342 13.9533 16.06 28.8241 22.531 46.6236C26.6653 57.9934 40.8212 62.3074 50.7163 55.3408C51.5241 54.7706 53.4969 52.7885 54.1538 52.6147C56.4794 52.0045 58.1793 53.735 57.5757 56.0424C57.2606 57.2517 53.7876 59.7328 52.647 60.441C40.4572 68.0045 24.1554 63.1136 18.2326 50.0958C11.2356 34.7194 21.7366 17.1693 38.48 16.0758H38.4778Z" fill="#898989"/>
</g>
<defs>
<clipPath id="clip0_382_2395">
<rect width="80" height="80" fill="white"/>
</clipPath>
</defs>
</svg>
