<svg width="81" height="80" viewBox="0 0 81 80" fill="none" xmlns="http://www.w3.org/2000/svg">
<path d="M38.1457 0.0712777C72.5712 -1.90422 93.318 38.0468 71.6281 65.118C51.1055 90.7372 9.93599 81.7105 1.81393 50.0356C1.14597 47.4321 0.178428 42.0401 0.606722 39.4878C0.968442 37.3296 3.87773 36.6147 5.31574 38.3586C6.17233 39.3964 5.91712 42.4388 6.07912 43.9287C8.78425 68.9354 36.8431 82.7327 58.4309 69.735C79.0267 57.3341 80.9085 27.6615 61.9637 12.7907C45.136 -0.416472 20.4813 4.57239 10.1912 23.2495C9.10825 25.2138 7.92323 29.7951 4.73432 27.7706C2.31324 26.2316 4.20617 23.118 5.19812 21.2472C11.6447 9.10023 24.3737 0.861924 38.1457 0.0712777Z" fill="#898989"/>
</svg>
