<svg width="77" height="80" viewBox="0 0 77 80" fill="none" xmlns="http://www.w3.org/2000/svg">
<g clip-path="url(#clip0_382_2398)">
<path d="M33.3883 15.4602C30.9424 15.7936 28.8345 14.1588 29.7497 11.5527C29.9474 10.9885 31.7811 8.58441 31.6631 8.32476C28.1744 4.61598 22.699 5.7892 18.901 8.36002C18.9615 11.2354 17.4181 13.3318 14.9244 14.5467L23.7864 32.1674C25.0779 33.4977 26.1749 34.0105 26.1398 36.1198C25.9421 47.9385 10.6671 53.2564 3.02644 44.0759C0.739978 41.3287 -2.01526 34.6388 2.175 32.4463L11.1104 14.303C9.17471 13.8959 7.51327 11.6713 7.31556 9.73839C6.66821 3.38507 14.4651 0.702052 17.9857 5.82767C19.5037 5.3244 20.8207 4.42045 22.3737 3.97488C25.4638 3.08695 28.4933 3.22159 31.2963 4.87884C31.6535 5.0904 33.1045 6.254 33.2225 6.17386C34.2142 4.64483 35.1964 2.4715 36.3636 1.11877C37.2692 0.0705658 38.4778 -0.33974 39.7757 0.336623C40.7228 0.830272 42.9104 4.50059 43.5929 5.62252C43.6949 5.7892 43.781 5.97512 43.7874 6.17386C44.7377 5.48788 45.6721 4.73779 46.7595 4.26979C50.8349 2.51637 55.2707 3.73447 58.8902 5.97833C62.4809 0.522543 70.7722 3.49726 69.6241 10.1647C69.3244 11.9181 67.6725 13.9472 65.9027 14.303L74.4745 32.4366C78.5404 33.6099 76.8279 39.4407 75.3387 42.1173C70.8359 50.2048 59.3462 51.0991 53.6986 43.7425C51.4345 40.7934 48.8419 34.251 53.5041 32.2796L62.0919 14.5467C59.5407 13.367 58.0419 11.2578 58.1217 8.35361C54.1738 5.88216 48.9535 4.55508 45.2862 8.26706C46.262 10.325 48.7175 12.1361 46.8456 14.4697C46.0069 15.5147 44.8716 15.5051 43.6248 15.4602V54.279H71.1038C71.1676 54.279 71.6619 54.8464 71.7225 54.9874C72.1498 55.9747 70.9539 56.8691 70.4947 57.648C69.2574 59.754 68.9736 61.7318 70.0004 64.0174C70.4596 65.0367 71.9839 66.3894 71.7735 67.3895C71.6523 67.9665 71.1676 68.2935 70.5999 68.3736C67.8607 68.7583 64.2508 68.005 61.5242 68.3736C60.8418 68.4666 60.1466 69.7488 59.8851 70.3739C58.9189 72.6658 59.2984 74.4801 60.4942 76.5605C61.1479 77.7017 62.8572 78.9807 60.8386 79.9584L14.1622 80C8.23078 79.7949 5.02909 72.4639 9.21616 68.0435C9.93367 67.287 12.1787 65.8894 13.18 65.8894H19.0381C16.1266 62.5172 17.1375 56.978 21.1492 54.9874C21.4489 54.84 22.8648 54.2758 23.0816 54.2758H33.3979V15.4602H33.3883ZM32.0681 12.9696H44.8589L45.0343 12.633L38.5862 2.51958L38.2004 2.79205C36.641 5.90139 33.6498 9.14537 32.2211 12.2098C32.0968 12.4727 32.0139 12.6618 32.0681 12.9696ZM12.2201 5.70906C11.2475 5.88857 10.023 7.15796 9.82525 8.1132C9.11731 11.5784 13.2438 13.678 15.4856 11.1488C17.7051 8.64211 15.4984 5.10002 12.2201 5.70906ZM63.2176 5.71227C58.8392 6.47518 60.5708 13.7838 65.1947 12.0143C68.744 10.6552 67.4525 4.97821 63.2176 5.71227ZM41.1438 15.4602H36.0287V54.1123H41.1438V15.4602ZM21.012 32.3789L12.9281 16.2873L5.00358 32.3789H21.012ZM71.6778 32.3789L64.085 16.4539L56.3295 32.3789H71.6778ZM2.72987 35.0748C1.90075 39.1971 4.97169 43.7008 8.6868 45.3516C14.8925 48.1116 22.294 44.3099 23.4452 37.5655C23.5983 36.6647 23.9969 34.9978 22.7532 34.8632C16.5539 35.2735 9.71683 34.3439 3.59407 34.8632C3.29431 34.8889 2.98818 34.8889 2.73306 35.0748H2.72987ZM74.28 35.0748C74.0217 34.8856 73.7187 34.8889 73.419 34.8632C67.2962 34.3439 60.4591 35.2735 54.2599 34.8632C53.0162 35.001 53.4148 36.6647 53.5679 37.5655C54.7446 44.4605 62.398 48.2526 68.6547 45.185C72.2008 43.4444 75.0868 39.0913 74.28 35.0748ZM68.0456 56.7665H23.4037C23.0785 56.7665 22.1377 57.2794 21.8156 57.4909C19.2454 59.1834 19.1752 63.0044 21.5924 64.8892C22.294 65.4342 23.5249 65.8894 24.3923 65.8894H68.0456C67.8575 64.979 67.3951 64.3123 67.1687 63.373C66.5723 60.8984 67.0315 59.0296 68.0456 56.7665ZM58.144 68.3801H13.5021C13.2406 68.3801 12.0575 68.9442 11.7801 69.1366C9.08861 71.015 9.13644 75.1822 12.0129 76.8458C12.2616 76.9901 13.4766 77.5061 13.6679 77.5061H58.144C56.4666 74.6084 56.4411 71.2714 58.144 68.3833V68.3801Z" fill="#898989"/>
</g>
<defs>
<clipPath id="clip0_382_2398">
<rect width="77" height="80" fill="white"/>
</clipPath>
</defs>
</svg>
