<svg width="81" height="89" viewBox="0 0 81 89" fill="none" xmlns="http://www.w3.org/2000/svg">
<g clip-path="url(#clip0_382_2405)">
<path d="M14.4569 0C17.3807 0.72776 19.1771 3.08719 19.2465 6.10253L35.4234 11.271C35.8424 11.3127 36.722 10.5734 37.2383 10.3787C39.4791 9.542 41.2316 10.0728 43.1854 11.2849L59.4942 6.10253C59.5636 3.05706 61.3415 0.746302 64.2838 0H66.1936C69.5688 0.922448 71.6361 3.89607 70.5388 7.39349C69.504 10.7009 65.8325 12.1123 62.7212 10.6893C61.9272 10.3277 61.3045 9.33341 60.5729 9.38904L45.0304 14.2701L45.1855 17.7305H73.5714C76.479 17.7305 80.1597 21.1468 80.6667 24.0115C81.3288 40.2632 80.757 56.6332 80.9584 72.9267C80.801 76.9595 77.817 80.7351 73.6593 81.0039C73.7519 84.3854 74.1709 87.906 70.1846 88.9977H10.8108C6.8245 87.906 7.24582 84.3854 7.3361 81.0039C3.20855 80.7142 0.150508 76.9734 0.0370752 72.9267C0.238476 56.6332 -0.333316 40.2632 0.328759 24.0115C0.833417 21.1445 4.5165 17.7305 7.42407 17.7305H33.5552L33.7126 14.2701L17.9918 9.39367C17.4918 9.39135 16.6954 10.3833 16.0195 10.6916C10.4173 13.2503 5.28506 6.67732 9.24594 1.99786C10.1974 0.873776 11.1697 0.447318 12.5494 0.00231771H14.4592L14.4569 0ZM13.0216 3.51596C9.97977 4.14174 11.5308 9.12482 14.5773 7.50938C16.6491 6.4131 15.4801 3.0107 13.0216 3.51596ZM64.763 3.51365C62.6101 3.92852 62.455 7.3031 64.8 7.75042C68.1891 8.39706 68.1613 2.86005 64.763 3.51365ZM41.7154 17.7305C41.889 15.9528 41.5603 13.35 39.2222 13.4473C37.0068 13.5377 36.8933 16.0316 37.0276 17.7305H41.7154ZM70.1892 81.1777H47.8778C46.4147 81.1777 45.6091 78.1717 47.7435 77.7406L73.0505 77.6989C75.759 77.3072 77.273 75.4553 77.486 72.7529V26.3268C77.3864 23.439 75.6108 21.4295 72.7125 21.2001H8.45885C5.63462 21.316 3.77109 23.184 3.52107 25.9885L3.5095 72.579C3.70395 75.3881 5.11607 77.2376 7.94725 77.6965L33.4302 77.7359C34.4557 78.1207 34.9256 79.3467 34.3261 80.297C34.2011 80.494 33.458 81.1731 33.2936 81.1731H10.8108V85.0854C10.8108 85.1155 11.2136 85.5211 11.2461 85.5211H69.7563C69.7864 85.5211 70.1916 85.1178 70.1916 85.0854V81.1731L70.1892 81.1777Z" fill="#898989"/>
<path d="M29.7007 25.4299C36.0876 25.1587 43.1019 25.6478 49.387 26.8252C53.3201 27.5599 55.598 28.0651 56.7346 32.332C59.0079 40.8473 59.1121 51.868 57.8319 60.5524C57.0008 66.203 57.0842 70.3471 50.7459 71.7099C40.4258 73.9279 24.918 74.1481 14.6929 71.4688C9.36849 70.0736 9.22496 64.5853 8.57678 59.8618C7.46792 51.7822 7.66237 43.6169 9.12773 35.6046C10.2713 29.3445 10.7343 28.0211 17.2 26.8252C21.2789 26.0719 25.5477 25.606 29.696 25.4299H29.7007ZM29.8743 28.9065C25.5592 29.0896 19.9779 29.5832 15.8133 30.6471C14.9012 30.8811 14.3734 30.9043 13.7646 31.7248C13.0168 32.7307 12.4728 36.446 12.2506 37.8574C11.0515 45.4618 11.0445 53.1172 12.2298 60.724C12.452 62.1563 12.9335 65.5726 13.5215 66.7315C13.915 67.5102 14.6466 67.8671 15.4614 68.092C24.124 70.4653 37.0761 70.2799 45.9423 68.9796C47.2503 68.7873 51.0514 68.3052 52.0237 67.7675C53.452 66.9818 53.7044 63.9757 53.9891 62.4344C55.5609 53.889 55.5633 44.8384 53.9891 36.2953C53.7391 34.9348 53.4381 32.1373 52.3964 31.2844C51.3732 30.4454 45.9701 29.771 44.3821 29.574C39.6156 28.976 34.6778 28.7025 29.8743 28.9041V28.9065Z" fill="#898989"/>
<path d="M67.0226 43.6773C75.4281 42.4419 76.037 55.1221 68.1731 55.2588C60.9875 55.384 60.1796 44.6808 67.0226 43.6773ZM67.5411 47.1469C64.9345 47.5988 65.1567 52.0117 68.2888 51.722C71.2913 51.4439 70.8932 46.5651 67.5411 47.1469Z" fill="#898989"/>
<path d="M66.8463 28.7233C73.0457 27.7545 76.3746 35.3218 71.5641 39.0093C67.05 42.4696 60.7626 38.0057 62.5428 32.5846C63.14 30.7675 64.9295 29.0246 66.8463 28.7233ZM67.3602 32.1952C65.1286 32.7051 65.1818 36.3069 67.5083 36.6661C71.4206 37.271 71.1474 31.3307 67.3602 32.1952Z" fill="#898989"/>
<path d="M63.7191 59.1409C64.7955 58.9207 71.1986 58.9393 72.3191 59.1409C74.2891 59.5002 74.2312 62.3 72.5228 62.5665C71.2797 62.7612 64.6983 62.7844 63.513 62.5665C61.8023 62.2536 61.7583 59.5373 63.7167 59.1386L63.7191 59.1409Z" fill="#898989"/>
<path d="M63.5406 66.6133H72.4948C74.3306 67.1649 74.1847 69.7515 72.349 70.0435C69.791 70.4491 66.2097 69.7909 63.5406 70.018C61.8021 69.3088 61.7998 67.3248 63.5406 66.6156V66.6133Z" fill="#898989"/>
<path d="M40.2826 77.7381C42.16 77.3766 43.2388 79.6896 41.6299 80.83C39.396 82.413 37.6528 78.2434 40.2826 77.7381Z" fill="#898989"/>
<path d="M35.4048 34.1306C35.6062 34.3184 35.9256 34.8445 36.0784 35.1064C36.6016 36.0056 38.8772 41.392 39.2823 41.6307L47.2365 42.88C52.8178 46.2198 45.1345 50.3685 42.97 53.1219L44.3011 60.7796C43.1598 67.5821 36.6942 61.4263 33.2912 60.2072L26.0871 63.8807C23.7444 64.3327 22.117 62.7775 22.2883 60.425C22.4596 58.0749 23.374 55.5161 23.4481 53.1405L17.8482 47.4412C16.6606 45.6798 17.457 43.661 19.3089 42.8429L27.27 41.6864L31.1129 34.1468C32.2078 33.0552 34.2866 33.083 35.4001 34.126L35.4048 34.1306ZM45.1877 46.0668C42.3542 45.1096 37.7151 46.2152 36.1293 43.2253L33.2102 37.3731C32.2148 39.014 30.886 43.2578 29.5526 44.4004C28.2192 45.543 21.6864 45.6774 21.404 46.0645C22.7536 48.1898 27.1381 50.3801 27.0872 53.0547L25.9204 60.1423C27.8488 59.2754 29.9322 57.6948 31.8791 56.9832C32.8838 56.6147 33.7102 56.4641 34.7172 56.9832L40.6759 60.1423C40.4606 57.9891 39.6458 55.5393 39.4814 53.4279C39.2545 50.4983 43.5534 48.1551 45.1901 46.0645L45.1877 46.0668Z" fill="#898989"/>
</g>
<defs>
<clipPath id="clip0_382_2405">
<rect width="81" height="89" fill="white"/>
</clipPath>
</defs>
</svg>
