<svg width="113" height="80" viewBox="0 0 113 80" fill="none" xmlns="http://www.w3.org/2000/svg">
<g clip-path="url(#clip0_272_9624)">
<path d="M0.0314346 49.0408C0.094197 48.3065 0.352489 47.0989 0.506981 46.3285C2.29571 37.3994 8.74093 29.8737 17.4046 27.0116C12.1736 23.0918 9.74513 16.8895 11.5628 10.4433C15.6134 -3.92959 37.0395 -3.2799 40.0908 11.3611C41.3871 17.5778 39.0093 23.2729 34.0076 27.0116C36.8923 27.8594 39.4511 29.4848 41.8602 31.2383C46.2849 27.3135 52.6215 27.3135 57.0439 31.2383C59.453 29.4872 62.0117 27.8594 64.8964 27.0116C59.8947 23.2729 57.517 17.5778 58.8133 11.3611C61.8428 -3.17122 83.0686 -4.01896 87.2954 10.2984C89.2048 16.7687 86.7739 23.0676 81.5019 27.0116C89.8565 29.7457 96.2631 36.9792 98.2402 45.5242C98.4671 46.5048 98.7954 48.0795 98.8774 49.0408V52.5187C97.3229 58.634 91.0563 62.0829 85.6056 64.2566C66.2941 71.9562 31.3595 72.0142 12.2001 63.8194C7.12118 61.6506 1.46773 58.2427 0.0314346 52.5187C0.101439 51.3859 -0.0627091 50.159 0.0314346 49.0408ZM24.1201 3.88361C11.3287 5.35205 12.0504 25.4997 25.6433 25.5915C40.5977 25.6929 39.9218 2.06978 24.1201 3.88361ZM71.612 3.88361C58.8229 5.35205 59.523 25.4997 73.1352 25.5915C88.0726 25.6929 87.4136 2.06978 71.612 3.88361ZM42.5023 47.6882C38.8066 44.4084 37.4185 39.1674 39.5838 34.6123L39.5235 34.3587C30.1646 26.8764 16.7721 28.1395 9.00405 37.2545C6.08801 40.6769 3.52682 46.9274 3.89374 51.4584C4.35721 57.1824 15.4082 61.1361 20.1082 62.4717C23.6036 63.4644 27.3259 64.1575 30.9178 64.6937C30.8695 57.3636 35.6153 50.188 42.4999 47.6882H42.5023ZM88.5747 35.7764C80.8188 28.0091 67.8535 27.3739 59.3806 34.3563L59.3202 34.6099C60.9038 37.8366 60.6189 41.8797 58.7553 44.9252C58.1422 45.9275 57.2225 46.6159 56.5949 47.5892C63.3322 50.5696 68.0297 57.2138 67.9838 64.6913C73.8618 63.7977 79.8846 62.508 85.3521 60.1435C89.3303 58.4238 95.1165 55.4628 95.02 50.4802C94.9186 45.2223 92.256 39.4645 88.5723 35.7764H88.5747ZM48.0544 32.2816C39.707 33.4916 40.9719 47.6375 50.8545 46.0966C59.0667 44.8166 58.0988 30.8253 48.0544 32.2816ZM64.124 65.271C64.305 55.214 55.0186 47.9805 45.2518 50.7314C39.0142 52.4873 34.5242 58.7885 34.7825 65.271L43.9434 66.0535H54.9631L64.124 65.271Z" fill="#898989"/>
<path d="M86.0862 39.223C87.0397 39.0563 87.5828 39.5128 88.1429 40.1698C90.272 42.6647 92.121 48.21 91.7348 51.4609C91.4669 53.7215 88.2515 53.8857 87.887 51.2459C87.4887 48.3646 87.6166 47 86.1658 44.2732C85.4755 42.9786 84.0343 41.8266 84.7344 40.2011C84.9106 39.7881 85.6565 39.2979 86.0862 39.223Z" fill="#898989"/>
<path d="M83.5634 35.9625C85.2169 37.7304 82.5519 40.4934 80.797 38.7327C78.9576 36.8875 81.8736 34.1559 83.5634 35.9625Z" fill="#898989"/>
</g>
<defs>
<clipPath id="clip0_272_9624">
<rect width="113" height="80" fill="white"/>
</clipPath>
</defs>
</svg>
