<svg width="83" height="80" viewBox="0 0 83 80" fill="none" xmlns="http://www.w3.org/2000/svg">
<g clip-path="url(#clip0_276_1676)">
<path d="M0 33.9805C0.684393 31.4822 2.42137 30.0928 4.9965 29.8818C5.53579 27.6227 6.30898 25.4027 7.26626 23.2893C7.81421 22.0782 8.80831 19.9582 9.5945 18.9537C10.5475 17.7361 11.8404 18.2427 11.9292 19.6647C9.98218 23.1327 8.21922 26.7204 7.28142 30.6168C8.07411 31.0712 8.75633 31.5974 9.10936 32.4802L9.31944 32.528C12.1675 32.0279 15.0307 31.4778 17.9133 31.2104C20.1203 31.006 22.4139 31.1082 24.571 30.732C25.7232 28.549 27.9497 27.7467 30.3234 28.1902C32.9267 24.9135 35.6469 21.7281 38.8328 18.995C38.7917 17.8339 38.0661 16.7359 38.5773 15.4878C38.5664 15.1203 36.8944 14.2658 36.4808 14.0354C33.3252 12.2698 29.7624 11.0174 26.334 9.89109C25.9788 9.90196 25.6128 10.7913 25.2966 11.1152C23.5769 12.8721 20.8632 12.8786 18.8035 11.7545C18.5111 12.1285 18.0953 12.3437 17.7487 12.6503C16.9734 13.3374 15.3707 15.5943 14.5109 15.5922C13.5947 15.5922 13.01 14.6594 13.3803 13.7962C13.6207 13.2374 15.8623 11.0978 16.4514 10.5347C16.707 10.2912 17.0232 10.1433 17.2723 9.89544C15.0891 4.62704 21.3201 0.184895 25.3702 4.30959C36.301 -1.34801 49.716 -1.43063 60.7529 4.00519C61.6625 3.75297 62.3729 2.93107 63.3454 2.76365C67.2914 2.08743 70.1113 5.66202 69.0847 9.44318C69.1259 9.59973 71.218 11.5784 71.4043 11.6871C72.0021 12.0393 72.4006 11.574 73.033 11.5131C77.7458 11.0565 80.3036 15.9966 77.5119 19.7038C87.1497 35.6677 83.7927 57.5762 69.7843 69.7829C69.5634 70.2287 69.9792 70.8048 70.0355 71.3267C70.5358 76.1059 65.1256 78.8346 61.6885 75.5231C50.4155 81.4395 36.4006 81.5243 25.1363 75.5514C21.4523 78.4215 16.4688 75.908 16.8586 71.1658C16.8889 70.8005 17.2441 70.1569 17.112 69.9482C8.61123 62.5468 3.51726 51.1359 3.73817 39.7729C1.80844 39.1641 0.578269 37.8703 0 35.9308V33.9783L0 33.9805ZM59.6505 6.16212C51.245 2.10483 41.5942 1.33946 32.6256 3.98779C31.7441 4.24871 26.8278 5.986 26.6155 6.57959C26.5116 6.87095 26.4726 7.32973 26.7888 7.49716C27.5252 7.88419 28.8788 8.10597 29.7516 8.42342C33.2082 9.67583 36.5349 11.2392 39.7121 13.0787C41.9711 11.2566 44.6978 11.1848 46.9307 13.0873C50.8638 10.8021 55.0395 8.94526 59.4014 7.62979L59.6483 6.15995L59.6505 6.16212ZM21.1945 5.20976C18.2729 5.73595 18.9248 10.2781 21.7901 10.202C25.145 10.1129 24.9435 4.53355 21.1945 5.20976ZM63.8305 5.20976C61.1644 5.70551 61.2813 10.0063 64.3373 10.1237C67.8805 10.2607 67.56 4.51833 63.8305 5.20976ZM69.689 13.3352L67.5254 11.5175C65.0477 13.3244 61.76 12.8003 60.1443 10.1281L59.9147 10.0563C56.4429 11.1413 52.9993 12.4698 49.8243 14.2571C49.4561 14.4637 48.2627 15.0725 48.1739 15.3769C48.4836 16.6815 48.0201 17.7665 47.901 18.9972C53.766 24.1482 58.468 30.532 61.8748 37.5637L64.0514 37.6159C66.3385 33.5956 68.4328 29.4361 69.9944 25.0657C70.3582 24.0481 71.0881 22.263 71.2635 21.2867C71.439 20.3105 70.3517 20.093 69.8016 19.3168C69.0349 18.234 68.7512 16.8555 68.9418 15.5443C69.0652 14.6942 69.6218 14.1462 69.6868 13.3309L69.689 13.3352ZM73.072 13.9984C70.7264 14.4876 70.7719 18.4471 73.2063 18.8319C77.2953 19.4799 77.1458 13.1482 73.072 13.9984ZM41.5574 14.829C39.2162 17.1881 42.9413 20.7192 45.157 18.3623C47.3444 16.0357 43.8856 12.4829 41.5574 14.829ZM40.4832 20.8171C37.4315 23.3393 34.8629 26.3812 32.435 29.5035L33.7172 31.4604C41.3516 32.291 48.698 34.5023 55.7152 37.5311C56.4538 37.8508 58.1648 38.9053 58.8058 39.001C59.3061 39.0749 59.5487 38.6813 59.4296 38.2095C59.2975 37.6877 58.3813 36.0874 58.0651 35.496C55.1348 30.0123 50.8703 24.92 46.2485 20.8149C44.7043 21.3237 43.6322 21.8194 41.9797 21.3715C41.5639 21.2585 40.7864 20.7366 40.481 20.8171H40.4832ZM78.3002 53.021C82.073 42.7104 81.1569 30.6407 75.5431 21.1932L73.869 21.2759C71.9263 27.4401 69.3555 33.3456 66.1501 38.9444C67.3131 40.5643 67.7203 42.0603 67.3499 44.0672C71.283 46.6937 74.8154 49.8378 78.3002 53.021ZM28.1619 30.5972C25.8813 31.1125 25.8337 35.3242 28.7748 35.4568C32.5823 35.6286 32.1816 29.6905 28.1619 30.5972ZM4.6673 32.3867C1.5832 32.628 1.69149 37.6529 5.10263 37.4028C8.27553 37.1702 7.97665 32.1279 4.6673 32.3867ZM19.7456 67.3129C19.5052 62.2054 19.49 57.2305 20.313 52.1752C21.1989 46.7351 22.9856 41.4297 25.3983 36.5048C25.028 35.9547 24.6598 35.4112 24.4042 34.7915C24.1768 34.2392 24.2873 33.4347 23.7502 33.326L9.74611 34.9741C9.89338 37.4072 8.2712 38.9814 6.15737 39.7881C6.24834 48.4484 9.59017 57.4132 14.9245 64.1666C15.4313 64.8102 18.0151 67.8847 18.5956 67.9717L19.7478 67.3151L19.7456 67.3129ZM22.232 66.8345C23.2455 67.0889 24.166 67.3672 24.9674 68.0761C25.4222 68.4783 25.6886 69.2828 26.269 69.0719C38.8891 64.3601 50.0906 56.2673 58.4463 45.6892C58.6282 45.2696 57.8161 43.9998 57.7273 43.3257C57.6385 42.6517 57.7273 41.9581 57.7987 41.2971C50.3181 37.4811 42.1075 34.8437 33.7345 34C33.1909 36.9158 30.2108 38.5009 27.4039 37.7312C26.8018 39.4337 25.9571 41.0361 25.329 42.7321C22.4788 50.4249 21.5259 58.6547 22.2298 66.8389L22.232 66.8345ZM60.8503 44.3411C63.0876 46.5807 66.5356 43.1844 64.4499 40.8078C62.243 38.2921 58.4311 41.9211 60.8503 44.3411ZM64.333 67.152C64.7834 66.6432 64.5365 61.4683 64.6968 60.4377C64.9004 59.1244 66.685 59.0178 67.0467 60.1746C67.2568 60.8464 67.1572 63.173 67.1268 64.0144C67.0922 64.9711 66.9059 66.1344 66.7911 67.102C66.8236 67.5303 67.7571 67.8347 68.1513 67.9695C71.9458 64.5602 75.2378 60.3246 77.1502 55.578C74.7288 52.958 72.0497 50.5553 69.2103 48.4006C68.814 48.1005 66.2605 46.185 66.0678 46.185C65.875 46.185 65.182 46.6155 65.2014 46.8829C65.4722 48.6593 66.7868 52.0622 66.4641 53.7516C66.3038 54.5931 65.0823 54.8344 64.4759 54.3343C63.8695 53.8342 63.3952 48.568 62.8862 47.5069L60.5493 47.0569C51.7172 58.0568 40.0457 66.6975 26.7455 71.4919L26.4119 73.4314C36.8251 78.9781 49.8871 78.9238 60.3176 73.4467C60.4237 73.3532 60.2699 71.5767 60.3219 71.1854C60.571 69.3002 62.4704 67.4455 64.333 67.1542V67.152ZM19.9947 73.638C22.2883 75.9406 25.7146 72.453 23.5726 70.1286C21.279 67.639 17.6643 71.2984 19.9947 73.638ZM64.3135 69.659C63.5749 69.8286 62.8147 70.9049 62.7389 71.6594C62.3794 75.3057 67.3954 75.4253 67.612 72.3182C67.7463 70.3613 66.1804 69.2328 64.3135 69.6612V69.659Z" fill="#898989"/>
</g>
<defs>
<clipPath id="clip0_276_1676">
<rect width="83" height="80" fill="white"/>
</clipPath>
</defs>
</svg>
