<svg width="69" height="80" viewBox="0 0 69 80" fill="none" xmlns="http://www.w3.org/2000/svg">
<g clip-path="url(#clip0_382_2416)">
<path d="M35.1288 0C42.607 3.83625 42.7456 14.9549 35.7567 19.4399V28.5747L37.8609 27.3314C38.2872 18.6326 47.2081 12.6415 55.5556 15.3867C59.9278 16.824 58.5901 20.994 56.8471 24.1523C56.3704 25.018 54.0646 28.7395 52.9075 26.9205C52.1788 25.7752 53.9176 24.4151 54.5287 23.4096C55.1944 22.3186 56.1583 20.0469 56.1352 18.787C56.1184 17.794 54.8416 17.5771 54.0226 17.3789C47.8717 15.902 41.6242 19.7528 40.4734 25.9213L50.65 20.1721C51.8134 19.9009 52.5841 21.3904 51.7105 22.1726L41.4163 27.9531L42.8212 28.5059C44.2849 28.7937 45.6415 28.7979 47.1094 28.533C48.0754 28.3578 49.852 27.321 50.3035 28.7228C50.755 30.1226 49.2241 30.4438 48.1762 30.6858C45.0115 31.4097 41.6977 31.1134 38.8459 29.5447L35.7567 31.2323V41.5374H66.8033C67.0217 41.5374 68.099 42.3051 68.2964 42.5533C69.1868 43.6777 69.0146 46.8631 68.9243 48.3296C67.7903 66.7411 50.9545 80.9825 32.5374 79.9499C15.6534 79.0008 1.11709 65.2183 0.075483 48.3275C-0.0148174 46.861 -0.187018 43.6756 0.703386 42.5512C0.898687 42.303 1.97809 41.5353 2.19649 41.5353H33.243V31.2303L30.1539 29.5426C22.5078 33.575 12.8981 29.2089 10.8716 20.896C10.1702 18.0193 10.397 16.388 13.4441 15.3867C21.8085 12.6373 30.6936 18.6368 31.1388 27.3314L33.243 28.5747V19.4399C26.2458 14.9486 26.3928 3.84459 33.8709 0H35.1288ZM35.7567 16.3963C39.4024 12.9898 39.4549 6.87979 35.9205 3.3502C34.5366 1.96714 34.1418 2.18409 32.8461 3.59009C29.5197 7.19896 29.673 13.0253 33.2409 16.3963V8.82399C33.2409 7.22816 35.7567 7.22816 35.7567 8.82399V16.3963ZM28.5243 25.9213C27.3546 19.7007 21.042 15.8623 14.849 17.4102C12.9926 17.8733 12.6902 17.9442 13.0388 19.8383C14.1245 25.7565 20.1327 29.6282 26.0484 28.5351C26.4978 28.4516 27.3378 28.3286 27.5835 27.9551L17.2872 22.1768C16.5417 21.5698 16.9869 20.2389 17.9298 20.1471L28.5243 25.9233V25.9213ZM20.8215 74.4824C21.3864 72.1502 19.278 70.3312 18.9777 68.1179C18.3162 63.2553 22.0479 59.8821 23.2533 55.7372C23.6292 54.4438 23.8245 53.6323 22.6065 52.8042C20.8509 51.611 18.8916 51.4107 17.3943 49.5499C16.8168 48.8323 16.4766 47.7851 15.8802 47.151C14.3933 45.5718 11.2496 45.0816 9.42052 43.8863L2.74669 43.9552C2.48419 44.0991 2.46109 44.3077 2.42539 44.5726C2.13139 46.836 2.64169 50.3635 3.1373 52.6227C5.21211 62.0621 11.93 70.5439 20.8215 74.4824ZM36.7794 43.878H15.3216L17.7597 45.7492C18.4716 46.4793 18.8055 47.7059 19.488 48.4026C21.0357 49.9797 24.3957 50.2926 25.4436 52.3244C27.6549 56.6133 20.811 62.7442 21.2961 67.5317C21.462 69.1734 22.8312 70.7046 23.1399 72.4151C23.3331 73.4832 23.2281 74.5179 23.0223 75.5755C33.2766 79.2803 44.5999 77.8555 53.4115 71.4868C60.3583 66.4657 65.39 58.2592 66.3896 49.7126C66.503 48.7447 66.7928 44.8417 66.4862 44.1909C66.4505 44.1179 66.2006 43.8759 66.1733 43.8759H62.6369C62.4731 45.9786 62.6411 48.2274 62.2484 50.2842C62.1035 51.0394 61.1962 54.133 60.6565 54.4793C59.9089 54.957 58.8127 54.3875 58.8484 53.4842C59.1382 51.9426 59.9446 50.5095 60.1021 48.9346C60.2596 47.3596 60.1336 45.503 60.2785 43.878H40.4713L41.8027 44.508C46.03 46.1163 51.5782 43.8613 51.7903 50.205C51.8995 53.4821 49.6042 55.4618 49.5223 58.3218C49.4887 59.5129 49.9087 62.884 50.3665 63.952C50.6899 64.7072 51.0427 64.4902 51.6223 64.0897C52.7437 63.3158 54.0919 61.4529 54.9046 60.3244C55.4905 59.5129 56.6056 57.0305 57.6472 57.1786C58.294 57.2704 58.7476 57.8295 58.7182 58.4761C58.693 59.0206 56.9227 61.5906 56.4775 62.1977C54.9067 64.3338 50.7256 69.4759 48.403 65.2787C47.4874 63.6266 46.9603 58.6868 47.3026 56.8302C47.8108 54.0746 50.0515 52.2994 49.2325 49.1536C49.0708 48.5319 49.0225 48.2128 48.3694 47.9812C47.2753 47.5953 45.1774 47.6454 43.8985 47.4243C41.1958 46.957 38.5456 46.0537 36.7794 43.878Z" fill="#898989"/>
</g>
<defs>
<clipPath id="clip0_382_2416">
<rect width="69" height="80" fill="white"/>
</clipPath>
</defs>
</svg>
