<svg width="69" height="80" viewBox="0 0 69 80" fill="none" xmlns="http://www.w3.org/2000/svg">
<g clip-path="url(#clip0_276_3371)">
<path d="M35.1293 0C42.6075 3.83625 42.7461 14.9549 35.7572 19.4399V28.5747L37.8614 27.3314C38.2877 18.6326 47.2086 12.6415 55.5561 15.3867C59.9283 16.824 58.5906 20.994 56.8476 24.1523C56.3709 25.018 54.0651 28.7395 52.908 26.9205C52.1793 25.7752 53.9181 24.4151 54.5292 23.4096C55.1949 22.3186 56.1588 20.0469 56.1357 18.787C56.1189 17.794 54.8421 17.5771 54.0231 17.3789C47.8722 15.902 41.6247 19.7528 40.4738 25.9213L50.6505 20.1721C51.8139 19.9009 52.5846 21.3904 51.711 22.1726L41.4168 27.9531L42.8217 28.5059C44.2854 28.7937 45.642 28.7979 47.1099 28.533C48.0759 28.3578 49.8525 27.321 50.304 28.7228C50.7555 30.1226 49.2246 30.4438 48.1767 30.6858C45.012 31.4097 41.6982 31.1134 38.8463 29.5447L35.7572 31.2323V41.5374H66.8038C67.0222 41.5374 68.0995 42.3051 68.2969 42.5533C69.1873 43.6777 69.0151 46.8631 68.9248 48.3296C67.7908 66.7411 50.955 80.9825 32.5379 79.9499C15.6538 79.0008 1.11758 65.2183 0.0759713 48.3275C-0.0143291 46.861 -0.18653 43.6756 0.703874 42.5512C0.899175 42.303 1.97858 41.5353 2.19698 41.5353H33.2435V31.2302L30.1544 29.5426C22.5083 33.575 12.8986 29.2089 10.8721 20.896C10.1707 18.0193 10.3975 16.388 13.4446 15.3867C21.809 12.6373 30.6941 18.6368 31.1393 27.3314L33.2435 28.5747V19.4399C26.2463 14.9486 26.3933 3.84459 33.8714 0H35.1293ZM35.7572 16.3963C39.4028 12.9898 39.4553 6.87979 35.921 3.3502C34.5371 1.96714 34.1423 2.18409 32.8466 3.59009C29.5202 7.19896 29.6735 13.0253 33.2414 16.3963V8.82399C33.2414 7.22816 35.7572 7.22816 35.7572 8.82399V16.3963ZM28.5248 25.9213C27.3551 19.7007 21.0425 15.8623 14.8495 17.4102C12.9931 17.8733 12.6907 17.9442 13.0393 19.8383C14.125 25.7565 20.1332 29.6282 26.0489 28.5351C26.4983 28.4516 27.3383 28.3286 27.584 27.9552L17.2876 22.1768C16.5421 21.5698 16.9873 20.2389 17.9303 20.1471L28.5248 25.9233V25.9213ZM20.822 74.4824C21.3869 72.1502 19.2785 70.3312 18.9782 68.1179C18.3167 63.2553 22.0484 59.8821 23.2538 55.7372C23.6297 54.4438 23.825 53.6323 22.607 52.8042C20.8514 51.611 18.8921 51.4107 17.3947 49.5499C16.8172 48.8323 16.477 47.7851 15.8806 47.151C14.3938 45.5718 11.2501 45.0816 9.42101 43.8863L2.74718 43.9552C2.48468 44.0991 2.46158 44.3077 2.42588 44.5726C2.13188 46.836 2.64218 50.3635 3.13778 52.6227C5.21259 62.0621 11.9305 70.5439 20.822 74.4824ZM36.7799 43.878H15.322L17.7601 45.7492C18.4721 46.4793 18.806 47.7059 19.4885 48.4026C21.0362 49.9797 24.3962 50.2926 25.4441 52.3244C27.6554 56.6133 20.8115 62.7442 21.2966 67.5317C21.4625 69.1734 22.8317 70.7046 23.1404 72.4151C23.3336 73.4832 23.2286 74.5179 23.0228 75.5755C33.2771 79.2803 44.6004 77.8555 53.412 71.4868C60.3588 66.4657 65.3905 58.2592 66.3901 49.7126C66.5035 48.7447 66.7933 44.8417 66.4867 44.1909C66.451 44.1179 66.2011 43.8759 66.1738 43.8759H62.6373C62.4735 45.9786 62.6415 48.2274 62.2488 50.2842C62.1039 51.0394 61.1967 54.133 60.657 54.4793C59.9094 54.957 58.8132 54.3875 58.8489 53.4842C59.1387 51.9426 59.9451 50.5095 60.1026 48.9346C60.2601 47.3596 60.1341 45.503 60.279 43.878H40.4717L41.8032 44.508C46.0305 46.1163 51.5787 43.8613 51.7908 50.205C51.9 53.4821 49.6047 55.4618 49.5228 58.3218C49.4892 59.5129 49.9092 62.884 50.367 63.952C50.6904 64.7072 51.0432 64.4902 51.6228 64.0897C52.7442 63.3158 54.0924 61.4529 54.9051 60.3244C55.491 59.5129 56.6061 57.0305 57.6477 57.1786C58.2945 57.2704 58.7481 57.8295 58.7187 58.4761C58.6935 59.0206 56.9232 61.5906 56.478 62.1977C54.9072 64.3338 50.7261 69.4759 48.4035 65.2787C47.4879 63.6266 46.9608 58.6868 47.3031 56.8302C47.8113 54.0746 50.052 52.2994 49.233 49.1536C49.0713 48.5319 49.023 48.2128 48.3699 47.9812C47.2758 47.5953 45.1779 47.6454 43.899 47.4243C41.1963 46.957 38.546 46.0537 36.7799 43.878Z" fill="#898989"/>
</g>
<defs>
<clipPath id="clip0_276_3371">
<rect width="69" height="80" fill="white"/>
</clipPath>
</defs>
</svg>
