<svg width="79" height="80" viewBox="0 0 79 80" fill="none" xmlns="http://www.w3.org/2000/svg">
<g clip-path="url(#clip0_382_2418)">
<path d="M33.9624 9.76562e-05C35.6325 0.43916 37.3556 1.76729 37.932 3.44072C38.1626 4.10947 38.1143 4.61104 38.3152 5.24385L58.3344 25.322C62.2416 25.5954 65.158 29.772 62.709 33.286L47.6751 48.3642C44.5952 50.9392 39.87 48.0251 39.8498 44.3298C39.3388 43.5798 34.7461 38.7454 34.3519 38.7454L14.8796 59.3782C13.2173 60.936 11.9227 62.8392 9.62011 63.4782C1.99414 65.5985 -3.12515 56.6845 2.1733 51.0095L25.0777 29.297L19.8711 24.0532C15.5776 23.6048 12.6284 19.3251 15.7302 15.5423C19.9553 10.3892 26.2632 5.47979 30.8918 0.592285L32.403 -0.00146484H33.9609L33.9624 9.76562e-05ZM32.8298 3.15479C32.5993 3.20635 32.4123 3.35322 32.2472 3.5126L17.7539 18.0392C16.9703 19.4079 19.0003 21.5313 20.3323 20.4688L34.9065 5.86885C35.6465 4.64229 34.0746 2.87979 32.8298 3.15635V3.15479ZM36.8664 8.44853L22.7486 22.5782L41.1849 40.9267L55.3027 26.797L36.8664 8.44853ZM58.2253 28.6267C57.9215 28.686 57.571 28.9423 57.3264 29.136C52.6106 34.0313 47.5443 38.6454 43.0357 43.7079C42.6151 45.1704 44.4721 46.9735 45.8072 45.8642L60.2039 31.397C61.0732 30.1798 59.5308 28.3673 58.2238 28.6251L58.2253 28.6267ZM27.3413 31.5657L4.05526 53.6751C0.939437 57.8095 6.10391 62.8907 10.2012 59.6829L32.0244 36.561L31.9465 36.1673L27.3413 31.5657Z" fill="#898989"/>
<path d="M14.3327 80C13.9853 79.7641 13.6487 79.6797 13.4197 79.275C12.8947 78.3516 13.2156 76.1781 13.4447 75.1234C14.3093 71.1344 17.852 67.9516 21.7904 67.1656C21.7841 63.7609 21.242 59.2687 25.6213 58.5859L67.1177 58.6984C70.9689 59.9672 70.2086 63.9125 70.2819 67.1641C72.0205 67.55 73.5239 68.1953 74.9197 69.3094C77.5402 71.4 78.9423 74.5187 78.9984 77.8875C79.0139 78.8125 78.64 79.4953 77.8954 79.9969H14.3327V80ZM67.1458 67.0312V62.7344C67.1458 62.2328 66.3731 61.5906 65.8294 61.7109H26.2429C25.5714 61.6078 24.9265 62.275 24.9265 62.8906V67.0312H50.0867C50.2347 67.0312 50.903 67.6422 51.0136 67.8203C51.6337 68.8078 51.0105 69.9516 49.9215 70.1469L23.286 70.1516C19.6576 70.4375 16.5963 73.1719 16.3595 76.8766H75.7158C75.4962 73.2656 72.4847 70.4594 68.9358 70.1609C66.9121 69.9906 64.5098 70.3969 62.5468 70.1609C61.2491 70.0062 60.5963 68.6969 61.4547 67.6531C61.57 67.5125 62.1215 67.0328 62.2384 67.0328H67.1458V67.0312Z" fill="#898989"/>
<path d="M56.3526 67.061C58.3888 66.6094 59.054 69.9032 56.9259 70.1516C54.8399 70.3954 54.5844 67.4532 56.3526 67.061Z" fill="#898989"/>
</g>
<defs>
<clipPath id="clip0_382_2418">
<rect width="79" height="80" fill="white"/>
</clipPath>
</defs>
</svg>
