<svg width="57" height="80" viewBox="0 0 57 80" fill="none" xmlns="http://www.w3.org/2000/svg">
<g clip-path="url(#clip0_382_2422)">
<path d="M43.728 6.65284C48.2643 7.2268 55.1546 4.7496 56.8283 10.6364L56.8734 60.4364C56.9142 62.1006 54.6439 62.1988 54.4529 60.5921L54.4615 11.8718C54.4443 10.6577 53.5516 9.39035 52.292 9.23885C49.8007 8.94014 46.7321 9.46929 44.1764 9.24099C44.361 11.3704 43.1679 13.2438 41.0306 13.7004L16.141 13.7217C13.8192 13.5169 12.5103 11.4387 12.6948 9.24312L4.29812 9.28153C3.50201 9.53757 2.88401 10.1585 2.58359 10.9309C2.21665 32.3316 2.46986 53.8156 2.45699 75.2441C2.55784 76.3003 3.50416 77.318 4.57923 77.446H52.292C55.4292 76.8593 53.955 73.7548 54.528 72.003C54.8456 71.0322 56.6652 71.0557 56.8562 72.2612C57.4399 75.9759 56.3026 79.552 52.1332 80.0022H4.74016C2.37759 79.8358 0.248918 77.9987 0 75.6111L0.115875 10.3889C1.92911 4.79228 8.72285 7.23533 13.1454 6.65284C13.6647 4.98644 15.5445 4.89256 16.5573 3.89827C17.1539 3.31364 17.2182 2.68421 17.6045 2.06544C18.3212 0.915389 19.2911 0.307292 20.6494 0.140865C25.5806 0.456649 31.046 -0.28587 35.9128 0.132331C37.093 0.234747 38.2518 0.774567 38.9492 1.74539C39.3311 2.27667 39.4792 2.94451 39.9191 3.495C41.0242 4.88189 43.0585 4.80294 43.7301 6.65284H43.728ZM20.5207 2.72688C19.3212 3.47153 19.2611 4.84348 18.0809 5.89112C17.4071 6.48855 15.6282 7.12438 15.3878 7.68554C15.214 8.09094 15.1861 9.82775 15.2698 10.2758C15.4071 10.9927 16.3084 11.2701 16.9457 11.3235C24.2845 11.9465 32.4966 10.8391 39.9277 11.3235C41.8074 11.3 41.7838 9.67412 41.6122 8.19976C41.4748 7.03264 40.7538 7.20333 40.02 6.74886C39.2861 6.29438 38.3805 5.64148 37.8441 4.91816C37.3784 4.29086 37.0565 2.98932 36.3162 2.76529L20.5207 2.72688Z" fill="#898989"/>
<path d="M25.8297 48.2507C28.3704 47.9413 30.1643 50.3886 29.2073 52.7293C28.7545 53.8345 23.6088 58.8422 22.4178 59.8728C20.5832 61.4624 18.8042 62.2433 16.3537 61.4219C14.9439 60.9482 11.6972 58.0016 11.4483 56.5571C11.017 54.0458 13.1542 52.0892 15.622 52.885C16.7185 53.2392 17.4459 54.1482 18.2377 54.9142C20.2505 53.2286 22.0788 50.6809 24.098 49.085C24.6324 48.6625 25.1302 48.3339 25.8297 48.2486V48.2507ZM25.9821 50.794L18.8085 57.7221C17.1648 58.5201 15.7314 55.5372 14.8301 55.2683C14.2679 55.0998 13.725 55.4668 13.8838 56.0429C13.9847 56.4099 16.2829 58.6289 16.7013 58.8423C17.8644 59.4375 19.0768 59.3373 20.0875 58.5158L26.9992 51.4768C27.0121 50.8986 26.5121 50.6361 25.9821 50.794Z" fill="#898989"/>
<path d="M25.8295 23.3359C28.6406 22.9924 30.559 26.1502 28.8423 28.4119C27.8488 29.7198 22.6644 34.8812 21.3576 35.8243C19.6989 37.0191 17.4972 37.0746 15.6861 36.2147C14.8664 35.8243 12.506 33.6309 11.9824 32.8691C10.6413 30.9232 11.6777 28.1238 14.1025 27.8102C15.9587 27.5712 17.0702 28.8024 18.2376 30.0015L24.3425 23.9354C24.7545 23.6303 25.3253 23.3978 25.8295 23.3359ZM25.9819 25.8792L18.8083 32.8073C17.1453 33.7418 15.4759 29.5854 14.139 30.4005C13.1905 30.9766 15.4458 32.9267 15.9844 33.362C17.3299 34.4523 18.6217 34.6806 20.0873 33.601L26.999 26.562C27.0119 25.9838 26.5119 25.7213 25.9819 25.8792Z" fill="#898989"/>
<path d="M19.8792 40.1816C19.6625 40.3928 18.551 40.7257 18.1905 40.8196C9.85602 42.981 3.13095 34.1646 7.42692 26.7629C9.95687 22.4038 16.5339 20.4323 20.7826 23.4813C21.8105 24.2196 21.4543 25.807 20.1475 25.8454C19.5402 25.8646 17.7484 24.6869 16.4674 24.5759C6.01281 23.6734 6.20379 39.853 16.7742 38.6112C17.5338 38.5216 18.654 37.8666 19.287 38.0543C20.1582 38.3146 20.5466 39.5266 19.8814 40.1816H19.8792Z" fill="#898989"/>
<path d="M15.0725 46.9813C16.7956 46.8533 19.2311 47.3654 20.6796 48.3383C21.9392 49.1854 21.3469 50.9009 20.0208 50.7643C19.156 50.6768 17.9372 49.6121 16.4694 49.4905C6.00846 48.6221 6.20373 64.7676 16.7763 63.5258C17.8964 63.3935 18.9479 62.3992 19.8513 63.3765C21.8834 65.5741 16.2742 66.1822 15.0296 66.0948C3.39911 65.2776 3.12659 47.8753 15.0746 46.9792L15.0725 46.9813Z" fill="#898989"/>
<path d="M31.2821 30.3558L49.4037 30.3174C51.2534 30.4881 51.2599 32.7668 49.3994 32.8757L31.5675 32.8799C30.0589 32.7434 29.8508 30.8188 31.2842 30.3537L31.2821 30.3558Z" fill="#898989"/>
<path d="M31.4471 55.2771L49.4035 55.2344C51.1374 55.3176 51.2962 57.5985 49.5645 57.7969H31.5673C29.9815 57.6689 29.8914 55.5523 31.4493 55.2771H31.4471Z" fill="#898989"/>
<path d="M55.2149 65.0132C57.3049 64.3837 57.2942 67.5949 56.2363 67.9427C54.0819 68.6511 53.9403 65.3951 55.2149 65.0132Z" fill="#898989"/>
</g>
<defs>
<clipPath id="clip0_382_2422">
<rect width="57" height="80" fill="white"/>
</clipPath>
</defs>
</svg>
