<svg width="80" height="80" viewBox="0 0 80 80" fill="none" xmlns="http://www.w3.org/2000/svg">
<g clip-path="url(#clip0_382_2431)">
<path d="M37.6558 80C33.0279 79.5115 28.1244 74.6603 28.1244 69.9217V51.8735H10.0762C5.30216 51.8735 0.27137 46.8302 0.0166997 42.0875L0 9.92172C0.523954 4.64878 4.65087 0.523954 9.92172 0L42.0875 0.0166997C46.8302 0.269283 51.8735 5.30216 51.8735 10.0741V28.1223H69.9217C74.7918 28.1223 79.5428 33.1197 80 37.8103V60.4676C79.3779 61.503 78.1359 61.5614 77.6892 60.357L77.6537 38.3613C77.3134 34.6164 74.5329 31.3934 70.8172 30.6669C60.4613 30.7943 49.283 29.8173 38.9771 30.4603C34.082 30.7651 30.7671 34.082 30.4603 38.9771C29.8173 49.285 30.7943 60.4613 30.6669 70.8172C31.4644 74.6958 34.725 77.4095 38.664 77.6641C48.8216 78.3217 59.689 77.159 69.9196 77.6537C73.8462 77.2592 77.2404 74.0236 77.637 70.0595C77.7873 68.5565 77.3489 65.5694 77.7268 64.367C78.0649 63.2857 79.5324 63.413 80 64.3753V70.4686C79.5971 72.3369 79.0627 73.9568 77.9418 75.5203C76.1424 78.0336 73.4767 79.4364 70.4686 80H37.6558ZM49.5293 28.1244V10.2328C49.5293 6.39808 45.4295 2.47573 41.6366 2.34422H10.0783C5.98476 2.7972 2.7972 5.98685 2.34422 10.0783V41.6366C2.4486 45.4065 6.43565 49.5293 10.2328 49.5293H28.1244V38.8268L25.7823 35.7791C25.7698 36.0004 25.6299 36.1904 25.5046 36.3636C24.2376 38.1359 20.5093 43.9954 19.0147 44.8742C15.4744 46.9596 11.4059 43.2063 13.0947 39.4239C13.27 39.0314 15.2635 36.1716 15.5412 35.9336C16.1695 35.3971 17.2299 35.5767 17.4637 36.3595C18.0023 38.1568 13.3118 40.7431 15.6956 42.6594C16.7289 43.4902 17.6203 43.1124 18.4281 42.2607C20.6889 39.8789 22.5655 35.8626 24.774 33.2951C25.3042 32.6793 25.8595 32.2388 26.6402 32.8087C27.3395 33.3222 28.0013 35.0214 28.7444 35.6226C29.0617 34.2991 29.8591 33.1907 30.596 32.0822C30.6544 31.3913 27.8468 29.0721 28.5565 28.0096L35.6163 18.0378C36.4492 17.3009 38.282 17.8061 39.4134 17.6161C41.6428 17.2425 41.3798 14.0194 39.1379 13.9025L28.0764 13.8712C26.3939 13.3806 28.64 8.75483 25.5464 8.73395C22.4152 8.71099 24.6989 13.2742 22.9746 13.8357L12.7314 13.9046C11.1491 13.9631 10.2703 15.6873 11.2431 16.9565C12.3536 18.4031 15.1174 17.0629 16.1716 17.9647L23.3358 28.1557C23.5028 28.5419 23.3546 28.855 23.1834 29.2015C22.8452 29.88 20.526 33.1448 19.9937 33.6687C18.9813 34.6686 17.6224 33.8879 18.0023 32.4601C18.2215 31.6397 20.1879 29.7568 20.6012 28.7945C20.6534 28.6734 20.7703 28.5774 20.7097 28.4229L14.8064 20.0334C13.0905 19.9645 11.623 20.2171 10.166 19.1254C7.02014 16.7686 8.54399 11.9841 12.4371 11.5792C15.2782 11.2848 18.52 11.7587 21.4028 11.5604C20.6471 4.69053 30.3789 4.71976 29.6817 11.5604C32.7544 11.7441 36.1027 11.3141 39.1421 11.5541C44.7385 11.9946 44.559 19.4844 39.4468 19.9958C38.8769 20.0522 37.3907 19.856 37.0275 20.0772L31.0823 28.5148L32.1991 30.2933L32.4079 30.3163C33.2679 29.8758 34.0466 29.2997 34.9525 28.9406C35.6706 28.6567 37.4888 28.1223 38.1964 28.1223H49.5251L49.5293 28.1244Z" fill="#898989"/>
<path d="M53.3994 34.1006C55.5579 33.8084 57.6015 34.8709 58.5742 36.8143C61.9935 47.2078 67.0139 57.5095 70.3141 67.8862C70.502 68.4728 70.7671 69.145 70.7901 69.7629C70.8673 71.8858 69.2308 73.8627 67.1078 74.0589C62.5613 74.4785 62.2482 69.694 60.8517 66.567L60.3862 66.2518L47.6025 66.2726L47.3061 66.6025C46.1246 69.1011 45.7238 73.5328 42.3797 74.0192C39.6263 74.42 37.5618 72.6498 37.3447 69.9194C41.0103 58.7807 45.6424 47.9468 49.6566 36.9187C50.3392 35.4596 51.7816 34.3177 53.3994 34.0985V34.1006ZM53.7084 36.4407C52.6792 36.6056 51.9632 37.3216 51.6418 38.2818L39.7119 69.9236C40.0856 72.0299 42.3943 72.4828 43.3566 70.4643C44.2438 68.6064 44.7448 66.352 45.6424 64.4691L46.5546 63.9743C51.2118 64.1434 56.4242 63.5109 61.0228 63.8992C61.5802 63.9472 62.2628 64.014 62.5655 64.5442C63.5361 66.2225 64.0413 69.575 65.1581 71.0133C66.3772 72.5851 68.7778 71.4349 68.3728 69.5249L56.6413 38.2818C56.1841 37.0273 55.0694 36.2236 53.7125 36.4407H53.7084Z" fill="#898989"/>
<path d="M22.4529 17.6869C24.532 17.8476 27.2895 17.3508 29.2851 17.6618C30.2934 17.8184 30.4729 18.6847 30.0596 19.5113C29.7569 20.1146 27.2603 23.6403 26.8031 24.0662C25.9869 24.8302 25.5027 24.515 24.8472 23.8199C24.4485 23.3982 21.7494 19.599 21.6304 19.2212C21.405 18.501 21.7765 17.8998 22.455 17.6869H22.4529ZM26.7155 19.9998L24.9975 20.077L25.8554 21.2481L26.7155 19.9998Z" fill="#898989"/>
<path d="M54.9505 44.5799C55.1008 44.7177 55.2156 45.035 55.3137 45.2312C57.3093 49.2809 58.4052 54.4724 60.3612 58.6223C60.7056 59.4468 60.1712 60.2672 59.2987 60.3152L48.5837 60.2422C47.8448 59.9207 47.6381 59.3508 47.8823 58.5847L53.3515 44.5256C53.8086 44.1499 54.5163 44.1791 54.9505 44.5799ZM57.4993 57.9689L54.2157 48.9072L50.6232 57.9689H57.4993Z" fill="#898989"/>
</g>
<defs>
<clipPath id="clip0_382_2431">
<rect width="80" height="80" fill="white"/>
</clipPath>
</defs>
</svg>
