<svg width="67" height="80" viewBox="0 0 67 80" fill="none" xmlns="http://www.w3.org/2000/svg">
<g clip-path="url(#clip0_382_2436)">
<path d="M27.9692 0C32.4969 2.16222 36.2284 5.79166 37.4071 10.7798C39.1026 9.70076 41.2877 8.91185 43.3047 8.75114C44.0905 8.68853 46.4037 8.59878 46.9227 9.05794C47.6307 9.68198 47.429 12.3952 47.2945 13.3386C46.3743 19.8106 41.233 23.8261 34.7303 23.7447V37.8054L40.7876 31.8572C40.4935 27.1592 43.7018 22.9976 48.511 22.5134C52.2341 22.1398 52.4904 23.3211 51.8034 26.7209C51.0995 30.1959 48.5068 32.7463 44.9897 33.3892C43.7144 33.6229 42.4243 33.2619 41.6512 34.4473C43.8656 34.5934 46.0486 35.3823 47.7084 36.8642C49.7381 38.6737 49.3346 39.4709 47.3849 41.0822C45.4351 42.6934 42.6933 43.5887 40.067 43.0482C38.2937 42.6829 36.7557 41.6498 35.4363 40.4685C35.1905 40.7315 34.806 40.9402 34.7324 41.3243C34.5013 42.5222 34.8963 44.3443 34.7282 45.6174C40.8086 45.8574 46.6705 47.6627 51.734 50.9854C52.566 51.5301 56.0727 54.0221 56.245 54.7901C56.4929 55.9067 55.6378 56.5474 54.5851 56.1196C53.9044 55.842 52.1038 54.164 51.2928 53.6109C45.7902 49.8667 39.3001 47.9194 32.602 47.9466L32.4045 47.9925C30.9212 50.1985 27.549 54.7651 29.4105 57.3844C30.9989 59.6196 35.8397 59.4067 37.489 62.7941C39.2581 66.4277 35.4363 69.8276 36.6948 72.643C38.0185 75.6004 42.0966 71.7999 43.7144 71.0214C45.6662 70.0801 47.4185 69.9695 49.3599 70.9984C50.381 71.539 50.7886 72.234 52.1017 72.3341C53.5808 72.4468 55.1104 71.6371 56.558 71.2802C58.7662 70.7354 61.0774 70.4099 63.3549 70.4537C62.6804 67.776 61.4513 65.1149 60.0226 62.7523C59.3125 61.5752 57.0202 59.532 58.6465 58.5135C59.9428 57.7016 61.1614 60.179 61.7854 61.1578C64.6617 65.6659 67.2649 73.1377 66.9792 78.5056C66.8993 80 65.7942 80.4592 64.7163 79.4824C64.3634 77.2617 64.5504 74.9555 63.8927 72.7912C61.5732 72.7516 59.2389 73.0271 56.9971 73.5927C54.4864 74.2271 52.6249 75.446 49.9271 74.1875C49.1624 73.8306 48.2421 72.9144 47.4752 72.7182C43.977 71.8207 41.0503 77.627 36.6192 75.6902C33.7975 74.4588 33.8668 71.4304 34.495 68.8925C34.9152 67.1937 36.0477 65.6805 35.3207 63.8585C34.5938 62.0365 30.2341 61.1808 28.5239 59.8304C25.7757 57.6578 26.2632 54.3456 27.5196 51.4988C27.8978 50.6431 29.0344 49.1237 29.2256 48.5059C29.3034 48.2534 29.1962 48.2659 28.9882 48.268C28.0532 48.2847 26.4018 48.7251 25.4522 48.9776C17.4304 51.1106 10.0663 56.8835 6.08058 64.1048C5.65197 64.8812 4.77584 66.4778 4.53842 67.2604C4.41656 67.6591 5.53221 67.465 5.85367 67.5109C7.01975 67.6716 8.24675 68.0452 9.24054 68.6755C11.5139 70.1197 11.8647 72.7349 14.7222 73.3839C17.0207 73.9078 18.0607 73.6365 20.1554 75.1726C21.0883 75.8551 24.6348 79.424 22.0317 79.9624C20.8509 80.2066 20.4895 78.8354 19.8676 78.1133C17.4136 75.254 15.1508 76.4582 12.4131 75.0515C9.80362 73.7095 9.60402 70.8335 6.42515 70.0655C5.94191 69.9486 3.78625 69.6105 3.58665 70.101C2.70842 73.1982 2.51092 76.3852 2.18526 79.5722C1.60957 80.1002 0.546448 80.1378 0.161958 79.4094C-0.222532 78.681 0.176666 75.4502 0.309031 74.4651C2.43108 58.7201 16.1614 46.1245 32.2133 45.6195L32.1271 35.4721C31.9759 35.2112 31.7784 34.9879 31.5872 34.7583C31.2342 34.3325 28.049 31.1247 27.8053 31.0161C27.425 30.845 25.8724 30.8492 25.2547 30.7365C20.8299 29.9288 17.6804 25.9946 18.0502 21.4761C18.1658 20.059 18.7751 19.6916 20.1806 19.6729C25.7253 19.6061 29.5618 23.7781 29.3034 29.2129L32.2091 32.0284V23.8261C29.1164 22.0918 26.2316 19.7605 24.5781 16.5652C24.1768 15.7888 23.2145 13.5848 23.4688 12.8063C23.6894 12.126 24.8281 11.9235 25.3786 12.3368C25.616 12.5162 26.5846 15.3484 26.9943 16.0434C27.404 16.7384 28.0784 17.6338 28.5974 18.1994C28.9945 18.6314 31.9738 21.3363 32.3667 20.9376C32.2406 17.8988 33.3331 14.8579 35.3186 12.5622C34.9846 9.6465 33.434 6.89155 31.2699 4.92134C30.8245 4.51645 28.0469 2.39806 27.6624 2.66938C27.112 3.42073 26.0762 6.87903 25.5383 7.19835C24.6327 7.73473 23.5927 7.00217 23.7545 5.90019C24.0087 4.16582 25.6749 1.16668 27.0216 0.00208708H27.965L27.9692 0ZM45.1116 11.0928C38.9891 10.7005 34.2681 15.2775 34.7303 21.403C39.9745 21.5637 44.101 18.3413 44.9099 13.157C45.0149 12.4808 44.9582 11.767 45.1095 11.0908L45.1116 11.0928ZM26.8662 28.5889C27.0195 25.4833 24.9899 22.7576 21.872 22.2254C21.2921 22.1252 20.4244 21.858 20.4559 22.528C20.6261 26.0635 23.4099 28.4407 26.8641 28.5889H26.8662ZM49.6708 24.8405C46.0444 24.7403 42.9412 27.5662 43.2227 31.2457C46.9836 31.1456 49.57 28.5763 49.6708 24.8405ZM40.8275 36.9101C39.5543 37.0833 38.1172 37.8827 37.2516 38.8218C39.7182 41.5225 43.5967 41.4578 46.2041 38.9617C45.0864 37.3651 42.7143 36.6513 40.8254 36.9101H40.8275Z" fill="#898989"/>
<path d="M16.1318 10.6482C17.6886 10.3748 17.966 12.6038 16.8482 12.9335C15.096 13.4511 14.6758 10.9049 16.1318 10.6482Z" fill="#898989"/>
<path d="M55.2932 15.3507C56.1799 16.2794 54.8835 18.1912 53.6103 17.1017C52.4589 16.1187 54.2091 14.2132 55.2932 15.3507Z" fill="#898989"/>
<path d="M41.2958 0.649149C42.7035 0.392438 43.1405 2.65692 41.8526 2.93868C40.0373 3.33523 39.9238 0.901686 41.2958 0.649149Z" fill="#898989"/>
<path d="M12.6713 29.0813C14.079 28.8246 14.516 31.0891 13.2281 31.3708C11.4128 31.7674 11.2993 29.3338 12.6713 29.0813Z" fill="#898989"/>
<path d="M56.3897 32.3726C58.2617 31.9447 58.3542 34.3803 56.915 34.6162C55.4758 34.852 55.1291 32.6585 56.3897 32.3726Z" fill="#898989"/>
<path d="M23.6659 38.7905C25.1955 38.705 25.3573 41.4557 23.334 41.0863C22.2393 40.886 22.3213 38.8657 23.6659 38.7905Z" fill="#898989"/>
</g>
<defs>
<clipPath id="clip0_382_2436">
<rect width="67" height="80" fill="white"/>
</clipPath>
</defs>
</svg>
