<svg width="80" height="80" viewBox="0 0 80 80" fill="none" xmlns="http://www.w3.org/2000/svg">
<g clip-path="url(#clip0_382_2444)">
<path d="M43.4455 0L47.8865 0.793154C52.461 1.98288 56.518 4.42079 59.8529 7.73742C60.7524 7.77291 61.6602 7.5454 62.568 7.66855C64.3502 7.91275 65.8758 9.89355 65.9467 11.6364C65.9759 12.3586 65.5732 13.0787 66.0072 13.6047L80 23.9032V68.5869C79.5597 69.1693 79.1006 69.3112 78.366 69.3738H44.9231C44.0403 69.2987 43.2974 69.0753 43.2786 68.0484L43.289 27.0257C42.8529 27.0006 42.4 27.0695 41.9617 27.0257C41.4755 26.9756 39.8727 26.4788 39.7183 26.9735C39.5827 27.4076 39.5931 28.4659 39.4658 29.0649C38.0592 35.7545 33.6078 41.0332 27.347 43.6944L27.3199 50.9789C27.249 51.5613 24.7008 53.6297 24.7008 53.8238C25.2226 54.546 27.2698 56.0008 27.3533 56.8065C27.4597 57.8564 25.2998 59.2444 24.7008 60.0731C25.2226 60.7952 27.2698 62.2501 27.3533 63.0557C27.4597 64.1056 25.2998 65.4936 24.7008 66.3223L27.2844 69.0482C27.443 69.5617 27.4284 72.607 27.2364 73.0787L20.7962 79.6055C20.2849 80.1315 19.5816 80.1315 19.0724 79.6055L12.6906 73.1768L12.507 72.4233L12.5216 43.6944C6.78879 41.292 2.21218 36.2951 0.655333 30.2192C-3.00721 15.9466 9.24719 3.0119 23.6156 5.53955C26.1742 3.1267 29.242 1.41724 32.6666 0.546859L35.6342 0L43.4455 0ZM43.6563 23.492L57.2797 13.6068C57.695 13.0912 57.2797 12.1394 57.3653 11.3463C57.4363 10.693 57.741 10.096 58.0644 9.53872C54.4854 5.24943 48.3352 2.64663 42.7485 2.33772C40.096 2.19161 36.2958 2.177 33.7288 2.70298C31.0012 3.26028 28.6931 4.57316 26.4205 6.09685L26.5206 6.40576C33.1737 8.61824 38.0488 14.4124 39.4679 21.244C39.6724 22.2292 39.6849 23.2457 39.9249 24.2246C40.0919 24.4563 43.1534 24.8341 43.289 24.6859C43.2389 24.2162 43.3412 23.8405 43.6584 23.492H43.6563ZM21.7311 7.65602H17.7472C14.1577 7.65602 8.87363 11.0019 6.58219 13.6756C-4.82283 26.9881 8.22668 47.0257 25.1662 41.9495C38.247 38.0296 41.8094 20.8412 31.4979 11.8702C30.1602 10.7076 26.2618 8.27176 24.5527 8.19244C23.9328 8.16531 22.305 11.0687 21.9023 11.6635L21.9544 11.8785C26.6166 13.8343 25.665 21.1522 20.5625 21.5654C14.477 22.058 12.5842 14.1766 18.1375 11.7971C18.5382 11.626 19.2394 11.6072 19.4647 11.4047C19.6067 11.2774 20.4644 9.48654 20.7252 9.07326C21.0341 8.58276 21.3785 8.11522 21.727 7.65393L21.7311 7.65602ZM61.055 10.0355C59.1976 10.4195 59.2018 13.6402 61.4828 13.7591C64.4754 13.9157 64.2146 9.38218 61.055 10.0355ZM20.6376 19.2152C19.4251 17.7103 18.8428 15.9821 18.6863 14.0618C15.8168 15.7608 17.3528 19.9332 20.6376 19.2152ZM22.5117 17.4974C22.9666 16.3244 22.4157 14.5168 21.1092 14.2183C21.2157 15.3788 21.5078 16.8023 22.5117 17.4974ZM77.6564 24.8424L64.4233 15.3287C63.7993 15.4435 63.3631 15.9445 62.7016 16.0551C61.3701 16.2784 60.0908 16.0781 58.9868 15.3079L45.6326 24.8403V67.0257H77.6564V24.8424ZM25.0118 44.3707C21.7917 45.2786 18.0728 45.2786 14.8589 44.3707V72.1039L19.9364 77.178L24.9325 72.1791C25.0806 71.8535 25.0806 70.167 24.9325 69.8414C24.5339 68.9626 21.8814 67.4327 21.8814 66.3223C21.8814 65.3997 23.985 63.9658 24.5422 63.1977C24.5422 62.991 22.0588 61.0353 21.9169 60.3486C21.6748 59.1818 23.8953 57.848 24.5422 56.9484C23.9829 56.1803 21.8814 54.7443 21.8814 53.8238C21.8814 52.8783 24.4107 51.0561 25.0139 50.2296V44.3707H25.0118Z" fill="#898989"/>
<path d="M70.782 41.0919V51.4822C70.782 51.526 70.2624 51.9957 70.1538 52.1042L53.5127 52.1939C53.2623 52.3192 52.5048 51.5469 52.5048 51.4822V41.0919C51.9809 41.1712 51.5969 41.8057 51.1044 41.9602C49.9232 42.3317 49.0467 41.0021 49.846 40.0733L61.2469 31.0063C61.8792 30.7475 62.3112 31.1712 62.8016 31.4989C66.389 33.8867 69.7949 37.483 73.3656 39.9961C74.2901 40.8811 73.4115 42.3609 72.1823 41.9643C71.7336 41.8203 71.3309 41.119 70.7841 41.094L70.782 41.0919ZM68.4405 38.9044L61.6455 33.6383L54.8505 38.9044V49.8416H58.1311V46.4832C58.1311 46.4227 58.513 45.5294 58.5944 45.3833C59.9217 43.0101 63.3713 43.0101 64.6986 45.3833C64.78 45.5273 65.1619 46.4227 65.1619 46.4832V49.8416H68.4426V38.9044H68.4405ZM62.8162 49.8395V46.7921C62.8162 46.4248 62.0524 45.9239 61.6455 45.9239C61.2385 45.9239 60.4747 46.4248 60.4747 46.7921V49.8395H62.8183H62.8162Z" fill="#898989"/>
<path d="M53.3981 54.5605L70.01 54.5981C70.3376 54.7651 70.7049 55.003 70.778 55.3913C70.8719 55.8943 70.8656 60.4236 70.7488 60.8244C70.6653 61.1103 70.1081 61.5987 69.7742 61.5674L53.2395 61.5278C52.9431 61.3462 52.5738 61.0435 52.507 60.6971C52.3692 59.9728 52.3901 56.3305 52.4965 55.5374C52.5675 55.001 52.9056 54.7442 53.396 54.5626L53.3981 54.5605ZM68.4406 56.8711H54.8506V59.2151H68.4406V56.8711Z" fill="#898989"/>
</g>
<defs>
<clipPath id="clip0_382_2444">
<rect width="80" height="80" fill="white"/>
</clipPath>
</defs>
</svg>
