<svg width="80" height="80" viewBox="0 0 80 80" fill="none" xmlns="http://www.w3.org/2000/svg">
<g clip-path="url(#clip0_382_2448)">
<path d="M46.135 21.3671C47.5751 22.8224 49.5613 22.6936 51.1922 21.6439C52.5823 20.7516 52.9256 18.967 54.8212 20.4438C55.732 21.1524 58.9938 24.378 59.6352 25.2703C60.9991 27.1669 59.0367 27.5916 58.1736 28.9849C56.6405 31.4685 58.1211 34.6464 60.9943 34.9828C62.4774 35.1569 64.094 34.4293 64.2847 36.5121C64.423 38.0151 64.4826 42.4145 64.2346 43.8006C63.9366 45.4683 61.9981 44.8599 60.8131 45.0174C58.474 45.3323 56.9933 47.804 57.7253 50.0418C58.3548 51.9695 61.0658 52.7258 59.64 54.737C59.2275 55.3192 55.1645 59.3941 54.6328 59.7281C52.9089 60.8088 52.4082 59.1889 51.3376 58.3968C48.9294 56.617 45.4244 57.8099 45.0167 60.8232C44.8212 62.2737 45.6104 64.0583 43.4883 64.2945C42.1102 64.4472 37.4964 64.4806 36.2089 64.2468C34.4898 63.9366 35.1574 62.0423 34.9929 60.8232C34.5947 57.8791 31.1827 56.6337 28.7721 58.3181C27.5799 59.1507 27.0363 60.9353 25.1884 59.5611C24.4922 59.0434 20.7177 55.2905 20.2933 54.6392C19.2132 52.9811 20.6104 52.5922 21.4402 51.5162C22.9995 49.4955 22.7253 46.7113 20.3839 45.4396C18.6624 44.5068 15.9919 45.8667 15.7296 43.4881C15.5961 42.2785 15.5413 37.0584 15.7726 36.0206C16.0873 34.6106 17.8064 35.1021 18.8388 34.9804C22.134 34.5963 23.5265 31.2872 21.5189 28.5865C20.5723 27.3149 19.0439 26.9928 20.4602 25.1724C21.2566 24.1489 24.1655 21.2359 25.1908 20.439C27.2938 18.8048 27.8326 21.4673 29.7067 22.1783C32.0911 23.0849 34.6972 21.5174 34.9905 18.9933C35.1645 17.5093 34.4373 15.8917 36.5189 15.7009C38.1951 15.5482 42.0315 15.5148 43.6696 15.7057C45.5627 15.9252 44.845 17.8266 45.0477 19.1483C45.1502 19.8164 45.6629 20.8804 46.1397 21.36L46.135 21.3671ZM42.1459 18.5734H37.8613C37.773 24.4281 30.7916 27.4175 26.5046 23.4093L23.4478 26.3415C27.3248 30.8434 24.609 37.662 18.5885 37.8648V42.1497C24.3825 42.1163 27.4321 49.1853 23.4836 53.401C23.362 53.537 23.412 53.6181 23.4836 53.7565C23.5766 53.9354 26.1469 56.5574 26.3472 56.5717C30.8202 52.6113 37.7277 55.417 37.8613 61.4363H42.1459C42.2079 56.4691 47.3248 53.234 51.8503 55.386C52.2532 55.5768 53.517 56.6385 53.7482 56.5311L56.588 53.642C52.6109 49.2473 55.4292 42.2379 61.4211 42.1473V37.86C56.0491 37.7049 52.9876 32.2821 55.6724 27.5558C55.8655 27.2147 56.6619 26.5633 56.5189 26.2484L53.6314 23.407C49.2585 27.458 42.1817 24.5736 42.1436 18.571L42.1459 18.5734Z" fill="#898989"/>
<path d="M46.7285 67.5628C47.4247 68.1998 47.0409 69.5597 47.1577 70.4377C47.3294 71.7189 48.4452 72.7543 49.7304 72.864H68.4739C68.9817 72.7662 69.1272 71.7809 69.4181 71.3109C72.7252 65.9787 80.9846 69.0611 79.9021 75.3739C79.058 80.2957 72.2006 81.7415 69.554 77.4924C69.2345 76.9771 68.9317 75.8081 68.4715 75.7198L49.7233 75.7294C45.9083 75.455 43.853 72.1483 44.2822 68.4861C44.4252 67.2622 45.8391 66.7517 46.7285 67.5652V67.5628ZM73.6861 71.4779C70.2526 72.103 71.037 77.6905 74.7042 77.1417C78.2926 76.6025 77.5297 70.7812 73.6861 71.4779Z" fill="#898989"/>
<path d="M35.3053 12.4444C34.4899 13.1888 33.0497 12.7713 32.8733 11.6881C32.766 11.0273 32.9376 10.2591 32.847 9.57195C32.6682 8.23591 31.4617 7.1647 30.1026 7.13845L11.5309 7.14322C11.023 7.24343 10.8776 8.22875 10.5867 8.69875C7.32487 13.9546 -0.836793 11.0297 0.0692632 4.7813C0.796493 -0.228838 7.76836 -1.7963 10.4508 2.5172C10.7703 3.03252 11.0731 4.20156 11.5333 4.28983L30.2815 4.28029C33.2715 4.46638 35.4746 6.74957 35.725 9.72702C35.787 10.4571 35.8537 11.9434 35.3053 12.4444ZM5.15033 2.89892C1.66201 3.6075 2.63006 9.10195 6.16845 8.56276C9.86659 7.99972 8.93431 2.1307 5.15033 2.89892Z" fill="#898989"/>
<path d="M73.5122 0.0475467C76.3496 -0.324635 79.032 1.50287 79.752 4.24891C81.4163 10.5975 72.8446 14.2215 69.4182 8.696C69.1273 8.226 68.9819 7.24068 68.474 7.14047L49.9023 7.1357C48.5456 7.16194 47.3391 8.23316 47.1579 9.5692C47.0196 10.6094 47.5823 12.5037 46.1207 12.821C43.4073 13.4127 44.1989 8.87016 44.8736 7.46017C45.7439 5.63982 47.5489 4.48748 49.547 4.27754L68.6266 4.26084C68.877 4.17495 69.2633 2.98206 69.485 2.61942C70.3004 1.29531 71.96 0.247952 73.5146 0.0451609L73.5122 0.0475467ZM73.6862 2.90094C70.2528 3.52601 71.0372 9.11351 74.7044 8.56478C78.2928 8.0256 77.5298 2.20429 73.6862 2.90094Z" fill="#898989"/>
<path d="M33.8863 67.1836C35.8987 66.7447 35.8295 68.9348 35.727 70.2804C35.4933 73.296 33.3021 75.4885 30.2835 75.7271L11.3827 75.7438C10.5172 77.526 9.71602 78.8883 7.74892 79.6088C3.10896 81.3099 -1.2711 76.9033 0.42179 72.2773C2.04554 67.8469 8.10419 67.3029 10.5887 71.311C10.8796 71.781 11.025 72.7664 11.5329 72.8666H30.2763C31.5591 72.7544 32.6774 71.719 32.8491 70.4378C32.9897 69.3976 32.4246 67.5033 33.8863 67.186V67.1836ZM5.14997 71.4757C1.07749 72.3131 3.3021 78.9956 7.1886 76.7268C9.91869 75.1331 8.21387 70.8458 5.14997 71.4757Z" fill="#898989"/>
<path d="M39.7805 25.7472C42.1434 25.3631 41.2158 28.9012 41.5115 30.1896C43.7075 30.8361 45.7318 33.0811 45.727 35.4502C45.7247 37.4757 43.3498 37.5712 42.9374 36.2638C42.6798 35.4478 42.9517 34.911 42.3222 34.0211C40.4934 31.4302 36.3661 33.4891 37.3126 36.5334C38.0542 38.9168 39.9974 38.275 41.7809 38.8476C47.1076 40.5629 46.7905 48.2118 41.5115 49.8174C41.2373 51.0437 42.0218 54.1619 40.0785 54.2883C38.0184 54.4219 38.7266 51.0103 38.4929 49.8174C36.2898 49.147 34.1987 46.766 34.275 44.3778C34.3131 43.1897 35.2693 42.5121 36.3875 42.9964C37.6202 43.5309 36.5926 45.7329 38.686 46.7684C41.4734 48.145 44.1391 44.9385 42.2363 42.5002C41.1562 41.1164 39.6088 41.5984 38.1209 41.083C32.873 39.2603 33.2378 31.7475 38.4905 30.1896C38.8863 28.8344 37.7991 26.0693 39.7781 25.7472H39.7805Z" fill="#898989"/>
</g>
<defs>
<clipPath id="clip0_382_2448">
<rect width="80" height="80" fill="white"/>
</clipPath>
</defs>
</svg>
