<svg width="81" height="80" viewBox="0 0 81 80" fill="none" xmlns="http://www.w3.org/2000/svg">
<g clip-path="url(#clip0_272_957)">
<path d="M56.125 0C57.1417 0.458333 57.8667 1.08333 58 2.26667L58.0167 32.95L71.3167 36.2917C72.475 36.6417 73.1917 37.9417 72.9583 39.1083L60.9667 67.5C61.5583 67.4667 62.175 67.55 62.7583 67.5C65.8417 67.2167 67.2833 64.7 71.3583 65C74.0083 65.1917 75.1333 66.6083 77.2417 67.2417C78.45 67.6083 79.7917 67.1583 80.4917 68.2917V69.225C79.7083 70.575 77.3 69.9417 76.075 69.5C75.1667 69.175 74.375 68.525 73.5167 68.15C68.5833 66 67.0417 69.6833 62.7583 70C59.7333 70.225 58.775 69.2083 56.3333 68.15C51.1833 65.9083 49.1333 70.3083 44.1583 70.0083C39.9917 69.7583 38.2333 66.075 33.4667 68.05C30.825 69.1417 30.1417 70.2333 26.8167 70.0083C23.8417 69.8083 22.2167 67.725 19.6333 67.5083C15.275 67.1417 13.7333 71.0417 8.15 69.775C6.45 69.3917 5.24167 68.2167 3.75 67.7667C2.54167 67.4 1.2 67.85 0.5 66.7167V65.7833C1.05 64.85 1.93333 64.9333 2.9 65.025C6.64167 65.375 8.10833 68.6833 12.575 67.1583C13.5083 66.8417 14.35 66.1417 15.2417 65.7583C16.55 65.2 17.9833 64.925 19.4083 65L8.04167 39.1083C7.80833 37.9417 8.51667 36.6417 9.68333 36.2917L22.7417 33.1L22.9833 32.875L23 2.26667C23.1333 1.08333 23.8583 0.458333 24.875 0L56.125 0ZM55.5 2.5H25.5V7.5H55.5V2.5ZM32.375 10H25.5V32.3417L32.375 30.775V10ZM46.125 10H34.875V30.1583C36.5417 29.9 38.9667 28.775 40.575 28.7417C42.1833 28.7083 44.4833 29.8583 46.125 30V10ZM55.5 10H48.625V30.625L55.5 32.3417V10ZM70.5 38.5917L40.5917 31.2583L10.5 38.6667L22.45 65.625C24.3083 66.7083 25.825 67.65 28.0833 67.5C30.5167 67.3417 31.7333 65.725 33.9333 65.225C39.4583 63.9667 40.9333 67.675 45.1167 67.5C47.45 67.4083 48.3583 66.1667 50.3 65.5C53.1833 64.5083 56.0417 64.9667 58.625 66.4833L70.5 38.5917Z" fill="#898989"/>
<path d="M80.5005 78.2833V80H77.8421C77.2421 79.7333 76.5921 79.6833 75.9671 79.45C74.9921 79.0833 74.1588 78.375 73.1921 78.0083C68.8505 76.325 67.0921 79.2667 63.1505 80H60.8088C60.0421 79.7167 59.2338 79.5917 58.4671 79.2917C57.6005 78.9583 56.8421 78.3333 56.0088 78C51.7505 76.3083 49.8171 79.2 45.9671 79.9917H43.6255C42.9338 79.7417 42.1838 79.6583 41.4838 79.4C39.9005 78.8083 38.8255 77.7 36.9671 77.5167C33.6505 77.1833 31.9755 79.3917 28.9421 80H26.2838C25.5088 79.7583 24.7005 79.6083 23.9421 79.2917C23.1171 78.95 22.4171 78.3167 21.6421 78C17.4338 76.275 15.5005 79.0917 11.7588 80H9.10046C8.32546 79.7583 7.51712 79.6083 6.75879 79.2917C5.73379 78.875 4.80879 78.075 3.75879 77.7667C2.55046 77.4 1.20879 77.85 0.508789 76.7167V75.7833C1.05879 74.85 1.94212 74.9333 2.90879 75.025C6.02546 75.3167 7.45879 77.7333 10.9005 77.5083C13.1921 77.3583 14.6171 75.7167 16.7505 75.2333C22.3005 73.975 23.8171 77.7917 28.0921 77.5083C30.7755 77.3333 32.3671 75.2417 35.2755 75.0083C38.5005 74.7417 39.2838 75.7 41.8505 76.8583C46.8671 79.1333 49.1255 74.7167 54.0255 75C57.0171 75.175 58.7588 77.225 61.2255 77.4917C65.8505 77.9917 67.5921 73.4917 73.6755 75.5167C74.9588 75.9417 76.0588 76.8833 77.2588 77.2417C78.4588 77.6 79.8088 77.1583 80.5088 78.2917L80.5005 78.2833Z" fill="#898989"/>
<path d="M80.5005 73.2834V74.2167C79.7171 75.5667 77.3088 74.9334 76.0838 74.4917C75.1755 74.1667 74.3838 73.5167 73.5255 73.1417C68.5921 70.9917 67.0505 74.675 62.7671 74.9917C59.7421 75.2167 58.7838 74.2 56.3421 73.1417C51.1921 70.9 49.1421 75.3 44.1671 75C40.0005 74.75 38.2421 71.0667 33.4755 73.0417C30.8338 74.1334 30.1505 75.225 26.8255 75C23.8505 74.8 22.2255 72.7167 19.6421 72.5C15.2838 72.1334 13.7421 76.0334 8.15879 74.7667C6.45879 74.3834 5.25046 73.2084 3.75879 72.7584C2.55046 72.3917 1.20879 72.8417 0.508789 71.7084V70.775C1.05879 69.8417 1.94212 69.925 2.90879 70.0167C6.02546 70.3084 7.45879 72.725 10.9005 72.5C13.1921 72.35 14.6171 70.7084 16.7505 70.225C22.3005 68.9667 23.8171 72.7834 28.0921 72.5C30.7755 72.325 32.3671 70.2334 35.2755 70C38.5005 69.7334 39.2838 70.6917 41.8505 71.85C46.8671 74.125 49.1255 69.7084 54.0255 69.9917C57.0171 70.1667 58.7588 72.2167 61.2255 72.4834C65.8505 72.9834 67.5921 68.4834 73.6755 70.5084C74.9588 70.9334 76.0588 71.875 77.2588 72.2334C78.4588 72.5917 79.8088 72.15 80.5088 73.2834H80.5005Z" fill="#898989"/>
<path d="M80.5005 63.2833V64.2166C79.9505 65.15 79.0671 65.0666 78.1005 64.975C75.0671 64.6916 73.4171 62.2583 70.1088 62.4916C68.0671 62.6333 66.7421 63.9583 64.8838 64.525C65.4671 63.7833 65.9005 61.5833 66.4505 61.0166C67.5588 59.875 71.3838 59.8916 72.8588 60.225C74.5338 60.6083 75.6838 61.725 77.1421 62.1916C78.3921 62.5916 79.7838 62.1416 80.5088 63.275L80.5005 63.2833Z" fill="#898989"/>
<path d="M0.5 60.7833C1.3 59.4083 3.775 60.0833 5.03333 60.55C6.125 60.9583 7.14167 61.85 8.23333 62.2C10.6417 62.9667 12.8667 62.3167 14.8833 60.9417L15.8083 63.1917C13.2833 65.2083 9.84167 65.5083 6.875 64.3417C5.80833 63.925 4.84167 63.0917 3.75833 62.7667C2.55 62.4 1.20833 62.85 0.508333 61.7167V60.7833H0.5Z" fill="#898989"/>
<path d="M20.5 11.25V13.75H14.875V23.125H20.5V25.625H14.875V32.5L12.375 32.9667V13.2C12.375 12.575 13.7083 11.25 14.325 11.25H20.5Z" fill="#898989"/>
<path d="M68.625 32.9667L66.125 32.2667V25.625H60.5V23.125H66.125V13.75H60.5V11.25H66.675C67.3 11.25 68.625 12.5833 68.625 13.2V32.9667Z" fill="#898989"/>
<path d="M39.8337 37.0667C40.4587 36.975 41.1587 37.0167 41.792 37.0667L59.8754 41.95C61.3504 42.5917 60.617 44.725 59.0587 44.3333L40.7337 39.5167L22.4087 44.3333C20.9087 44.7583 20.1504 42.6417 21.4837 41.9917L39.8337 37.0667Z" fill="#898989"/>
<path d="M39.8337 55.0418C44.9587 54.2251 45.8171 61.8918 41.0337 62.4918C36.2504 63.0918 35.2171 55.7751 39.8337 55.0418ZM40.1421 57.5334C38.7004 57.8501 39.0171 60.3751 40.8504 59.9751C42.2921 59.6584 41.9754 57.1334 40.1421 57.5334Z" fill="#898989"/>
<path d="M34.3586 45.0333L46.5002 45.0083C47.9336 45.2333 47.9836 47.3083 46.3586 47.5C42.7086 47.925 38.2252 47.1833 34.4919 47.4916C33.1252 47.275 33.0586 45.4 34.3586 45.0333Z" fill="#898989"/>
<path d="M34.3586 50.0333L46.5002 50.0083C47.9336 50.2333 47.9836 52.3083 46.3586 52.5C42.7086 52.925 38.2252 52.1833 34.4919 52.4916C33.1252 52.275 33.0586 50.4 34.3586 50.0333Z" fill="#898989"/>
</g>
<defs>
<clipPath id="clip0_272_957">
<rect width="80" height="80" fill="white" transform="translate(0.5)"/>
</clipPath>
</defs>
</svg>
