<svg width="101" height="100" viewBox="0 0 101 100" fill="none" xmlns="http://www.w3.org/2000/svg">
<g clip-path="url(#clip0_330_3166)">
<path d="M35.1555 0C41.5655 3.61 32.5855 8.42 30.2855 11.6V28.07H43.4455C44.2155 28.07 45.8855 29.72 45.8855 30.51V35.87H49.4955C49.9055 35.87 50.4855 36.71 50.5555 37.15C50.7355 38.27 50.7355 42.83 50.5555 43.95C50.3155 45.49 48.7555 45.22 47.5755 45.26L47.2855 45.55L46.4755 59.27H68.9855C73.1855 59.27 78.6355 64.72 78.6355 68.92V71.75C83.6655 70.66 85.3755 77.27 80.1955 77.99C82.8055 80.96 81.9955 84.91 78.6655 86.89C78.9255 90.63 77.9455 93.87 75.5155 96.7H93.5455C93.6555 96.7 94.8255 96.17 95.0355 96.05C96.3755 95.24 97.3955 93.63 97.3455 92.03H82.8255C81.4655 92.03 81.4655 88.91 82.8255 88.91H97.3455V28.75C97.3455 27.29 94.7155 24.88 93.1555 24.95H61.1755C58.9755 25.12 57.2155 26.83 56.8155 28.96V54.68C56.6055 56.65 53.8655 56.65 53.6755 54.68C54.2255 46.38 52.9455 37.14 53.6755 28.95C54.0155 25.12 57.1655 22.13 60.9755 21.82C71.4155 21 82.9555 22.43 93.5155 21.85C97.1355 22.33 99.6855 24.93 100.456 28.45V93.17C99.6655 96.76 97.0355 99.38 93.3355 99.79C76.8555 99.43 60.2955 100.28 43.8155 99.8C42.2055 99.75 41.5355 99.74 39.9355 99.8C30.3855 100.13 20.6455 99.53 11.0655 99.8C8.66551 99.58 6.96551 97.74 6.68551 95.4C6.10551 90.5 6.19551 84.99 5.90551 80C5.27551 69.43 4.62551 58.79 3.95551 48.22C3.91551 47.58 4.18551 45.41 3.63551 45.23C2.44551 45.19 0.895508 45.46 0.655508 43.92C0.475508 42.8 0.475508 38.24 0.655508 37.12C0.725508 36.68 1.30551 35.84 1.71551 35.84H5.32551V30.48C5.32551 29.7 6.98551 28.04 7.76551 28.04H22.4855V8.87C22.6355 8.57 22.8655 8.34 23.0655 8.09C24.3955 6.4 28.5755 2.25 30.2755 0.88C30.7355 0.51 31.2355 0.4 31.6455 0.01H35.1555V0ZM25.6055 10.04V28.07H27.1655V10.43L34.1855 3.12L32.3255 3.3L25.6155 10.04H25.6055ZM42.7655 31.19H8.45551V35.87H12.0655C13.4255 35.87 13.4255 38.99 12.0655 38.99H3.77551V42.11H47.4355V38.99H17.3155C15.9555 38.99 15.9555 35.87 17.3155 35.87H42.7555V31.19H42.7655ZM44.3155 45.22H7.08551L9.80551 95.03C9.70551 95.49 10.5155 96.68 10.8855 96.68H36.5155C36.0755 95.84 35.4155 95.3 34.9255 94.47C33.5155 92.08 33.2955 89.6 33.3655 86.87C30.0255 84.87 29.2455 80.99 31.8355 77.97C26.6555 77.25 28.3655 70.64 33.3955 71.73V68.9C33.3955 67.07 35.2855 63.64 36.6055 62.36C38.5155 60.5 40.8455 59.8 43.3555 59.12L44.3155 45.21V45.22ZM75.5055 71.73C76.0455 67.02 73.0555 62.75 68.2055 62.37C60.3055 62.8 51.8555 61.82 44.0155 62.37C38.9955 62.72 36.0155 66.86 36.5155 71.74H41.6855C43.0455 71.74 43.0455 74.86 41.6855 74.86H33.5955C33.6855 75.17 34.2155 75.15 34.5555 75.36C35.5955 75.99 38.3855 78.54 39.1855 78.72C40.7555 79.08 41.3255 77.68 42.6955 77.44C43.8855 77.24 45.1655 77.33 46.2355 77.9C46.9255 78.27 47.5055 79.12 48.3055 79.12C49.4055 79.12 52.8755 77.49 54.2955 77.14C55.7155 76.79 56.6555 76.68 58.0855 77.36C58.8055 77.7 59.7255 78.87 60.2055 78.95C61.7955 79.24 65.1455 76.84 67.2155 76.79C69.6755 76.74 71.1155 79.02 72.6655 78.75C73.5355 78.6 76.3955 75.91 77.3755 75.27C77.6855 75.07 78.2155 75.19 78.2255 74.86H46.9355C45.5755 74.86 45.5755 71.74 46.9355 71.74H75.4955L75.5055 71.73ZM35.2555 84.21H61.4755V82.06C59.0855 82.52 57.8855 80.91 56.0655 79.96C52.9055 80.44 49.4355 83.17 46.2655 81.77C45.0755 81.25 44.8355 80.13 43.2955 80.55C42.9355 80.65 42.4155 81.18 41.9855 81.39C40.6055 82.05 39.0155 82.11 37.6255 81.45C36.2355 80.79 34.9355 78.53 33.7055 80.72C32.9555 82.06 33.8055 83.96 35.2455 84.21H35.2555ZM77.0655 79.73V83.34C77.0655 83.44 76.7555 83.75 76.8755 84.02C79.0955 83.6 79.2455 80.48 77.0655 79.73ZM69.4655 80.9C67.6555 79.53 66.4055 79.85 64.6155 81.02C64.8355 83.51 64.2255 86.78 64.6055 89.17C64.8555 90.79 67.1855 90.88 67.6255 89.48C68.1855 87.7 67.3155 84.15 67.7555 82.2C67.8255 81.89 68.0455 81.56 68.3055 81.38C68.7455 81.07 69.2855 81.24 69.4655 80.89V80.9ZM73.9455 81.68C72.8655 81.98 71.7055 81.97 70.6355 81.68C70.5555 85.08 74.3855 85.14 73.9455 81.68ZM61.4755 87.33H36.5255C35.9855 92.04 38.9755 96.31 43.8255 96.69C51.7255 96.26 60.1755 97.24 68.0155 96.69C73.0355 96.34 76.0155 92.2 75.5155 87.32H70.8355C71.7755 95.59 60.5455 95.59 61.4755 87.32V87.33Z" fill="#898989"/>
<path d="M71.9449 28.11L82.0249 28.08C83.7549 28.35 83.7449 30.91 82.0249 31.18C80.4849 31.42 73.6449 31.42 72.1049 31.18C70.4649 30.92 70.3549 28.58 71.9449 28.11Z" fill="#898989"/>
<path d="M40.7554 65.5399C41.8854 65.2899 44.1254 65.2699 44.3154 66.7799C44.5654 68.7599 42.3754 68.8299 40.9154 68.5999C39.2354 68.3399 39.2154 65.8799 40.7554 65.5299V65.5399Z" fill="#898989"/>
<path d="M50.1148 65.5399C51.2448 65.2899 53.4848 65.2699 53.6748 66.7799C53.9248 68.7599 51.7348 68.8299 50.2748 68.5999C48.5948 68.3399 48.5748 65.8799 50.1148 65.5299V65.5399Z" fill="#898989"/>
<path d="M59.4654 65.5399C60.5954 65.2899 62.8354 65.2699 63.0254 66.7799C63.2754 68.7599 61.0854 68.8299 59.6254 68.5999C57.9454 68.3399 57.9254 65.8799 59.4654 65.5299V65.5399Z" fill="#898989"/>
<path d="M68.8247 65.5399C69.9547 65.2899 72.1947 65.2699 72.3847 66.7799C72.6347 68.7599 70.4447 68.8299 68.9847 68.5999C67.3047 68.3399 67.2847 65.8799 68.8247 65.5299V65.5399Z" fill="#898989"/>
</g>
<defs>
<clipPath id="clip0_330_3166">
<rect width="99.93" height="99.96" fill="white" transform="translate(0.535156)"/>
</clipPath>
</defs>
</svg>
