<svg width="95" height="80" viewBox="0 0 95 80" fill="none" xmlns="http://www.w3.org/2000/svg">
<g clip-path="url(#clip0_330_2669)">
<path d="M60.3545 62.879C63.6491 63.165 67.5721 62.4977 70.7905 62.879C71.3047 62.9362 71.6284 63.2222 72.1426 63.2794C73.0758 63.3938 74.1993 63.184 75.1706 63.2794C74.6183 62.7265 74.1041 61.3537 73.628 60.8771C73.3424 60.6102 73.0186 60.6483 72.5616 60.1335C71.3809 58.7989 67.6292 53.1745 66.8865 51.573C62.716 42.4595 74.8468 34.2994 81.7788 43.5082C83.8545 46.2727 85.3209 49.3613 87.111 52.2212C90.3104 57.3499 97.6803 64.3661 93.0146 70.4862C92.6528 70.9629 91.6625 71.6683 91.4911 72.0687C91.2816 72.5263 91.3006 73.2508 91.0912 73.8037C87.8537 82.3261 79.0936 78.6655 72.1807 79.4662C68.6195 79.8857 64.1062 80.1907 60.4878 79.8666C59.5737 79.7903 58.2026 79.0849 57.7646 79.0849C57.2504 79.0849 56.0126 80.0573 55.2318 79.8666H5.27998C2.70908 79.39 0.690438 77.3499 0.5 74.6998V5.20501C1.03323 1.77317 3.56605 0.247905 6.84157 0.0191156H53.8416C56.2792 -0.305003 60.3545 2.21168 60.3545 4.80463V62.8599V62.879ZM54.889 77.1211C54.6414 76.4348 54.1082 75.8819 53.7844 75.2145C51.8229 71.1154 53.0989 67.2641 56.3553 64.4424C56.8314 64.042 57.6694 64.0039 57.6313 63.184L57.4789 5.33847C57.1361 4.02293 55.9935 2.99338 54.6033 2.95525H6.44165C4.49919 2.89805 3.18517 4.49957 3.22326 6.36802C3.35656 29.2088 2.97569 52.0878 3.4137 74.8904C3.56605 75.8247 4.95624 77.1211 5.8513 77.1211H54.8699H54.889ZM83.3404 51.3442C83.4546 51.1917 83.207 50.8675 83.1118 50.715C82.331 49.2088 78.9222 44.1373 77.6844 43.2794C74.1613 40.8199 69.1528 43.2412 68.9242 47.5501C68.7147 51.1154 72.6568 54.2994 74.0089 57.4071L83.3594 51.3442H83.3404ZM84.9019 53.9181L76.1799 59.6187L78.5413 63.2222C83.626 63.0124 88.5583 62.9934 90.8817 68.3318C91.91 66.94 91.9481 65.2241 91.2816 63.6416L84.921 53.899L84.9019 53.9181ZM69.3241 65.6054H60.8497C55.8031 65.6054 53.575 73.7084 58.6787 76.3776C59.0215 76.5492 60.3926 77.1211 60.6592 77.1211H69.3432V65.6054H69.3241ZM72.0474 66.1964V76.4348L72.3331 76.7207H83.6451C83.9307 76.7207 85.2257 76.2632 85.5685 76.1106C89.3201 74.4138 89.5867 68.9991 86.0636 66.8828C85.816 66.7303 84.7686 66.1774 84.6163 66.1774H72.0474V66.1964Z" fill="#898989"/>
<path d="M29.4082 71.611C29.1607 71.3823 28.9512 70.5624 28.9512 70.2002L29.0464 9.18969C29.6177 7.83602 31.2174 7.83602 31.7887 9.18969L31.7316 71.02C31.3697 71.9161 30.0938 72.2593 29.3892 71.611H29.4082Z" fill="#898989"/>
<path d="M49.9564 8.5033C56.717 15.2717 46.3381 25.6816 39.5585 18.9132C32.779 12.1449 43.1197 1.67775 49.9564 8.5033ZM43.9195 9.24686C38.4921 10.1048 39.4824 18.551 45.0241 18.1696C51.08 17.7311 50.223 8.25544 43.9195 9.24686Z" fill="#898989"/>
<path d="M44.5291 23.8894C54.489 23.5844 54.5842 39.5806 43.6912 38.4748C35.2548 37.6359 35.4071 24.1564 44.5291 23.8894ZM43.9197 26.8256C38.4922 27.7407 39.4254 36.2822 45.2147 35.7293C51.004 35.1764 50.0518 25.796 43.9197 26.8256Z" fill="#898989"/>
<path d="M43.3488 59.2183C54.3561 57.7121 54.6988 73.6893 44.8342 73.7846C35.6741 73.8799 35.0647 60.3432 43.3488 59.2183ZM44.1296 61.9447C38.3974 62.6502 39.4258 71.6492 45.4245 70.8485C50.9663 70.1049 50.1283 61.2012 44.1296 61.9447Z" fill="#898989"/>
<path d="M10.917 54.0324C4.51828 47.6263 13.5641 37.4261 20.5912 43.0696C28.7229 49.5901 18.0393 61.163 10.917 54.0324ZM15.4684 44.3851C9.184 45.1859 11.3169 55.367 17.7918 52.9647C22.4956 51.2107 20.8007 43.7178 15.4684 44.3851Z" fill="#898989"/>
<path d="M43.3484 41.6587C54.4128 40.1525 54.6985 56.2822 44.6624 56.2059C35.6167 56.1297 35.1596 42.7836 43.3484 41.6587ZM44.1292 44.3851C38.4923 45.1478 39.3873 53.6892 45.0433 53.3079C51.0231 52.9075 50.2042 43.5653 44.1292 44.3851Z" fill="#898989"/>
<path d="M15.8681 23.8895C21.905 23.6988 25.6756 30.8485 21.943 35.6531C18.9722 39.4853 13.3734 39.5425 10.3454 35.7484C6.63186 31.1154 10.0026 24.0611 15.8681 23.8895ZM15.4682 26.8256C9.90739 27.531 10.7072 36.0725 16.3823 35.7484C22.0573 35.4243 21.7145 26.0248 15.4682 26.8256Z" fill="#898989"/>
<path d="M15.8685 6.32989C25.257 6.0439 25.8284 20.0191 17.1634 20.9152C6.57512 22.002 6.15615 6.61588 15.8685 6.32989ZM15.2781 9.24695C9.92682 10.1049 10.8219 18.5511 16.3827 18.1697C22.5147 17.7312 21.5816 8.25553 15.2781 9.24695Z" fill="#898989"/>
<path d="M14.688 59.2183C26.7427 57.5786 25.5811 75.9199 14.4976 73.5558C6.67062 71.897 7.3181 60.2097 14.688 59.2183ZM15.4688 61.9447C9.75571 62.6692 10.8031 71.6492 16.7638 70.8484C22.3817 70.0858 21.4486 61.1821 15.4688 61.9447Z" fill="#898989"/>
</g>
<defs>
<clipPath id="clip0_330_2669">
<rect width="94" height="80" fill="white" transform="translate(0.5)"/>
</clipPath>
</defs>
</svg>
