<svg width="93" height="80" viewBox="0 0 93 80" fill="none" xmlns="http://www.w3.org/2000/svg">
<g clip-path="url(#clip0_330_2212)">
<path d="M0.529249 64.3855C0.529249 64.3608 0.700407 64.1816 0.716172 63.953C0.785986 62.9356 0.46619 61.8062 1.0675 60.8964L9.8101 52.2443C10.9969 51.4891 12.2356 52.8852 11.5735 53.9922L3.22725 62.5076V68.8583H9.60966C9.84388 68.8583 10.7853 67.9351 10.9114 67.6482C11.578 66.1356 11.2424 62.7922 12.4586 61.5844C13.535 60.5132 17.7577 60.502 17.9919 60.1681C18.5459 58.7048 18.3207 55.8947 19.3319 54.7384C20.4917 53.4118 24.2325 53.7681 25.7909 52.9367L39.8732 38.8572L39.8777 38.4628C37.3711 37.0398 35.1956 34.8751 33.7678 32.381L33.3714 32.3855L16.9897 48.6499C15.6588 49.4185 14.3908 47.7715 15.3547 46.6645L32.0855 30.0258C32.3152 29.5171 31.5472 28.2869 31.3671 27.6998C28.4596 18.2028 31.7454 8.38771 40.2718 3.11937C53.9037 -5.29968 72.0285 4.29584 72.4316 20.2824C72.4744 21.9541 71.7312 24.7283 71.9001 25.9922C71.9857 26.6353 73.1906 28.8695 73.5149 29.7614C74.8414 33.4163 75.544 37.2751 75.526 41.1787C77.8276 43.8185 80.8814 45.8353 83.0029 48.5894C83.3047 49.6695 82.1764 50.6846 81.1359 50.0841C79.7306 49.181 72.2807 41.367 71.443 41.3647L66.673 45.5037L66.5019 45.9541L67.745 46.4852C69.1503 43.2 73.9248 43.321 75.285 46.6084C77.188 51.209 70.9227 54.6353 68.0401 50.5995C67.7766 50.232 67.5626 49.4409 67.3509 49.2281C67.1122 48.9883 66.369 48.865 66.0199 48.6745C65.6461 48.4706 65.011 47.8992 64.7047 47.8163C64.0494 47.6393 63.3287 49.3154 61.9346 48.4437C61.8063 48.3631 61.4662 47.9328 61.4662 47.8365V44.5266H58.7705V52.6678C58.7705 52.7126 58.3921 53.358 58.3088 53.4611C57.4417 54.5098 55.5905 55.8723 54.541 56.8695C53.3812 57.9698 52.4263 58.3799 53.656 59.9059C54.6334 61.1205 56.077 58.1894 57.1062 57.9788C57.712 57.8533 58.7727 58.3709 58.7727 58.9311V77.0914H66.1438V63.404C66.1438 62.846 67.468 61.6897 68.0716 61.5664C69.013 61.3759 75.1499 61.4028 75.9989 61.6449C76.6047 61.8174 77.8276 63.0477 77.8276 63.581V77.0891H84.1199V59.1082C84.1199 59.0566 84.5659 58.3037 84.665 58.2208C85.9284 57.1451 87.5972 59.5989 88.5588 60.2533C89.0835 60.4056 89.8538 59.1059 89.8763 58.7362C89.9303 57.7726 86.4576 55.7849 86.5499 54.5233C86.6085 53.7255 87.3224 53.1631 88.1219 53.3244C88.5813 53.4163 91.473 56.0852 91.8491 56.6051C94.0629 59.6617 90.2096 64.6185 86.8157 62.2409V78.0751C86.8157 78.6017 85.2708 79.9306 84.5681 79.7759C76.1971 79.2449 66.9433 80.4841 58.6759 79.7827C57.5543 79.6863 56.0747 79.0365 56.0747 77.7188V62.4202C53.6807 63.5653 51.6899 62.4785 50.7283 60.1367C50.0999 58.604 50.2959 57.6157 51.3093 56.3339L55.9869 52.0426C56.7503 48.6835 54.1064 41.8264 59.4889 41.8421C59.5722 41.7726 59.1308 40.5939 58.7164 40.6185C58.0475 40.6589 56.1963 41.4566 55.2167 41.6157C52.3453 42.0841 49.3815 42.0281 46.5439 41.3984C45.1408 41.0869 43.8391 40.5311 42.4924 40.0628L26.944 55.3435L21.2845 56.688C20.8814 58.0908 20.994 60.4975 20.2035 61.6942C19.1337 63.3121 16.0686 62.8661 14.4111 63.5339C14.0463 63.897 13.8076 67.8185 13.3301 68.809C12.9923 69.5082 11.1028 71.2381 10.3101 71.3479C8.66153 71.5788 4.17763 71.7737 2.60792 71.5317C1.60575 71.3771 1.03146 70.521 0.529249 69.7547C0.599063 67.9754 0.436913 66.1647 0.529249 64.3877V64.3855ZM60.0316 37.0107C72.9181 30.4807 72.9676 11.7984 60.2141 4.88967C46.724 -2.41789 30.8401 8.78659 33.1147 23.8096C34.8398 35.1978 46.8254 42.1132 57.694 38.2589C55.7977 33.0779 54.2303 27.4421 55.5207 21.9115C53.5231 21.0196 51.6178 19.5922 50.7756 17.5014C47.9199 10.4247 56.3833 4.06054 62.3513 8.84262C67.6257 13.0689 64.9592 21.6 58.2502 21.9967C56.8539 27.023 58.311 32.2622 60.0316 37.0084V37.0107ZM62.1621 16.5894C64.5426 10.9513 56.3134 7.05662 53.4578 12.3093C52.1448 14.7272 53.3159 18.5524 56.0725 19.2224C56.8134 19.4017 57.3044 18.2544 57.8696 17.7748C59.1871 16.6544 60.4685 16.5289 62.1621 16.5894ZM72.792 38.9782C72.6771 36.3922 72.1028 33.5933 71.2245 31.1463C71.1682 30.9872 70.6682 29.5171 70.4588 29.674C68.6706 33.9496 65.1822 37.1877 61.3086 39.6034C61.8265 40.1681 63.9615 44.0852 64.5899 43.9731C65.5267 43.1776 66.3104 42.2118 67.218 41.3894C68.8328 39.9283 70.3259 38.0661 72.792 38.9759V38.9782ZM72.5487 49.293C72.7987 49.0443 73.1433 48.4325 72.882 48.1054L70.6345 49.4454C71.1457 49.9631 72.0871 49.7524 72.5465 49.293H72.5487ZM75.1296 64.0269H68.9274L68.6571 64.2958V77.0891H75.1274V64.0269H75.1296Z" fill="#898989"/>
</g>
<defs>
<clipPath id="clip0_330_2212">
<rect width="92" height="80" fill="white" transform="translate(0.5)"/>
</clipPath>
</defs>
</svg>
