<svg width="167" height="80" viewBox="0 0 167 80" fill="none" xmlns="http://www.w3.org/2000/svg">
<path d="M17.0005 45.1681C17.8148 43.1915 19.7239 42.9565 21.6677 43.0982V28.4842C21.6677 28.3149 22.8423 26.5318 23.0952 26.2864C25.5864 23.8917 30.4649 25.54 33.5937 24.8592C39.1825 17.1462 48.0559 11.1299 57.411 9.03582C65.3525 7.25616 79.1841 7.86781 87.0251 10.1209C97.1597 13.0306 104.096 19.7933 111.411 26.9292L116.954 26.829C118.663 27.4026 123.163 26.5836 124.238 28.1041C124.899 29.0406 124.726 30.3365 123.697 30.9135C122.457 31.6081 117.904 30.6613 116.206 30.6613C99.3391 30.6647 82.5346 30.2743 65.6192 29.6626C60.6437 29.4829 55.2524 29.4656 50.3185 29.1443C47.907 28.9888 45.5197 28.8091 44.7401 26.1724C43.6452 22.4645 47.7372 20.2045 49.9339 17.8788L55.7687 13.6111C51.9262 14.634 48.2327 16.6244 45.0381 18.9466C43.5482 20.0282 41.4797 21.6351 40.2011 22.9172C39.3211 23.7984 35.6518 28.8782 35.0247 28.8782H29.966C31.1718 31.3144 34.3837 34.0409 34.6435 36.7571C35.2915 43.5301 31.241 44.0312 25.5552 43.62C25.9294 47.2277 23.802 47.1655 20.8881 46.9858V51.6405H37.0966C41.4831 45.2891 50.7481 44.1176 56.5414 49.3218C57.5254 50.2065 58.0486 51.682 59.386 51.6578L114.127 51.644C114.55 51.5645 116.078 49.5913 116.726 49.0592C122.768 44.1107 131.385 45.4411 135.914 51.6405H145.9V49.8298H141.621C140.664 49.8298 137.151 48.3058 136.219 47.7149C133.056 45.7037 130.717 41.011 135.204 39.0343C135.599 38.8581 137.955 38.1912 138.249 38.1912H142.788C141.506 36.8746 139.251 36.0279 137.518 35.2988C135.27 34.3519 132.952 33.5813 130.616 32.8694C128.828 31.8189 129.487 29.1339 131.503 29.127C132.304 29.127 135.46 30.3261 136.441 30.6855C142.466 32.8833 149.122 35.7273 149.787 42.9807C150.054 45.8869 150.179 57.3597 149.458 59.7164C147.677 65.5634 141.863 64.5474 136.992 64.6165C135.443 67.0251 133.977 69.0225 131.379 70.4013C124.591 73.9986 116.698 71.2998 113.306 64.5647H75.4975C73.8864 64.347 73.2731 62.4049 74.3853 61.2853C74.4477 61.2231 75.4178 60.6978 75.4802 60.6978H112.18L112.44 55.5247H60.3146C60.8135 57.2214 60.9244 58.9354 60.8308 60.6978C61.0595 60.9259 66.1979 60.4594 67.3309 60.8119C69.1222 61.3717 69.0044 64.2226 67.1819 64.5716C65.0753 64.9725 61.9361 64.2502 59.7082 64.6165C58.8282 65.6498 58.2634 66.9422 57.3348 67.9409C52.1063 73.5598 42.8032 73.2453 37.8762 67.426C36.8853 66.2545 36.3794 64.7686 35.3504 63.7353L19.0101 60.373L16.9971 58.6279V45.1785L17.0005 45.1681ZM76.3672 12.3429C72.4485 11.8522 68.9212 12.4915 65.1861 13.6837C58.6584 15.7674 52.8028 19.8105 48.3816 24.9871L76.3672 25.9996C77.4933 21.5176 77.3824 16.8387 76.3672 12.3429ZM105.701 27.057C99.0204 19.9038 90.6597 13.6871 80.5423 12.8336C80.7537 15.4944 81.1903 18.0482 81.0725 20.7367C81.0032 22.3366 80.5735 23.94 80.3829 25.5055C80.3518 25.775 80.2097 25.9547 80.5285 26.1655L105.697 27.0605L105.701 27.057ZM25.5587 39.7358H30.3575C31.0436 39.0274 30.7872 37.5726 30.607 36.643L25.5587 29.6488V39.7358ZM145.64 42.0615H138.509C138.267 42.0615 137.054 42.4312 136.822 42.7146C136.576 43.9137 141.174 45.9422 142.14 45.9422H145.9L145.64 42.0615ZM54.258 65.5115C62.9929 56.9484 49.4072 43.8619 41.1159 52.7913C32.8245 61.7207 45.8627 73.7394 54.258 65.5115ZM131.545 65.5115C140.28 56.9484 126.694 43.8619 118.403 52.7913C110.423 61.382 123.15 73.7394 131.545 65.5115ZM35.1563 55.5143H20.8916L20.9158 56.7826L34.7613 59.6577L35.1529 55.5143H35.1563ZM145.9 55.5143H137.601C138.1 57.2111 138.211 58.9251 138.118 60.6874C142.587 60.7946 146.648 61.503 145.9 55.5143Z" fill="#898989"/>
<path d="M53.5643 33.105C54.2161 32.9767 55.5 32.9698 56.1598 33.0634C59.3594 33.5312 58.2465 37.7521 53.8584 36.8823C51.6525 36.4456 51.2272 33.5589 53.5643 33.105Z" fill="#898989"/>
<path d="M83.2523 33.111C83.7805 32.9901 84.927 32.9694 85.4652 33.0419C88.0558 33.3978 87.3338 37.7825 83.503 36.8772C81.688 36.4487 81.4038 33.5291 83.2557 33.1076L83.2523 33.111Z" fill="#898989"/>
<path d="M47.0239 53.0821C56.0741 51.8136 56.4157 65.6693 47.4584 64.9747C40.398 64.4269 40.1095 54.0506 47.0239 53.0821ZM46.417 57.2431C44.3709 59.1083 46.8117 62.516 49.3088 60.941C52.0912 59.1833 48.8645 55.0093 46.417 57.2431Z" fill="#898989"/>
<path d="M124.019 53.0813C133.013 51.8193 133.477 65.6723 124.453 64.9745C117.4 64.4266 117.111 54.0499 124.019 53.0813ZM123.413 57.2425C121.368 59.1078 123.807 62.5156 126.301 60.9405C129.081 59.1828 125.857 55.0086 123.413 57.2425Z" fill="#898989"/>
</svg>
