<svg width="81" height="80" viewBox="0 0 81 80" fill="none" xmlns="http://www.w3.org/2000/svg">
<g clip-path="url(#clip0_331_5109)">
<path d="M42.096 12.6102V16.0531C43.4606 16.3237 44.8392 16.4334 46.1991 16.7529C49.8753 17.6207 53.2133 19.5008 56.1291 21.8451L58.814 19.2698C57.4424 16.1511 58.0162 12.3886 61.051 10.5201C66.9432 6.89288 73.6192 13.6435 69.9103 19.5544C68.0582 22.5029 64.0787 23.121 61.1046 21.5721L58.5317 24.194C61.7531 28.1362 64.0437 32.9764 64.2747 38.1408C64.4566 38.7053 67.2534 38.3275 67.8973 38.4068C69.3668 32.2579 78.2635 32.0154 80.1482 37.9799C82.7515 46.2141 70.2299 50.0163 67.8973 41.5885L64.4496 41.5931C64.1767 43.0044 64.0554 44.4296 63.7125 45.8339C61.6668 54.2104 54.7179 61.1616 46.3391 63.2073C44.9348 63.5502 43.5096 63.6715 42.0983 63.9444V67.3874C48.2098 68.878 48.4897 77.756 42.5205 79.6431C34.2863 82.2463 30.4795 69.734 38.9073 67.3874V63.9444C37.5427 63.6739 36.1641 63.5642 34.8042 63.2446C31.1443 62.3816 27.643 60.4758 24.7949 58.0522L22.1916 60.5551C22.0587 61.0403 22.7655 62.1436 22.8494 62.8014C23.5212 67.9286 18.9959 71.8777 14.0694 70.0093C7.32809 67.4527 9.46712 56.571 17.699 57.651C18.3568 57.7373 19.4601 58.4418 19.9453 58.3088L22.4482 55.7056C20.0339 52.8574 18.1025 49.3608 17.2558 45.6962C16.9409 44.3363 16.8219 42.9601 16.556 41.5955H13.113C11.6225 47.707 2.74447 47.9869 0.857368 42.0177C-1.74585 33.7835 10.7664 29.9766 13.113 38.4044L16.6003 38.3275C17.0295 33.0697 19.1032 28.1992 22.4855 24.1964L19.9453 21.6911C19.4601 21.5582 18.3568 22.2649 17.699 22.3489C9.01925 23.4872 7.47039 11.7144 14.5803 9.80168C19.4461 8.49307 23.4979 12.2486 22.8494 17.1985C22.7631 17.8563 22.0587 18.9596 22.1916 19.4448L24.6969 21.985C27.6243 19.5801 31.079 17.6183 34.8042 16.7553C36.1641 16.4404 37.5404 16.3214 38.905 16.0555V12.6125C32.7818 11.1313 32.5182 2.24161 38.4827 0.356846C46.7193 -2.24637 50.5168 10.2519 42.096 12.6125V12.6102ZM39.7564 3.37527C37.671 3.73217 36.6633 6.46368 37.8016 8.21316C38.7277 9.63373 40.799 10.1119 42.2383 9.1742C45.0911 7.31742 43.4909 2.73847 39.7564 3.37527ZM15.6579 12.9764C12.5742 13.6202 12.7025 18.7683 15.9822 19.2069C21.0696 19.8857 20.8924 11.8824 15.6579 12.9764ZM63.5026 12.9764C62.9334 13.093 61.9467 13.9491 61.6551 14.446C59.9966 17.2754 63.4256 20.5598 66.1618 18.7777C69.0659 16.8836 67.4074 12.1786 63.5026 12.9764ZM39.0682 19.2745C22.8401 20.3965 14.1161 39.0459 23.7708 52.2789C32.7188 64.5439 51.6411 63.212 58.7977 49.832C66.493 35.4443 55.2684 18.1572 39.0682 19.2768V19.2745ZM6.23176 36.8999C4.14638 37.2568 3.13868 39.9883 4.27701 41.7378C5.20306 43.1583 7.27444 43.6365 8.71368 42.6988C11.5665 40.842 9.9663 36.2631 6.23176 36.8999ZM73.281 36.8999C71.1956 37.2568 70.1879 39.9883 71.3262 41.7378C72.2523 43.1583 74.3237 43.6365 75.7629 42.6988C78.6157 40.842 77.0155 36.2631 73.281 36.8999ZM15.8352 60.821C13.4559 61.2293 12.6138 64.4856 14.2397 66.1744C15.287 67.2638 17.2021 67.4247 18.4128 66.5407C21.1839 64.5136 19.3388 60.2216 15.8352 60.821ZM39.7564 70.4245C37.671 70.7814 36.6633 73.5129 37.8016 75.2624C38.7277 76.6829 40.799 77.1611 42.2383 76.2234C45.0911 74.3666 43.4909 69.7877 39.7564 70.4245Z" fill="#898989"/>
<path d="M63.1571 57.6813C72.6789 56.3028 73.3157 69.9953 64.6756 70.3849C56.7563 70.7418 55.849 58.7404 63.1571 57.6813ZM63.8522 60.8211C59.8727 61.4882 60.6588 67.9963 65.3428 67.0259C68.8021 66.3098 68.2002 60.0933 63.8522 60.8211Z" fill="#898989"/>
<path d="M40.2945 22.4073C54.8782 22.216 63.257 39.0786 54.4373 50.7091C46.5273 61.1406 29.898 59.2465 24.5283 47.3268C19.3242 35.7802 27.6027 22.5729 40.2945 22.4073ZM38.7177 25.7336C28.7573 26.7483 23.1403 38.0592 27.8383 46.8136C32.4709 55.4443 44.5656 57.0165 51.1483 49.6874C60.0613 39.7597 52.065 24.376 38.72 25.7359L38.7177 25.7336Z" fill="#898989"/>
<path d="M42.0703 31.2712C43.155 31.3645 44.4216 31.1429 45.4806 31.2666C47.3141 31.4812 47.4494 34.1614 45.3057 34.418C43.4162 34.6442 40.4724 34.0471 38.7486 34.4949C36.8382 34.9918 36.8382 37.8493 38.7486 38.3461C40.6591 38.843 42.1263 37.9589 44.1767 39.0296C48.6297 41.3529 47.1741 48.4511 42.0773 48.7357C42.5135 52.0037 38.4687 51.9897 38.9282 48.7287C37.8412 48.6377 36.5793 48.8546 35.5179 48.7333C33.6868 48.5234 33.6145 45.8922 35.5319 45.5983C37.4657 45.302 40.4468 45.9738 42.2476 45.505C44.2163 44.9918 44.0344 42.1157 42.2476 41.6538C40.4608 41.1919 38.8699 42.0387 36.8195 40.9703C32.3549 38.64 33.8361 31.5675 38.9189 31.2642C38.485 27.9892 42.5298 28.0172 42.068 31.2712H42.0703Z" fill="#898989"/>
</g>
<defs>
<clipPath id="clip0_331_5109">
<rect width="80" height="80" fill="white" transform="translate(0.5)"/>
</clipPath>
</defs>
</svg>
