<svg width="73" height="80" viewBox="0 0 73 80" fill="none" xmlns="http://www.w3.org/2000/svg">
<g clip-path="url(#clip0_330_5035)">
<path d="M37.1254 79.9746C36.773 80.0079 36.2269 80.0079 35.8746 79.9746C33.5276 79.7535 29.7087 77.9143 27.5888 76.7755C16.2651 70.7042 6.77157 60.0935 2.85672 47.7649C-0.502221 37.1835 0.795553 26.3341 0.54696 15.3888C0.513684 14.6159 1.0461 14.1659 1.69597 13.8802C4.07816 12.8335 7.97539 12.131 10.6394 11.2603C19.4048 8.3939 27.8531 4.57068 35.9176 0.135043C36.1232 0.029386 36.3444 -0.00778967 36.5753 0.00199339C37.3916 0.0372124 40.7447 2.14057 41.7586 2.64733C49.7586 6.63491 57.9974 9.90245 66.5455 12.5497C67.7415 12.9215 71.6348 13.6611 72.2083 14.5455C72.3865 14.8194 72.4784 15.0562 72.4569 15.3907C72.2064 26.336 73.5061 37.1854 70.1472 47.7668C66.2323 60.0954 56.7388 70.7061 45.4151 76.7775C43.2932 77.9143 39.4743 79.7535 37.1293 79.9765L37.1254 79.9746ZM69.2996 16.5902C57.9132 13.4811 46.9575 9.00045 36.5675 3.4515C33.5139 4.82896 30.5504 6.53316 27.4929 7.95758C19.8374 11.5206 11.8413 14.3264 3.70233 16.5921C3.93526 25.4008 2.88608 34.4814 4.85134 43.1218C8.00475 56.9922 20.4129 72.1481 34.2812 76.3392C36.3072 76.9516 36.8259 76.9223 38.8401 76.3001C51.5203 72.3888 63.5585 58.7004 67.3324 46.2054C70.2587 36.5202 69.1313 26.5826 69.2996 16.5902Z" fill="#898989"/>
<path d="M66.6156 18.49C66.8426 18.7404 66.9816 19.2609 66.9855 19.6053C67.0521 30.7247 67.7724 41.0106 62.8925 51.2946C58.4883 60.5728 48.2432 70.667 38.4149 74.001C36.1991 74.7524 35.79 74.4726 33.6936 73.6449C22.916 69.3932 12.7178 58.8393 8.72273 47.9977C5.27571 38.6451 6.05476 29.4059 6.01757 19.6053C6.10565 18.6465 6.38948 18.3687 7.23313 18.0087C9.52136 17.0284 12.7041 16.3436 15.1705 15.4788C20.0758 13.7589 24.9733 11.7201 29.6809 9.51893C31.5698 8.6365 33.7191 7.23752 35.5649 6.49597C36.4634 6.13399 36.7981 6.224 37.6554 6.5938C40.0905 7.64254 42.6567 9.2137 45.1504 10.3505C49.4274 12.3012 53.8649 14.0798 58.3024 15.6353C60.6376 16.4532 63.6011 17.0812 65.7719 18.0087C65.9911 18.1026 66.4766 18.3354 66.6175 18.49H66.6156ZM63.8341 20.6442C54.3445 17.9148 45.215 14.0583 36.4458 9.57176C27.7646 14.162 18.6116 17.903 9.16511 20.6442C9.27668 28.1048 8.55244 35.6045 10.3787 42.9046C13.307 54.6149 23.0844 65.795 34.2065 70.4772C36.4086 71.4046 36.5906 71.4046 38.7927 70.4772C49.3315 66.0396 58.8661 55.5521 62.1331 44.6069C64.4878 36.7158 63.7753 28.7798 63.8341 20.6462V20.6442Z" fill="#898989"/>
<path d="M44.7985 32.6383C46.4917 32.8144 47.7092 33.8827 48.0518 35.5556C47.7347 39.7036 48.5235 44.603 48.0655 48.661C47.8893 50.2184 46.5641 51.4178 45.0236 51.5568C39.6016 52.042 33.4728 51.1772 27.9764 51.5568C26.4437 51.4628 25.1049 50.1715 24.9346 48.661C24.4746 44.5716 25.2497 39.6038 24.9717 35.4225C25.3691 33.8103 26.5533 32.8124 28.2015 32.6383C28.3463 29.179 27.6143 25.9584 29.65 22.9198C32.8778 18.1026 39.9969 18.0537 43.2874 22.8259C45.3955 25.884 44.6537 29.1438 44.7985 32.6383ZM41.6568 32.6539V26.9543C41.6568 24.5379 38.7559 22.3348 36.4383 22.3641C34.1677 22.3934 31.3412 24.5829 31.3412 26.9543V32.6539H41.6568ZM44.9394 48.4281V36.0115L44.7046 35.7767H28.2935L28.0586 36.0115V48.4281H44.9375H44.9394Z" fill="#898989"/>
<path d="M24.359 59.0956C25.8055 57.5362 28.0057 60.2637 29.1684 61.1422C29.9827 61.7566 32.4392 63.048 32.5841 63.9774C32.7779 65.2139 31.9499 66.1746 30.6717 65.887C30.241 65.7892 27.8158 64.0361 27.2912 63.6408C26.6374 63.1478 24.8288 61.7723 24.3923 61.2283C23.9244 60.6452 23.8226 59.6709 24.357 59.0956H24.359Z" fill="#898989"/>
<path d="M21.92 55.4876C24.1319 54.9847 24.6271 58.2601 22.6267 58.5477C20.5909 58.8412 20.1975 55.8789 21.92 55.4876Z" fill="#898989"/>
<path d="M35.8291 39.0891C37.5301 38.7037 39.0354 39.9657 38.6204 41.7227C38.5166 42.163 38.1408 42.4526 38.0704 42.8908C37.902 43.9337 38.4012 45.5714 36.7197 45.769C34.5587 46.0234 35.1479 43.8378 34.9052 42.7597C34.8132 42.3508 34.3884 42.0436 34.3219 41.4606C34.2123 40.494 34.8445 39.3122 35.8291 39.0891Z" fill="#898989"/>
</g>
<defs>
<clipPath id="clip0_330_5035">
<rect width="72" height="80" fill="white" transform="translate(0.5)"/>
</clipPath>
</defs>
</svg>
