<svg width="71" height="80" viewBox="0 0 71 80" fill="none" xmlns="http://www.w3.org/2000/svg">
<g clip-path="url(#clip0_330_4847)">
<path d="M38.9942 17.0297C37.1062 21.7205 36.4038 26.7934 35.9564 31.8063L38.7057 28.7999C40.2827 17.8408 51.0718 10.9147 61.787 14.7144C62.5408 14.981 65.3393 16.2365 65.6391 16.8764C66.1558 17.983 65.1648 21.4938 64.7174 22.7026C61.0622 32.6151 49.0048 36.657 39.889 31.353C36.4888 34.2794 35.7685 38.9279 35.7909 43.1987C35.7596 46.2873 36.793 49.8559 36.7953 52.849C36.7953 54.0067 35.7238 54.6377 34.7194 54.0755C34.1355 53.7489 34.0706 52.9379 33.9677 52.329C33.6031 50.1536 33.4174 47.2628 33.2787 45.0296C32.9409 39.5856 33.9185 33.9106 30.6771 29.1376L30.5228 29.0332C18.4631 32.0285 7.06788 20.8983 9.91109 8.8482C10.3697 6.89947 11.2376 6.97502 13.1189 6.7106C24.1921 5.16184 33.055 14.0567 32.6032 24.9002C32.583 25.3779 32.2542 26.3179 32.3191 26.7089C32.3548 26.9245 33.357 28.3666 33.6098 28.6443C33.8514 25.4357 34.5024 22.256 35.3703 19.1651C35.556 18.5074 36.5626 16.1054 36.5626 15.7543C36.5626 15.5032 35.9296 13.9411 35.8311 13.3834C34.6903 6.93058 39.4372 0.531115 46.0877 0.0400448C48.7923 -0.159938 49.1748 0.328909 49.8034 2.8287C51.6221 10.0592 46.4211 16.7698 38.9942 17.0297ZM46.9848 2.72204C41.9806 2.68649 38.1308 6.92392 38.3008 11.8479C39.2851 10.8591 42.4504 5.23739 44.0633 7.8705C44.7925 9.05929 42.6898 10.5081 41.918 11.5346C41.3006 12.3546 40.7525 13.2523 40.3096 14.1766C45.6135 13.39 48.8504 7.70385 46.9848 2.72427V2.72204ZM29.9255 23.4892C29.9702 14.5255 21.3824 7.6083 12.5507 9.55703C10.2869 19.2696 19.0716 28.3088 28.9211 26.6489C26.4626 23.5048 23.2592 21.0672 19.9664 18.8296C19.2461 18.0319 20.1699 16.6076 21.1207 16.672C22.9349 16.7964 28.3775 22.1338 29.9232 23.4892H29.9255ZM63.0777 18.1785C55.2952 13.87 44.9625 17.443 42.3184 25.9845L47.3002 23.6981C48.5842 23.4225 52.5303 21.5071 53.3513 22.9248C54.6017 25.0846 51.2641 25.1868 50.0204 25.569C47.2465 26.4223 44.3988 27.5289 42.1529 29.3954C51.0606 34.1972 62.0755 28.0533 63.0777 18.1785Z" fill="#898989"/>
<path d="M7.27993 24.6868C8.2575 24.5024 8.95096 25.2756 8.82569 26.22C8.73398 26.9133 7.90181 27.2399 8.19039 28.1954C8.33803 28.6843 10.5661 30.2152 11.0761 30.8219C12.4608 32.4684 11.962 34.646 10.9754 36.3525C9.4789 38.9456 6.98017 38.3235 4.40316 38.1324L3.38756 38.7945L3.30479 51.5112C3.84615 52.8734 4.89977 52.2756 5.88852 52.2578C8.02709 52.2201 9.68694 52.049 10.9083 54.1044C12.0559 56.0331 12.4921 58.2085 10.8345 59.9972C10.0068 60.8905 7.77654 61.8504 8.23289 63.2503L17.0399 72.1317C18.7043 73.1605 19.7601 70.4341 20.8965 69.492C22.5541 68.1165 24.7464 68.612 26.4644 69.592C29.075 71.0785 28.4486 73.5605 28.2562 76.1203L28.9228 77.1291L41.4053 77.2247C42.0339 77.2913 42.4209 76.8025 42.6177 76.2647C42.6021 74.0227 41.79 71.614 43.8391 69.9964C45.575 68.6231 48.4272 68.021 50.1922 69.6431C51.2078 70.5763 52.2524 73.1761 53.8631 72.1362L62.6701 63.2547C63.1377 61.8171 60.8313 60.8438 59.9768 59.9261C58.3796 58.2107 58.9075 55.9331 59.9924 54.1088C61.2161 52.0534 62.8737 52.2245 65.0123 52.2623C65.9831 52.2801 66.8958 52.8556 67.5669 51.6535V38.9145C67.0457 37.1458 62.7283 39.3989 62.2809 37.5146C62.131 36.8791 62.1623 36.2547 62.7596 35.9014C63.2115 35.6326 66.0256 35.4237 66.6788 35.4726C68.6407 35.6215 70.1148 37.128 70.2871 39.0389C70.5689 42.1609 70.5689 48.4048 70.2871 51.5268C70.1059 53.5244 68.5333 55.0176 66.5177 55.1043C65.2852 55.1576 63.0101 54.3354 62.2697 55.5376C60.5763 58.2885 62.8603 58.4707 64.3434 60.0794C65.8265 61.6882 65.7706 63.7013 64.491 65.3945C63.0929 67.2455 57.7532 72.4917 55.8831 73.976C54.4246 75.1359 52.9638 75.4737 51.2458 74.5871C48.9931 73.4227 48.888 70.0297 45.7763 71.9207C44.5661 72.6561 45.3938 74.9315 45.3401 76.1403C45.2574 78.0068 43.9979 79.4089 42.1949 79.84C38.0073 79.6311 33.2939 80.2533 29.1667 79.8867C27.1579 79.7067 25.6524 78.1468 25.5651 76.1425C25.5114 74.9182 26.3391 72.6584 25.1289 71.9229C22.3595 70.2408 22.1761 72.5095 20.5565 73.9827C18.9436 75.447 16.9102 75.4004 15.2056 74.1293C13.3422 72.7406 8.06064 67.4366 6.56633 65.579C5.3248 64.0391 4.9982 62.2326 6.17709 60.5327C7.49468 58.6351 10.4766 58.5307 8.63555 55.5398C7.8951 54.3377 5.60442 55.1598 4.3875 55.1065C2.46145 55.0221 1.00964 53.6999 0.638297 51.8401C0.893315 47.7182 0.249061 43.1031 0.615927 39.0412C0.797124 37.0458 2.36749 35.5503 4.38526 35.4637C5.61784 35.4104 7.89287 36.2325 8.63331 35.0304C10.5638 31.8973 7.00478 31.8151 5.88852 29.4886C5.1861 28.0265 5.41875 25.0423 7.27769 24.6913L7.27993 24.6868Z" fill="#898989"/>
<path d="M19.6639 31.5195C19.7579 31.6129 19.9972 32.1328 20.0174 32.2639C20.1315 33.0083 18.4112 35.1037 17.9504 35.9592C12.0649 46.9027 17.852 60.666 29.7595 64.1546C44.3782 68.4365 57.9613 55.6709 54.7937 40.9499C54.5096 39.6322 52.767 36.2791 55.127 36.2791C56.3126 36.2791 56.5027 37.3146 56.836 38.2545C61.2161 50.6291 52.9303 64.5746 40.1458 67.1521C21.5162 70.9096 6.67147 51.6401 15.4964 34.8504C16.0982 33.706 18.0399 29.8997 19.6639 31.5151V31.5195Z" fill="#898989"/>
</g>
<defs>
<clipPath id="clip0_330_4847">
<rect width="70" height="80" fill="white" transform="translate(0.5)"/>
</clipPath>
</defs>
</svg>
