<svg width="61" height="80" viewBox="0 0 61 80" fill="none" xmlns="http://www.w3.org/2000/svg">
<g clip-path="url(#clip0_330_4665)">
<path d="M22.2194 80C21.3456 79.7699 21.6087 78.1256 22.1419 78.1256H25.503L28.0021 33.7415C27.2669 34.2488 26.83 35.1485 25.8506 35.2612L2.60007 38.5919C-0.237246 38.6835 -1.08046 35.0428 1.74512 34.1291C8.85721 31.8319 17.1437 30.9557 24.3732 28.783C25.2845 28.5693 26.0455 28.8817 26.9075 29.0508C27.0954 27.6579 28.2839 26.7137 29.3925 26.0067C28.7936 25.0765 28.951 24.4024 29.1788 23.4253C30.8488 16.2284 34.3484 8.77071 36.2134 1.5456C37.3149 -0.979431 41.0096 -0.281819 40.4881 2.69654C38.6397 10.6005 37.1599 18.6359 35.0132 26.4459L34.1206 27.5358L34.884 29.5182C35.605 29.1706 36.4248 29.4196 37.1317 29.6897L55.8092 45.0818C57.5285 46.9985 55.6753 49.6832 53.2866 48.6991L33.0096 34.5166L35.4993 78.0528C36.4177 78.384 38.7547 77.6559 39.2269 78.5508C39.5298 79.1263 39.3138 79.6524 38.7923 79.9977H22.2264L22.2194 80ZM38.6279 2.01302L38.1464 2.10698L30.9615 24.75C31.0531 26.0842 32.6479 26.3144 33.4042 25.3091L38.6303 2.01302H38.6279ZM30.7736 27.8388C27.732 28.0197 28.3285 32.5812 31.2903 31.9493C33.8599 31.402 33.1788 27.6955 30.7736 27.8388ZM2.05751 36.0857L2.30413 36.6917L25.0684 33.5442C27.187 33.1472 26.7032 30.2934 24.5024 30.7913L2.05751 36.088V36.0857ZM35.2997 31.4279C34.7172 31.6017 34.1394 32.8912 34.6561 33.415L53.9466 46.9445L54.5667 46.7894L53.8597 45.9368L36.5892 31.6393C36.2439 31.3785 35.7107 31.3081 35.2997 31.4302V31.4279ZM27.5323 78.1233H33.47L30.9521 34.5378L29.874 34.519C29.6908 36.7363 29.6885 38.9466 29.5616 41.1592C28.8852 52.8331 28.0937 64.474 27.5253 76.162C27.4947 76.8103 27.5605 77.4727 27.5323 78.1209V78.1233Z" fill="#898989"/>
<path d="M7.48823 28.3861C6.92922 28.9921 5.83469 28.6468 5.80181 27.7166C5.69141 24.743 7.9157 19.4181 9.49408 16.8719C13.4424 10.4994 22.2409 4.67896 29.9519 4.97257C31.2837 5.02424 31.7229 6.76475 29.7804 6.99729C19.7019 8.20226 11.5986 13.304 8.58041 23.4628C8.34318 24.2638 7.67613 28.1841 7.48823 28.3884V28.3861Z" fill="#898989"/>
<path d="M26.4073 0.18319C27.3116 0.112724 30.4378 -0.0282074 31.1378 0.20433C31.786 0.422775 31.8988 1.46097 31.3492 1.84384C30.8418 2.19852 28.291 1.95893 27.4572 2.01296C20.5636 2.46864 13.5854 5.95435 9.01231 11.0749C8.37345 11.7889 7.02995 13.8818 6.42866 14.2717C5.46097 14.8988 4.75399 13.9992 5.1157 12.9587C5.25193 12.5711 6.76219 10.7366 7.13799 10.2927C11.7956 4.79401 19.1473 0.746918 26.4073 0.18319Z" fill="#898989"/>
<path d="M55.8583 41.8263C55.2382 41.1733 56.6686 38.9207 56.9833 38.1104C59.3838 31.9634 59.7126 25.598 57.4954 19.3218C57.1595 18.3729 55.3815 15.061 55.3486 14.5818C55.2899 13.7245 56.1354 13.344 56.873 13.6939C57.291 13.8912 58.604 16.7146 58.86 17.3323C61.8265 24.4893 61.6973 32.5741 58.4983 39.6278C58.1225 40.4593 57.0984 43.1346 55.8559 41.8263H55.8583Z" fill="#898989"/>
<path d="M53.2728 39.1626C52.6645 39.6676 51.725 39.132 51.7485 38.3499C51.7649 37.7791 52.7021 35.7919 52.9276 34.991C54.0033 31.1576 54.0315 27.3807 53.1483 23.5027C53.5429 22.138 54.769 22.4269 55.1472 23.707C56.1289 27.026 55.7132 31.9821 54.8019 35.3034C54.6069 36.0151 53.7332 38.7821 53.2728 39.1626Z" fill="#898989"/>
<path d="M48.4178 11.601C49.9797 13.1536 51.7648 15.5213 52.7724 17.4826C53.1482 18.2131 54.0924 19.7093 52.958 20.1838C51.8235 20.6583 51.436 18.8943 50.9991 18.1638C49.5358 15.728 47.9152 13.5506 45.7332 11.7091C45.1319 11.2017 43.2458 10.0907 42.9686 9.63033C42.4519 8.7683 42.9381 7.90391 43.941 8.17638C44.8101 8.41362 47.6732 10.8635 48.4178 11.6034V11.601Z" fill="#898989"/>
<path d="M3.11196 17.1961C5.22586 16.8132 3.61225 19.9607 3.38677 20.7664C2.59053 23.6226 2.18654 26.4553 1.86241 29.4008C1.28461 30.3826 0.0562052 29.8941 0.0162761 28.8112C-0.0330482 27.5053 0.439055 24.9121 0.702118 23.5498C0.979273 22.1193 1.42554 20.3624 1.94227 19.0071C2.15836 18.4386 2.459 17.3135 3.11196 17.1937V17.1961Z" fill="#898989"/>
<path d="M49.5307 49.5517L50.5172 49.9016C50.7403 50.1976 50.7074 50.6087 50.5947 50.9398C50.381 51.5693 45.7938 54.7755 44.9295 55.2759C44.2882 55.6446 41.4227 57.1455 40.8849 57.1784C39.6588 57.2559 39.6565 55.8842 40.5842 55.149C41.7187 54.2494 44.0839 53.4367 45.4932 52.5559C46.9142 51.668 48.1849 50.5382 49.5331 49.5493L49.5307 49.5517Z" fill="#898989"/>
<path d="M45.2706 2.86332C45.6652 2.86332 47.9482 4.31022 48.432 4.63436C49.7356 5.50814 51.4197 6.78827 52.5401 7.8711C52.7679 8.09189 54.2758 9.70791 54.3322 9.83005C54.6352 10.4901 54.2617 11.1689 53.5383 11.2347C52.5588 11.3263 51.772 9.86763 51.1331 9.27807C49.8625 8.10598 48.2653 6.89632 46.8372 5.91449C46.2101 5.48465 44.3358 4.69543 44.1596 4.04714C44.0164 3.52335 44.7586 2.85862 45.2706 2.86097V2.86332Z" fill="#898989"/>
<path d="M45.9352 46.9045C46.9405 47.9051 44.2323 49.7067 43.5418 49.8312C42.4379 50.0309 41.7896 49.1571 42.607 48.2669C42.7221 48.1424 44.338 46.9773 44.5118 46.8904C44.897 46.6978 45.6134 46.5827 45.9375 46.9045H45.9352Z" fill="#898989"/>
</g>
<defs>
<clipPath id="clip0_330_4665">
<rect width="61" height="80" fill="white"/>
</clipPath>
</defs>
</svg>
