<svg width="81" height="80" viewBox="0 0 81 80" fill="none" xmlns="http://www.w3.org/2000/svg">
<g clip-path="url(#clip0_331_5502)">
<path d="M67.7736 38.0368C68.6818 37.3076 70.85 35.6021 71.4611 37.513C71.9926 39.185 70.0087 39.5495 70.0003 39.8345L72.0052 41.2634C72.6247 41.3975 73.9013 39.9979 74.617 39.8219C75.8309 39.5244 76.7935 41.0916 75.9104 42.1602C75.6718 42.4493 74.6798 42.8139 74.7886 43.0905L76.7852 44.5152C77.9571 44.1842 79.4263 42.1434 80.6108 43.476C82.2181 45.2821 78.3757 46.5015 77.5553 47.5784C77.1954 49.5312 78.3757 52.2089 76.3834 53.4241L40.228 77.8754C39.1356 78.2358 36.7288 75.5874 36.0801 75.7467L29.5212 80.0042C28.3367 80.067 27.6586 78.8853 28.2446 77.8545C28.5543 77.3139 33.9203 74.125 33.7278 73.84L31.4508 72.4949L25.3398 76.656C23.3516 77.0834 22.594 75.4492 24.1636 74.1082C25.4193 73.0355 27.6335 72.1136 28.7594 70.9989C28.9018 70.8564 29.0022 70.8397 28.9394 70.584L26.8006 69.2599C26.4322 69.2599 21.7151 72.9349 20.7063 73.3875C19.4339 73.9616 18.2326 72.7631 18.76 71.6107C19.2204 70.605 23.18 68.7822 24.1385 67.7429C24.3227 67.546 24.3897 67.634 24.1385 67.4161C23.812 67.1269 22.2634 66.0961 21.916 66.1925C20.0157 67.2443 18.0987 69.1048 16.2235 70.098C14.3819 71.0701 13.0885 69.1132 14.8506 67.6968C15.5873 67.1018 19.2037 64.9563 19.4464 64.5875C19.6222 64.3193 19.5092 64.3319 19.3502 64.1643C19.1744 63.9757 17.4876 62.9029 17.2909 62.9448L10.8743 67.1479C9.58514 67.3574 8.8401 65.874 9.60189 64.8808L14.8297 61.3315C14.9804 61.1765 14.6623 61.0005 14.5577 60.9167C14.2312 60.6527 12.9587 59.7643 12.6448 59.8104L6.69707 63.8039C5.44139 64.3864 4.13129 63.1083 4.81354 61.9182C5.21955 61.2142 10.4892 58.1845 10.2967 57.9037L8.01554 56.5586L1.74967 60.7365C0.364235 61.1723 -0.418474 59.5967 0.25541 58.4652L5.50417 54.9872L5.39953 54.6352C4.64612 54.1114 2.66632 53.202 2.46541 52.3011L2.51983 45.06L12.0128 38.4265L12.0044 19.6155L12.2807 18.5218L39.2109 0.104761L40.1485 0L67.0787 18.0902C67.2629 18.2033 67.7736 19.0121 67.7736 19.1085V38.0368ZM65.0362 21.937C63.7512 22.4273 61.6207 24.7698 60.3357 24.6902C59.3437 24.6273 58.695 23.6006 59.214 22.6997C59.6744 21.8951 62.6462 20.3698 63.5796 19.5359C63.6758 19.4521 63.9144 19.3138 63.7595 19.1965L39.8011 2.96684L16.0184 19.1923C15.8719 19.3473 16.1859 19.5233 16.2905 19.6071C17.1695 20.3111 20.1538 21.9873 20.564 22.6955C21.0747 23.5839 20.4301 24.6483 19.4381 24.686C18.174 24.7363 16.0184 22.398 14.7376 21.9328V44.1129L38.5203 60.3007V57.6439C38.5203 57.5685 38.9891 56.9315 39.1063 56.8603C39.8011 56.4413 41.2577 56.919 41.2577 57.6439V60.3007L65.0403 44.1129V21.9328L65.0362 21.937ZM67.7736 41.804V45.1438C67.7736 45.8604 65.8733 46.9876 65.2622 47.4234C57.7281 52.7997 49.5033 58.4233 41.7223 63.4226C41.2954 63.6991 40.4247 64.3822 39.9601 64.4115C39.3407 64.445 37.6455 63.1418 37.026 62.7395C29.6928 57.9498 22.1964 52.8081 15.0264 47.767C14.3526 47.2935 12.0002 45.8855 12.0002 45.1438V41.804L6.27851 45.5754L6.35385 45.831L39.9727 68.6397L73.5916 45.9106L73.4116 45.4958L67.7736 41.804ZM41.2577 73.8358C42.0237 73.5299 42.7519 72.9684 43.4342 72.5033C53.8982 65.4005 64.3288 58.2432 74.7928 51.1403V48.316L41.2619 71.1833V73.84L41.2577 73.8358ZM38.5203 70.9235L8.87359 50.8428L5.15676 48.4836V51.1403L38.5203 73.8358V70.9235Z" fill="#898989"/>
<path d="M53.915 26.3873C56.3971 26.9698 61.0934 28.3401 62.1105 30.9465C63.7094 35.0364 56.8785 37.3957 53.915 37.8692C54.8024 39.8848 56.3678 42.068 56.6357 44.3099C57.4979 51.6181 49.1309 48.7853 45.7908 46.095C45.209 47.4737 44.9704 48.9362 44.3677 50.319C41.3917 57.1579 37.1266 55.2596 34.971 49.2169C34.8119 48.7686 34.1631 46.095 33.9873 46.095C30.5384 48.8188 22.2048 51.6684 23.1675 44.1674C23.4605 41.8753 24.9464 39.9141 25.8631 37.8734C22.9624 37.316 17.1612 35.5351 17.4709 31.7804C17.7262 28.6544 23.3015 26.9405 25.8631 26.3915C24.532 23.8563 22.0416 19.8083 23.4982 16.9169C25.2729 13.4011 31.7104 16.4601 33.9873 18.1657C34.565 16.8415 34.791 15.3958 35.3602 14.059C37.2437 9.61713 40.7387 7.50514 43.6854 12.5714C44.7025 14.323 45.0625 16.2967 45.795 18.1615C49.2606 15.5424 57.5649 12.584 56.6148 20.0933C56.3218 22.4022 54.8777 24.3466 53.9234 26.3873H53.915ZM43.1036 20.0178C43.3882 19.5276 41.9693 15.379 41.6303 14.6289C41.3373 13.9878 40.5546 12.1859 39.7133 12.4164C38.3613 12.7851 36.7415 18.5009 36.6285 19.934L39.8263 22.4441L43.1036 20.022V20.0178ZM33.0414 25.3607L33.4767 21.0822C32.1708 20.2399 30.7686 19.3097 29.3246 18.723C28.2907 18.3039 26.9681 17.7089 25.8798 18.195C25.6663 19.7538 26.2942 21.2624 26.9597 22.6327C27.1397 23.0056 28.613 25.5367 28.7637 25.6205C29.5757 26.0689 32.0117 25.1092 33.0372 25.3649L33.0414 25.3607ZM46.7325 25.3607C47.6994 25.1134 50.4201 26.0856 51.0939 25.5325C51.5292 25.1721 53.3165 21.6437 53.5383 20.9565C53.7141 20.4159 54.2541 18.4171 53.7602 18.0735C52.651 17.2982 47.3855 20.2148 46.3014 21.0822L46.7367 25.3607H46.7325ZM35.783 25.0171C36.5489 25.0464 37.2312 25.1637 37.6498 24.3927L36.2099 22.9637C35.8751 22.9553 35.9337 24.6902 35.783 25.0129V25.0171ZM43.991 25.0171C43.7566 24.6525 43.9449 22.9553 43.564 22.9679C41.9442 24.158 41.4001 24.9961 43.991 25.0171ZM38.1269 27.7953L35.4732 30.4521V33.8044C36.1806 34.8562 37.0805 35.7572 38.1269 36.4612H41.647C42.6976 35.7446 43.518 34.806 44.2965 33.8086V30.4521L41.6428 27.7953H38.1185H38.1269ZM32.874 28.1012L30.6514 28.3568L32.0996 29.9827C32.7484 29.5008 32.9828 28.91 32.874 28.1012ZM49.1267 28.273L46.9041 28.1012C46.7953 28.8807 47.0758 29.8361 47.9296 29.9827L49.1309 28.273H49.1267ZM27.7131 35.4471L30.1408 32.1241L27.575 28.8765C26.2272 29.0147 20.811 30.5862 20.2962 31.6966C19.8442 32.673 21.0957 33.2471 21.803 33.6117C23.6238 34.5545 25.7333 34.9861 27.7131 35.4429V35.4471ZM52.065 35.4429C52.471 35.6776 57.2594 33.9846 57.9709 33.6159C60.026 32.5515 60.1935 31.8601 58.0797 30.6993C56.3594 29.7565 54.1076 29.3081 52.1989 28.8765L49.6332 32.1241L52.065 35.4387V35.4429ZM32.874 36.1511C33.0414 35.3088 32.5977 34.8646 32.1038 34.2696L30.6514 35.8955L32.874 36.1511ZM49.1267 35.9793L47.6743 34.2696C47.1804 34.8646 46.7367 35.3088 46.9041 36.1511L49.1309 35.9793H49.1267ZM28.8809 38.5774C27.7801 40.0398 25.3022 44.2093 25.884 45.9777L26.1393 46.2333C27.7382 46.7655 32.2126 44.1339 33.5395 43.057L32.8823 38.9671L28.8809 38.5774ZM49.9471 38.6025C49.5285 38.6235 46.9083 38.9336 46.8121 39.0593L46.2344 43.057C47.2641 44.0459 52.6091 46.9792 53.756 46.183C54.7982 45.4581 51.7469 39.0509 51.006 38.636C50.6377 38.4307 50.3029 38.5816 49.9471 38.5983V38.6025ZM37.6288 39.7758C37.0052 39.34 36.595 39.097 35.783 39.2353L36.0341 41.121C36.2601 41.4059 36.2141 41.2132 36.3773 41.1168C36.7875 40.8737 37.1475 40.4044 37.6288 40.2368V39.7758ZM43.991 39.2353C43.4636 39.0216 41.9107 39.5328 42.1032 40.1656L43.564 41.2844C43.8989 41.2844 43.8361 39.5998 43.991 39.2353ZM39.6672 42.001C39.4956 42.0513 37.0094 44.0333 36.8796 44.1926C36.7498 44.3518 36.6578 44.4231 36.6368 44.6368C36.5782 45.2486 37.6623 48.5465 37.9762 49.2882C39.4286 52.7369 40.3495 52.7453 41.8019 49.2882C42.1158 48.5465 43.1999 45.2486 43.1413 44.6368C43.1203 44.4231 43.0199 44.3392 42.8985 44.1926C42.7897 44.0627 40.383 42.1351 40.2323 42.0638C40.0272 41.9674 39.8974 41.9381 39.6714 42.001H39.6672Z" fill="#898989"/>
</g>
<defs>
<clipPath id="clip0_331_5502">
<rect width="81" height="80" fill="white"/>
</clipPath>
</defs>
</svg>
