<svg width="81" height="80" viewBox="0 0 81 80" fill="none" xmlns="http://www.w3.org/2000/svg">
<g clip-path="url(#clip0_331_5143)">
<path d="M59.9789 8.4975H75.0669C75.0669 8.4975 75.9575 8.72764 76.1 8.79845C77.4539 9.29413 78.0773 10.6927 78.1486 12.0558V26.7139C79.3777 26.6077 80.5 26.8378 80.4821 28.2718L75.0312 61.3056C74.5325 63.4831 73.0361 65.3596 70.9698 66.2271C72.573 69.272 72.9114 72.4408 71.1835 75.5212C67.1755 82.6732 56.2381 80.779 54.7061 72.7949C54.2964 70.6528 54.6883 68.7232 55.6681 66.7936H38.3356C41.0789 72.0514 38.1575 78.7431 32.2078 79.8407C24.3877 81.2747 18.7231 72.7595 23.1586 66.2094C22.0185 65.4482 21.1101 64.6515 20.4688 63.43C18.0105 51.9762 16.0154 40.363 13.7888 28.8206L10.8495 20.5002C10.6714 20.2523 5.41645 20.4824 4.57922 20.4116C-0.30165 19.9868 -0.92512 13.3835 3.4926 12.0381C5.06018 11.5601 12.6665 11.6309 14.3588 12.0027C16.0511 12.3745 17.4583 13.5429 18.2955 15.0476L22.7489 26.5369L23.3367 26.6962V3.11578C23.3367 1.82345 25.7772 0.0885578 27.0954 0.212479C36.5187 0.690461 46.601 -0.442533 55.9353 0.212479C57.396 0.318697 58.6607 0.725867 59.4445 2.01819C59.5514 2.19522 59.9967 3.18659 59.9967 3.29281V8.5152L59.9789 8.4975ZM47.4917 2.86793V14.7113C47.4917 15.2424 46.512 15.7026 45.942 15.5964C44.98 15.4017 42.2368 13.295 41.5955 13.3481C40.3664 13.6845 38.4781 15.384 37.3559 15.5964C36.8927 15.6849 35.8061 15.2424 35.8061 14.8883V3.11578L35.5567 2.86793H26.8816C26.7213 2.86793 25.9731 3.36362 25.9731 3.61146V26.7139H49.6471V11.2238C49.6471 10.9405 50.3062 9.73671 50.5734 9.48887C50.8763 9.18792 52.1945 8.4975 52.5685 8.4975H57.3247V3.61146C57.3247 3.61146 56.5231 2.86793 56.4162 2.86793H47.4917ZM44.8197 2.86793H38.4781V11.985C39.4401 11.5778 40.7048 10.4271 41.738 10.4802C42.6465 10.5156 43.9112 11.6663 44.8197 11.985V2.86793ZM68.654 11.1353V19.8274C68.654 19.9514 68.2265 20.4647 68.0484 20.5533C66.8014 21.2614 65.0735 19.4734 63.8979 19.0839C62.7044 19.4911 60.9943 21.2614 59.7473 20.5533C59.587 20.4647 59.1417 19.9514 59.1417 19.8274V11.3831L58.8923 11.1353H52.8892C52.8892 11.1353 52.3013 11.507 52.3013 11.5424V26.6962H75.4766V11.7194C75.4766 11.5424 75.0669 11.1353 74.8887 11.1353H68.6362H68.654ZM65.982 11.1353H61.8137V17.1012C62.6153 16.9418 63.0072 16.2514 63.8979 16.2514C64.7885 16.2514 65.1804 16.9241 65.982 17.1012V11.1353ZM19.8097 26.7139L15.7839 16.0567C14.9644 14.8175 13.8244 14.5519 12.3993 14.4457C10.6536 14.3218 6.21806 14.2156 4.63266 14.5342C2.63756 14.9237 2.72663 17.4021 4.43672 17.7385C7.10873 18.2696 11.7758 16.5347 13.2365 19.438C14.3053 21.5446 14.911 24.501 15.8195 26.7316H19.8275L19.8097 26.7139ZM77.4895 29.3694H16.6567L22.5351 61.2171C22.5708 62.3324 24.0849 64.1558 25.225 63.9965C25.5634 63.9434 26.7213 63.1645 27.2022 62.9697C30.6046 61.6066 33.2054 62.5449 36.2336 64.1558C43.0918 63.6779 50.8228 64.7931 57.5741 64.1558C58.536 64.0673 58.6429 63.607 59.3733 63.2884C61.5999 62.297 63.506 61.9961 65.893 62.6688C66.6411 62.8812 68.7431 64.1204 69.0459 64.1027C70.0257 64.0673 71.6289 62.6688 72.0564 61.8013C72.3592 61.2171 72.4661 60.509 72.6086 59.8717C74.6215 50.1881 75.4944 39.9735 77.4717 30.2545V29.3694H77.4895ZM29.7852 65.0233C21.9295 65.873 22.8914 77.4862 30.569 77.3977C38.9769 77.2915 38.4959 64.0673 29.7852 65.0233ZM62.7756 65.0233C54.0649 65.9438 56.3806 79.2565 64.9845 77.1499C72.2345 75.3796 70.5244 64.2089 62.7756 65.0233Z" fill="#898989"/>
<path d="M43.2695 35.1936C45.2646 34.9457 46.9747 36.4151 47.1528 38.3801C47.5982 43.3724 46.8144 49.0373 47.135 54.1004C46.3691 57.9243 40.6688 57.7472 40.3125 53.7817C39.8672 48.7895 40.651 43.1245 40.3303 38.0615C40.5975 36.6275 41.791 35.3706 43.2695 35.1936ZM42.9845 38.2208V53.7995C42.9845 54.3305 44.4808 54.3305 44.4808 53.7995V38.2208C44.4808 37.849 43.1626 37.6366 42.9845 38.2208Z" fill="#898989"/>
<path d="M32.9385 35.1937C35.0226 34.9636 36.6437 36.5215 36.8218 38.5396C37.2493 43.4256 36.519 48.949 36.7684 53.9058C36.0914 57.6766 30.8365 57.9421 29.9814 54.1183V37.7253C30.3377 36.4152 31.6025 35.3354 32.9563 35.1937H32.9385ZM33.2769 37.8315C33.1344 37.8492 32.8138 38.0085 32.7425 38.1324L32.8138 53.9589C33.5976 54.5254 34.0607 54.1537 34.1676 53.2862C34.6842 48.8251 33.7757 43.4256 34.1676 38.8583C34.2388 38.3803 33.8113 37.743 33.2769 37.8138V37.8315Z" fill="#898989"/>
<path d="M53.7798 35.1935C55.4542 35.0165 57.1821 36.2203 57.485 37.8844V54.2774C56.2915 58.1544 51.0009 57.5525 50.6446 53.4631C50.2171 48.6124 50.9475 43.1599 50.6624 38.2385C50.8584 36.6629 52.1766 35.3529 53.7798 35.1935ZM53.9401 37.8313C53.6551 37.9021 53.281 38.3978 53.3166 38.7164C53.6551 43.3723 52.9069 48.5593 53.3166 53.1444C53.4413 54.6315 54.6883 54.5607 54.8308 53.4808V38.5571C54.902 38.1145 54.3498 37.7428 53.9401 37.849V37.8313Z" fill="#898989"/>
<path d="M64.1112 35.1937C66.142 34.9813 67.8699 36.5392 67.9946 38.5396C67.5314 43.3194 68.618 49.2676 67.9411 53.9058C67.3711 57.8182 61.5105 57.7828 61.1364 53.9589C60.6554 48.8251 61.5105 42.9477 61.1364 37.7253C61.4749 36.4152 62.7396 35.3354 64.0934 35.1937H64.1112ZM63.8084 54.0475C64.5744 54.2953 65.1444 54.4192 65.3047 53.4633C64.9841 48.8074 65.7857 43.461 65.3226 38.8937C65.1622 37.3358 63.8084 37.9377 63.8084 38.2387V54.0652V54.0475Z" fill="#898989"/>
</g>
<defs>
<clipPath id="clip0_331_5143">
<rect width="80" height="80" fill="white" transform="translate(0.5)"/>
</clipPath>
</defs>
</svg>
