<svg width="81" height="80" viewBox="0 0 81 80" fill="none" xmlns="http://www.w3.org/2000/svg">
<g clip-path="url(#clip0_331_6187)">
<path d="M1.36565 80C0.990314 79.689 0.677537 79.5033 0.59413 78.9752C0.471104 78.1926 0.458593 73.9454 0.617067 73.2379C0.88397 72.044 2.15593 72.3675 3.08175 72.3467V67.8949C3.08175 67.5923 3.79488 66.8785 4.09723 66.8785H6.67243V61.6441C6.67243 61.569 7.09989 60.8865 7.23334 60.8009C7.80885 60.4315 8.72842 60.9324 8.8577 60.2395L8.88689 45.584C9.48951 44.5258 11.1973 44.9892 11.1973 46.1788V60.6298H18.8457V36.7264H11.1973V40.5541C11.1973 41.5664 9.81688 42.3135 9.07455 41.4265C8.50322 40.744 9.09958 37.868 8.7868 36.8725C8.60748 36.6158 6.67034 36.956 6.67034 35.71V30.4756H4.09515C3.44457 30.4756 3.14222 29.6992 3.07966 29.1482C2.63761 25.2182 3.41121 20.5056 3.07549 16.49L3.46542 15.6323L40.469 0L77.6165 15.6323L78.0064 16.49C77.6707 20.5035 78.4443 25.2182 78.0023 29.1482C77.9397 29.6992 77.6394 30.4756 76.9868 30.4756H74.4116V35.71C74.4116 35.902 74.0592 36.43 73.8486 36.5532C73.248 36.9017 72.3514 36.4426 72.2263 37.1167L72.1929 51.768C71.6195 52.8888 69.8847 52.3941 69.8847 51.1753V36.7243H62.2362V60.6277H69.8847V56.8C69.8847 55.4162 72.0532 55.0823 72.2346 56.4786C72.3285 57.207 72.0532 60.1372 72.2951 60.4795C72.733 60.7759 73.2606 60.5129 73.7506 60.7404C73.9508 60.8343 74.4116 61.5168 74.4116 61.642V66.8764H76.9868C77.2891 66.8764 78.0023 67.5902 78.0023 67.8928V72.3446C79.0594 72.3675 79.906 72.0524 80.5003 73.1251V80H1.36565ZM75.6606 17.1976L40.4774 2.51285L5.42341 17.1976V28.1339H38.1232C39.1533 28.1339 39.2659 30.4777 37.9668 30.4777H23.2162V36.0231C23.2162 36.7431 21.692 36.8182 21.1874 36.7243V60.5379C21.2124 60.7258 22.1903 60.5734 22.4823 60.659C22.6241 60.7007 23.2162 61.2809 23.2162 61.331V66.8764H29.9284V57.2675C29.9284 56.3784 30.8834 54.0596 31.363 53.2352C35.6543 45.8678 46.712 46.3771 50.1964 54.164C50.4633 54.7609 51.1556 56.7144 51.1556 57.2654V66.8743H57.8678V61.329C57.8678 61.2789 58.46 60.7007 58.6017 60.6569C58.8958 60.5693 59.8716 60.7216 59.8987 60.5359V36.7222C59.3899 36.8141 57.8678 36.741 57.8678 36.021V30.4756H43.1172C41.8181 30.4756 41.9307 28.1318 42.9608 28.1318H75.6606V17.1955V17.1976ZM20.8767 30.4756H9.01408V34.3805H20.8767V30.4756ZM72.072 30.4756H60.2094V34.3805H72.072V30.4756ZM39.293 50.4719C36.7637 50.7412 34.2656 52.6008 33.148 54.8653C32.9144 55.3411 32.2701 56.9836 32.2701 57.424V66.8764H39.293V50.4719ZM48.816 66.8764V57.5806C48.816 57.1631 48.399 55.9756 48.2196 55.5206C47.1979 52.9222 44.5935 50.7579 41.791 50.4719V66.8764H48.8139H48.816ZM20.8767 62.9715H9.01408V66.8764H20.8767V62.9715ZM72.072 62.9715H60.2094V66.8764H72.072V62.9715ZM75.6606 69.2202H5.42341V72.3446H75.6606V69.2202ZM78.1586 74.6884H2.92745V77.6562H78.1607V74.6884H78.1586Z" fill="#898989"/>
<path d="M26.6104 11.2974C27.557 11.1388 28.2514 11.5625 28.218 12.5789C28.1909 13.4471 28.0679 14.1191 28.2285 15.0708C28.8686 18.8923 32.0464 20.8583 34.434 23.5423C34.899 24.4126 34.4965 25.3852 33.4477 25.3268L8.70494 25.2391C8.584 25.1556 8.46723 25.0575 8.38382 24.9344C7.92717 24.2498 7.92925 19.963 8.32335 19.2387C8.41302 19.0718 8.55898 18.9528 8.70911 18.8443L26.6104 11.2974ZM10.4169 20.7122V22.9767H30.5514C28.0679 20.61 25.8535 17.8738 25.8681 14.2277L10.4169 20.7101V20.7122Z" fill="#898989"/>
<path d="M53.6076 11.2912C53.7994 11.2348 53.9975 11.2369 54.1935 11.2536L72.3763 18.8443C72.5264 18.9549 72.6703 19.0739 72.762 19.2388C73.1561 19.963 73.1582 24.2499 72.7015 24.9344C72.6202 25.0576 72.5014 25.1557 72.3804 25.2391L47.6377 25.3268C46.5888 25.3852 46.1864 24.4127 46.6514 23.5423C48.4447 21.4219 51.0949 19.7042 52.2272 17.0953C52.6838 16.0435 52.9903 14.6597 53.0362 13.5181C53.0612 12.9003 52.5253 11.6168 53.6096 11.2912H53.6076ZM70.6664 22.9767V20.7123L55.2152 14.2298C55.234 17.853 52.9924 20.6163 50.5319 22.9788H70.6664V22.9767Z" fill="#898989"/>
<path d="M35.8231 7.39449C36.507 7.2964 37.5538 7.30057 38.2398 7.39449C38.9258 7.48841 40.3521 8.29402 40.6231 8.28567C40.8358 8.27941 41.4009 7.82443 41.7491 7.70338C47.6335 5.64134 52.5837 11.9026 49.1953 17.0326C48.1423 18.6272 43.3068 23.3899 41.7158 24.7006C40.7462 25.4999 40.4647 25.5897 39.4471 24.7757C37.9833 23.6049 32.7349 18.3872 31.8258 16.9366C29.5487 13.3093 31.4838 8.02061 35.821 7.39449H35.8231ZM36.1317 9.73411C33.2479 10.2246 32.3471 13.8269 34.1403 16.0288C35.8564 18.1346 38.44 20.0172 40.227 22.123L40.6002 22.3401C42.9273 19.9379 45.5233 17.7339 47.596 15.1167C48.7741 11.9255 46.3928 9.0725 43.0315 9.7675C42.1328 9.95325 41.1277 11.0949 40.4897 11.0573C39.8516 11.0198 38.9467 9.95117 38.0563 9.7675C37.5016 9.65271 36.6884 9.64019 36.1337 9.7362L36.1317 9.73411Z" fill="#898989"/>
<path d="M30.981 36.1378L50.3503 36.2046C50.8069 36.3236 51.0759 36.6617 51.1468 37.125C51.2594 37.8492 51.2615 42.5702 51.0863 43.1379C50.8903 43.7682 50.2523 43.8642 49.6809 43.9164C43.8904 44.4549 37.2845 43.4969 31.4064 43.9164C30.6912 43.8955 30.0594 43.6659 29.9384 42.8854C29.7758 41.8397 29.8008 38.3606 29.9259 37.2669C30.0031 36.5866 30.3075 36.2568 30.981 36.1357V36.1378ZM48.8156 38.4441H32.2697V41.5684H48.8156V38.4441Z" fill="#898989"/>
</g>
<defs>
<clipPath id="clip0_331_6187">
<rect width="80" height="80" fill="white" transform="translate(0.5)"/>
</clipPath>
</defs>
</svg>
