<svg width="103" height="80" viewBox="0 0 103 80" fill="none" xmlns="http://www.w3.org/2000/svg">
<g clip-path="url(#clip0_332_6216)">
<path d="M103 72.6702C102.233 76.4385 99.4815 79.2695 95.6458 79.8872L65.5212 79.9168C63.1296 79.3823 63.3685 76.2451 65.7494 75.904L95.066 75.8852C97.1301 75.6515 98.9473 73.6559 98.9903 71.5689L98.8453 21.6378C98.1448 19.4487 96.5316 18.369 94.2688 18.1756H20.7142C18.8514 18.0091 16.0008 20.2599 16.0008 22.1024V45.3249H35.8933C35.7081 43.1842 33.4077 37.8929 33.9741 36.0665C34.1808 35.4031 34.9162 34.9465 35.5873 34.8659C36.7066 34.7343 42.2655 34.6886 43.1781 34.9196C44.378 35.2231 46.5387 39.9262 47.3735 41.0865L54.1779 40.6997C54.2155 40.4177 54.1457 40.1598 54.0866 39.8886C53.3619 36.5768 50.7502 32.2552 50.2402 29.0428C50.0443 27.81 50.9408 26.8726 52.1165 26.6765C53.5069 26.4429 57.6432 26.4724 59.1007 26.6282C59.8039 26.7034 60.5582 26.9693 61.0065 27.536L69.4858 40.0578C74.7172 40.2136 79.0146 39.4185 83.8461 41.8761C86.5088 43.2298 90.8572 45.6096 89.0883 49.1979C88.3207 50.7531 83.8434 53.2671 82.1578 53.9252C77.9812 55.5555 73.8127 54.7336 69.4482 55.0801L60.3569 68.096C60.1529 68.2089 59.9328 68.225 59.7073 68.2518C58.3276 68.413 52.9351 68.4667 51.6763 68.2384C50.2536 67.9779 50.1221 66.5436 50.4201 65.3913C51.3515 61.7868 53.2921 57.9836 54.3792 54.3791L47.344 54.0756C46.9253 54.2824 44.5685 58.5476 43.9297 59.3024C43.5888 59.7079 43.2694 59.9953 42.7379 60.1216C41.6804 60.374 36.9777 60.3552 35.7886 60.2129C35.0397 60.1242 34.1298 59.6139 33.9338 58.8511C33.4534 56.9764 35.7913 51.5642 35.8933 49.351H16.3015L16.0008 49.6519V71.9691C16.0008 73.4921 18.1428 75.7643 19.7345 75.8718L48.5626 75.9765C50.5892 76.5809 50.8227 79.2963 48.6378 79.9007L19.1655 79.8604C15.974 79.667 11.9799 75.5038 11.9799 72.372V62.8209H6.65451C6.31362 62.8209 4.8078 62.2461 4.41054 62.0527C-2.84211 58.5208 -0.780661 45.3302 7.8624 45.3302H11.9826V21.909C11.9826 18.4093 16.4679 14.1682 19.9197 14.1682H41.5193V6.83031C41.5193 3.59379 45.1483 0.518412 48.2405 0.287424C53.276 -0.0886044 61.7097 -0.0912903 66.7425 0.287424C69.7408 0.513041 73.4637 3.47292 73.4637 6.62887V14.1682H95.0633C98.7245 14.1682 102.549 18.0709 103 21.6082V72.6755V72.6702ZM69.4455 14.1655V6.82763C69.4455 6.02185 67.6901 4.23572 66.7157 4.33241C60.9152 4.71113 54.3524 3.76837 48.6431 4.30555C47.8406 4.38076 47.1158 4.63055 46.5334 5.21071C46.2596 5.48467 45.5348 6.74168 45.5348 7.02639V14.1629H69.4455V14.1655ZM58.0941 30.6517H55.1818L59.1141 42.3059C59.1571 43.5468 58.2954 44.3902 57.0956 44.5298L45.8865 45.0804C45.4275 44.9435 45.0946 44.7474 44.7645 44.3955C43.9217 43.5011 42.5044 40.7776 41.7528 39.5582C41.6267 39.3514 41.5301 39.1419 41.522 38.8948H38.5077L40.5235 47.248L38.5077 56.1867C39.2566 56.0793 40.6416 56.4284 41.2348 56.0014C42.0615 55.4051 43.7177 51.8489 44.6518 50.7746C45.6449 49.6331 46.8367 49.9043 48.262 49.9473C51.3219 50.036 54.4168 50.5114 57.4848 50.5704C59.0658 51.0942 59.3101 52.0772 58.9021 53.576C57.9438 57.1053 56.0864 60.6453 55.1845 64.231H58.2981C61.2212 60.4868 63.5779 56.0282 66.4741 52.3082C66.9761 51.6636 67.2042 51.0673 68.1356 50.9545C74.8998 50.1326 78.5583 52.6144 84.8688 47.804C84.9762 47.7207 85.2392 47.812 85.1238 47.4467C84.9735 46.9713 80.4292 44.6775 79.6588 44.468C76.2123 43.528 71.8586 44.5486 68.3423 44.1323C68.0658 44.1001 67.8028 44.0732 67.5693 43.9013C65.8943 42.6819 58.9879 30.9069 58.0995 30.6571L58.0941 30.6517ZM11.9826 49.3484H7.8624C7.79529 49.3484 6.69209 49.5981 6.55252 49.6465C3.65897 50.6376 3.31271 55.9342 5.25337 57.7929C5.50032 58.0292 6.80751 58.8001 7.05982 58.8001H11.9826V49.351V49.3484Z" fill="#898989"/>
<path d="M55.4448 76.5513C57.1573 74.7034 60.1931 77.1745 58.486 79.291C56.7788 81.4075 53.5846 78.5577 55.4448 76.5513Z" fill="#898989"/>
</g>
<defs>
<clipPath id="clip0_332_6216">
<rect width="103" height="80" fill="white"/>
</clipPath>
</defs>
</svg>
