<svg width="13" height="13" viewBox="0 0 13 13" fill="none" xmlns="http://www.w3.org/2000/svg">
<mask id="path-1-inside-1_387_1434" fill="white">
<path d="M1.4 13L11 3.4V12H13V0H1V2H9.6L0 11.6L1.4 13Z"/>
</mask>
<path d="M1.4 13L11 3.4V12H13V0H1V2H9.6L0 11.6L1.4 13Z" fill="#921B95"/>
<path d="M1.4 13L2.81421 14.4142L1.4 15.8284L-0.0142136 14.4142L1.4 13ZM11 3.4L9.58579 1.98579L13 -1.42843V3.4H11ZM11 12V14H9V12H11ZM13 12H15V14H13V12ZM13 0V-2H15V0H13ZM1 0H-1V-2H1V0ZM1 2V4H-1V2H1ZM9.6 2V2.98023e-08H14.4284L11.0142 3.41421L9.6 2ZM0 11.6L-1.41421 13.0142L-2.82843 11.6L-1.41421 10.1858L0 11.6ZM1.4 13L-0.0142136 11.5858L9.58579 1.98579L11 3.4L12.4142 4.81421L2.81421 14.4142L1.4 13ZM11 3.4H13V12H11H9V3.4H11ZM11 12V10H13V12V14H11V12ZM13 12H11V0H13H15V12H13ZM13 0V2H1V0V-2H13V0ZM1 0H3V2H1H-1V0H1ZM1 2V2.98023e-08H9.6V2V4H1V2ZM9.6 2L11.0142 3.41421L1.41421 13.0142L0 11.6L-1.41421 10.1858L8.18579 0.585786L9.6 2ZM0 11.6L1.41421 10.1858L2.81421 11.5858L1.4 13L-0.0142136 14.4142L-1.41421 13.0142L0 11.6Z" fill="#921B95" mask="url(#path-1-inside-1_387_1434)"/>
</svg>
