<svg width="65" height="64" viewBox="0 0 65 64" fill="none" xmlns="http://www.w3.org/2000/svg">
<path d="M32.5 52C29.7361 52 27.1372 51.4751 24.7032 50.4253C22.2691 49.3754 20.1519 47.9507 18.3516 46.1511C16.5512 44.3514 15.1258 42.2351 14.0753 39.8021C13.0251 37.3691 12.5 34.7696 12.5 32.0037C12.5 29.2374 13.0249 26.6372 14.0747 24.2032C15.1246 21.7691 16.5493 19.6519 18.3489 17.8516C20.1486 16.0512 22.2649 14.6258 24.6979 13.5753C27.1309 12.5251 29.7304 12 32.4963 12C35.2626 12 37.8628 12.5251 40.2968 13.5753C42.7309 14.6251 44.8481 16.05 46.6484 17.85C48.4488 19.65 49.8742 21.7667 50.9247 24.2C51.9749 26.6333 52.5 29.2333 52.5 32V34.5668C52.5 36.4886 51.8402 38.1202 50.5205 39.4616C49.2009 40.803 47.58 41.4737 45.6579 41.4737C44.4161 41.4737 43.2649 41.17 42.2042 40.5626C41.1435 39.9553 40.3054 39.1198 39.69 38.0563C38.7805 39.1416 37.7058 39.9825 36.4658 40.5789C35.2254 41.1754 33.9035 41.4737 32.5 41.4737C29.8712 41.4737 27.6351 40.5519 25.7916 38.7084C23.9481 36.8649 23.0263 34.6288 23.0263 32C23.0263 29.3712 23.9481 27.1351 25.7916 25.2916C27.6351 23.4481 29.8712 22.5263 32.5 22.5263C35.1288 22.5263 37.3649 23.4481 39.2084 25.2916C41.0519 27.1351 41.9737 29.3712 41.9737 32V34.5668C41.9737 35.6005 42.3293 36.4839 43.0405 37.2168C43.7518 37.9495 44.6242 38.3158 45.6579 38.3158C46.6916 38.3158 47.564 37.9495 48.2753 37.2168C48.9865 36.4839 49.3421 35.6005 49.3421 34.5668V32C49.3421 27.2982 47.7105 23.3158 44.4474 20.0526C41.1842 16.7895 37.2018 15.1579 32.5 15.1579C27.7982 15.1579 23.8158 16.7895 20.5526 20.0526C17.2895 23.3158 15.6579 27.2982 15.6579 32C15.6579 36.7018 17.2895 40.6842 20.5526 43.9474C23.8158 47.2105 27.7982 48.8421 32.5 48.8421H43.0263V52H32.5ZM32.5 38.3158C34.2544 38.3158 35.7456 37.7018 36.9737 36.4737C38.2018 35.2456 38.8158 33.7544 38.8158 32C38.8158 30.2456 38.2018 28.7544 36.9737 27.5263C35.7456 26.2982 34.2544 25.6842 32.5 25.6842C30.7456 25.6842 29.2544 26.2982 28.0263 27.5263C26.7982 28.7544 26.1842 30.2456 26.1842 32C26.1842 33.7544 26.7982 35.2456 28.0263 36.4737C29.2544 37.7018 30.7456 38.3158 32.5 38.3158Z" fill="#40B637"/>
</svg>
