<svg width="52" height="64" viewBox="0 0 52 64" fill="none" xmlns="http://www.w3.org/2000/svg">
<path d="M26 41.9474C29.4138 39.0323 31.998 36.2158 33.7526 33.4979C35.5073 30.78 36.3846 28.2335 36.3846 25.8584C36.3846 22.7275 35.4154 20.1614 33.4769 18.16C31.5385 16.1586 29.0462 15.1579 26 15.1579C22.9538 15.1579 20.4615 16.1586 18.5231 18.16C16.5846 20.1614 15.6154 22.7275 15.6154 25.8584C15.6154 28.2335 16.4927 30.78 18.2474 33.4979C20.002 36.2158 22.5862 39.0323 26 41.9474ZM26 45.9474C21.5052 42.4196 18.1316 38.9737 15.8792 35.6095C13.6264 32.2449 12.5 28.9946 12.5 25.8584C12.5 21.8096 13.7569 18.4877 16.2707 15.8926C18.7841 13.2975 22.0272 12 26 12C29.9728 12 33.2159 13.2975 35.7293 15.8926C38.2431 18.4877 39.5 21.8096 39.5 25.8584C39.5 28.9946 38.3736 32.2414 36.1208 35.5989C33.8684 38.9568 30.4948 42.4063 26 45.9474ZM26 29.49C27.0357 29.49 27.9203 29.1181 28.6538 28.3742C29.3876 27.6307 29.7546 26.734 29.7546 25.6842C29.7546 24.6344 29.3876 23.7377 28.6538 22.9942C27.9203 22.2504 27.0357 21.8784 26 21.8784C24.9643 21.8784 24.0797 22.2504 23.3462 22.9942C22.6124 23.7377 22.2454 24.6344 22.2454 25.6842C22.2454 26.734 22.6124 27.6307 23.3462 28.3742C24.0797 29.1181 24.9643 29.49 26 29.49ZM12.5 52V48.8421H39.5V52H12.5Z" fill="#40B637"/>
</svg>
