<svg width="60" height="64" viewBox="0 0 60 64" fill="none" xmlns="http://www.w3.org/2000/svg">
<path d="M47.5 52L40.8471 44.2033H22.4794C21.5647 44.2033 20.7816 43.8215 20.1301 43.058C19.4787 42.2949 19.1529 41.3772 19.1529 40.3049V38.9493H39.6179C40.5524 38.9493 41.3524 38.5592 42.0179 37.7792C42.6835 36.9992 43.0163 36.0615 43.0163 34.9661V19.7119H44.1735C45.0882 19.7119 45.8713 20.0936 46.5228 20.8571C47.1743 21.6206 47.5 22.5383 47.5 23.6103V52ZM15.3202 34.3563L17.9816 31.2373H35.8576C36.0262 31.2373 36.1647 31.1738 36.2731 31.0468C36.3816 30.9197 36.4358 30.7572 36.4358 30.5592V15.9832C36.4358 15.7853 36.3816 15.6228 36.2731 15.4957C36.1647 15.3686 36.0262 15.3051 35.8576 15.3051H15.8988C15.7303 15.3051 15.5916 15.3686 15.4829 15.4957C15.3744 15.6228 15.3202 15.7853 15.3202 15.9832V34.3563ZM12.5 42.3392V15.9832C12.5 14.8877 12.8328 13.95 13.4984 13.17C14.1639 12.39 14.9641 12 15.8988 12H35.8576C36.7921 12 37.5921 12.39 38.2576 13.17C38.9232 13.95 39.256 14.8877 39.256 15.9832V30.5592C39.256 31.6547 38.9232 32.5924 38.2576 33.3724C37.5921 34.1524 36.7921 34.5424 35.8576 34.5424H19.1529L12.5 42.3392Z" fill="#40B637"/>
</svg>
