<svg width="58" height="80" viewBox="0 0 58 80" fill="none" xmlns="http://www.w3.org/2000/svg">
<g clip-path="url(#clip0_430_3158)">
<path d="M54.25 0C56.2345 0.5625 57.8108 1.97083 57.9962 4.13542V70.0854C58.0732 71.6104 55.766 74.5438 54.2063 73.7167C53.4233 73.3 53.4712 72.3708 54.0855 71.7896C54.452 71.4438 55.6514 70.9271 55.6514 70.2354V14.2188H2.34507V17.7354C2.34507 18.8833 0.325179 19.15 0.0107422 17.8875V3.98542C0.166919 2.41458 1.22268 1.17083 2.55122 0.441667L3.90267 0H54.25ZM55.6535 11.875V3.98333C55.6535 3.35625 54.1313 2.15208 53.4004 2.33542L4.0526 2.41042C3.50286 2.38958 2.34715 3.55 2.34715 3.98125V11.8729H55.6556L55.6535 11.875Z" fill="#898989"/>
<path d="M48.6397 80.0001H47.5485C45.843 78.9376 45.133 76.6772 44.1168 75.0001C42.2281 75.8564 39.8854 78.4959 38.2674 75.7897L38.207 60.4001C38.5152 59.223 39.8979 58.623 40.987 59.1605C44.6853 61.4209 48.5938 63.3709 52.2734 65.6584C52.9731 66.0939 53.806 66.4209 54.1038 67.2605C54.9929 69.7793 51.7132 70.1814 50.3951 71.4855C50.3659 71.848 52.4587 74.8751 52.7023 75.698C53.4687 78.3001 50.2327 78.8501 48.6438 80.0022L48.6397 80.0001ZM40.533 61.7189V74.3751C42.1094 73.5459 44.1897 71.5272 45.8097 73.3834C46.3949 74.0564 47.7422 77.1543 48.169 77.4334C48.4772 77.6355 49.8787 76.4689 50.3451 76.3918C50.5575 76.0918 47.7859 72.3709 47.8671 71.1897C47.9879 69.4251 50.2889 68.9189 51.4467 68.0439L40.5351 61.7168L40.533 61.7189Z" fill="#898989"/>
<path d="M0.741191 21.1229C1.32009 20.9479 1.95521 21.225 2.228 21.7583L2.41957 70.3166C2.71319 71.1229 3.4087 71.7041 4.28745 71.7271L34.2235 71.7187C35.9581 71.6958 36.3891 73.9541 34.5421 74.0708L3.82933 74.0625C1.83443 73.8229 0.187283 72.1062 0.00195312 70.0875L0.0873299 21.7229C0.266413 21.5416 0.50172 21.1958 0.741191 21.125V21.1229Z" fill="#898989"/>
<path d="M12.75 41.9166H45.2452C46.1677 42.052 47.1693 42.675 47.4421 43.6208C47.6399 44.3062 47.6524 47.4396 47.5379 48.1937C47.4046 49.0666 46.3489 50.0666 45.4472 50.1604L12.4085 50.1458C11.7067 50.0375 10.703 49.1291 10.5239 48.4416C10.3448 47.7541 10.3594 44.9291 10.451 44.1395C10.5947 42.8791 11.5547 42.1125 12.752 41.9146L12.75 41.9166ZM45.2098 47.8125V44.4541L44.9766 44.2208H13.0207L12.7874 44.4541V47.8125H45.2098Z" fill="#898989"/>
<path d="M46.87 36.1959C46.6347 36.4209 46.2266 36.5688 45.9476 36.7563L12.4091 36.8647C11.6469 36.6584 10.789 36.0709 10.5537 35.2876C10.3496 34.6105 10.3558 31.4876 10.4641 30.7168C10.5807 29.898 11.17 29.2022 11.9239 28.898C23.1041 28.5626 34.3738 28.8293 45.5873 28.7626C46.4931 28.8918 47.349 29.6772 47.5135 30.5813C47.6655 31.4168 47.6447 34.7876 47.3552 35.5063C47.3032 35.6355 46.9804 36.0897 46.8721 36.1938L46.87 36.1959ZM45.2104 31.0938H12.788V34.5313H45.2104V31.0938Z" fill="#898989"/>
<path d="M25.3735 56.1313C26.6708 55.9125 30.9875 55.9396 32.3515 56.0938C36.7744 56.5917 36.841 63.6167 32.3369 64.2063C30.9438 64.3896 27.2205 64.375 25.8024 64.2209C21.2275 63.725 21.2067 56.8334 25.3735 56.1313ZM25.6858 58.4771C24.1865 59.0042 24.3177 61.5 25.8357 61.8438C26.5708 62.0104 31.2124 61.9979 32.0287 61.8688C33.6696 61.6084 33.857 59.0417 32.3098 58.4792H25.6837L25.6858 58.4771Z" fill="#898989"/>
<path d="M40.9543 20.7374C40.7752 20.9499 40.2879 21.1207 39.9985 21.1061L17.8484 21.102C16.3928 20.9207 16.3866 18.8832 17.8525 18.7478H40.1484C41.1542 18.7707 41.5769 19.9978 40.9563 20.7374H40.9543Z" fill="#898989"/>
<path d="M7.7587 3.63116C11.7006 2.96033 13.7226 7.71033 10.6823 9.99991C8.25638 11.8291 4.78509 9.88533 4.99332 6.79991C5.08911 5.38741 6.35935 3.86866 7.7587 3.63116ZM8.06689 5.96866C7.12566 6.252 7.12774 7.96658 8.06689 8.24783C10.395 8.94575 10.3325 5.2895 8.06689 5.96866Z" fill="#898989"/>
<path d="M15.339 9.63134C11.8177 6.11676 17.7982 0.966759 20.7385 4.92093C23.4643 8.58759 18.425 12.7105 15.339 9.63134ZM17.4193 5.96884C16.478 6.25218 16.4801 7.96676 17.4193 8.24801C19.7473 8.94593 19.6849 5.28968 17.4193 5.96884Z" fill="#898989"/>
<path d="M24.6905 9.63134C21.1693 6.11676 27.1498 0.966759 30.0901 4.92093C32.8159 8.58759 27.7766 12.7105 24.6905 9.63134ZM26.7708 5.96884C25.8296 6.25218 25.8317 7.96676 26.7708 8.24801C29.0989 8.94593 29.0364 5.28968 26.7708 5.96884Z" fill="#898989"/>
</g>
<defs>
<clipPath id="clip0_430_3158">
<rect width="58" height="80" fill="white"/>
</clipPath>
</defs>
</svg>
