<svg width="81" height="80" viewBox="0 0 81 80" fill="none" xmlns="http://www.w3.org/2000/svg">
<g clip-path="url(#clip0_430_3150)">
<path d="M37.5147 0.0062582C39.8161 -0.106444 42.274 1.61749 44.1601 2.02864C46.0463 2.4398 47.6613 2.30205 49.6601 2.93235C60.2386 6.2696 64.9853 18.7733 59.7274 28.4887L62.7424 34.5245C63.0282 35.3489 62.5567 36.0189 61.7596 36.2192L54.9285 33.9652C50.1337 37.5279 43.8847 38.5568 38.2157 36.5615C37.5314 36.3215 36.3713 35.6098 35.8392 35.5013C35.255 35.3823 34.6186 35.5284 34.0198 35.4449C31.2114 35.0567 28.6117 34.1676 26.1892 32.7109L19.9006 35.4345C18.6696 35.543 18.3002 34.7145 18.5652 33.6187C19.0326 31.6945 20.5036 29.5677 20.9689 27.5745C13.8101 16.488 20.9918 1.13328 34.2347 0.0062582H37.5147ZM22.0538 31.7153C22.3021 31.9199 25.6864 29.9225 26.4897 29.9997C27.0092 30.0498 28.9977 31.419 29.7571 31.7445C45.2931 38.4462 58.5026 18.6397 46.6514 6.87902C34.7438 -4.94013 14.9076 8.73653 22.0768 24.2728C22.5734 25.3497 23.3433 26.2054 23.7272 27.2886L22.0538 31.7153ZM59.0681 32.6524L57.0296 28.3572C57.4886 26.9922 58.294 25.7964 58.7134 24.4084C61.1504 16.3314 56.7416 7.62203 48.6064 5.31789C56.3494 13.3281 54.9723 26.4517 45.6603 32.5961L41.1118 34.8397C44.5107 35.3114 47.9575 35.0233 51.056 33.4622C52.3099 32.8319 53.3344 31.78 54.6301 31.252L59.0702 32.6524H59.0681Z" fill="#898989"/>
<path d="M0.5 79.207V77.0197L1.16976 73.7054C2.57814 68.7861 5.97911 64.5014 10.4922 62.097C11.5083 61.5565 12.5891 61.2059 13.6156 60.6945C6.4131 55.8337 8.47663 44.2128 17.0208 42.3825C28.0583 40.0178 34.0882 54.2767 25.0245 60.6945C26.0511 61.2059 27.1319 61.5565 28.148 62.097C33.2954 64.8395 37.1658 70.2075 37.9628 76.0242C38.1026 77.0489 38.5825 79.5367 37.3682 79.9166C25.5316 80.0835 13.6678 79.9312 1.82074 79.9938C1.17602 80.0418 0.848443 79.6661 0.5 79.2049L0.5 79.207ZM18.1099 44.7221C15.4288 45.0644 12.6496 47.5355 11.9757 50.1464C9.77025 58.6909 20.8015 63.4808 25.5566 56.6999C29.4604 51.1336 24.8159 43.8664 18.1099 44.7221ZM35.6406 77.4893C34.9917 70.6687 30.3138 64.7831 23.6475 63.0049C13.599 60.3251 3.95313 67.2709 2.99752 77.4893H35.6385H35.6406Z" fill="#898989"/>
<path d="M60.2864 42.2302C71.0631 41.0635 75.9726 54.4709 67.3491 60.6967C71.3364 62.1848 75.0065 64.7477 77.3455 68.3459C78.998 70.8879 80.2958 74.365 80.4627 77.4122C80.5065 78.1927 80.6525 79.5055 79.7992 79.8708H43.4881C42.6347 79.5055 42.7828 78.1907 42.8246 77.4122C42.9998 74.2774 44.3331 70.7502 46.067 68.158C48.4122 64.6517 52.0218 62.1598 55.9381 60.6946C51.3395 57.4012 50.0876 51.2589 53.3154 46.5087C54.8323 44.2776 57.5885 42.5224 60.2822 42.2302H60.2864ZM60.4366 44.7222C57.7555 45.0645 54.9763 47.5356 54.3023 50.1465C52.0969 58.691 63.1282 63.4809 67.8833 56.7C71.7871 51.1337 67.1426 43.8665 60.4366 44.7222ZM77.9651 77.4894C77.3162 70.6688 72.6384 64.7832 65.972 63.005C55.9235 60.3252 46.2777 67.271 45.3221 77.4894H77.9631H77.9651Z" fill="#898989"/>
<path d="M28.254 16.2857C30.737 15.718 30.9289 19.1054 28.9614 19.3475C26.9938 19.5896 26.5661 16.6718 28.254 16.2857Z" fill="#898989"/>
<path d="M44.1822 18.8589C42.9011 20.2384 40.4996 18.3642 41.8182 16.73C43.1369 15.0959 45.6281 17.3019 44.1822 18.8589Z" fill="#898989"/>
<path d="M35.4399 16.2833C37.7205 15.7636 38.144 19.1426 35.9928 19.3429C34.1067 19.5183 33.754 16.6673 35.4399 16.2833Z" fill="#898989"/>
</g>
<defs>
<clipPath id="clip0_430_3150">
<rect width="80" height="80" fill="white" transform="translate(0.5)"/>
</clipPath>
</defs>
</svg>
