<svg width="75" height="80" viewBox="0 0 75 80" fill="none" xmlns="http://www.w3.org/2000/svg">
<g clip-path="url(#clip0_430_3095)">
<path d="M41.2683 80.0002C39.5729 79.4972 38.1245 78.1592 37.9801 76.3266C37.8629 74.8217 38.7106 73.4901 38.9178 72.0311H11.2643C11.0927 72.0311 10.6971 71.6241 10.628 71.4153C10.2471 70.284 11.0466 69.7977 12.0471 69.6871L39.7529 69.662C40.2615 69.1173 40.6111 68.4473 41.1071 67.8879C45.4544 62.9724 50.9131 58.5454 55.3776 53.6821L55.5346 53.058L55.522 11.4863C55.7334 9.66413 57.8746 10.4114 57.8746 11.1774V51.096C61.4056 48.4535 65.5017 40.6911 70.7092 44.6255C73.2293 46.5291 75.6446 49.541 73.9158 52.7971C65.8701 61.4091 57.3953 69.8332 48.7761 77.8795C46.9614 78.9941 44.7783 79.1924 42.836 80.0002H41.2683ZM67.0778 45.9781C65.5142 46.241 63.9445 48.6476 62.7347 49.6119L68.4508 55.3122C70.0394 53.4567 73.5265 51.6032 71.5736 48.7624C71.3078 48.3742 69.7778 46.8443 69.3906 46.5667C68.6999 46.0699 67.9296 45.8361 67.0778 45.9781ZM60.9618 51.4258C60.7798 51.4738 58.3246 53.9367 58.356 54.1225L64.0407 59.6787C64.2103 59.6495 66.3473 57.4997 66.5001 57.2763C66.6068 57.1177 66.6885 57.0488 66.6298 56.8317C66.4498 56.1534 62.0272 52.5341 61.4056 51.5573C61.2779 51.4279 61.1398 51.3798 60.9598 51.4279L60.9618 51.4258ZM56.5434 55.786L42.3923 70.0816L47.9242 75.5982L62.2595 61.4863L56.5434 55.786ZM45.6553 76.7169L41.2704 72.3442C41.1678 73.7969 39.5897 75.9948 40.8727 77.1907C42.1557 78.3867 44.2111 76.8192 45.6553 76.7169Z" fill="#898989"/>
<path d="M2.78189 69.9457C1.89862 69.0753 1.00698 67.4974 0.734885 66.2847C0.266041 46.5957 0.672094 26.8274 0.527673 7.10916C0.84791 3.2895 3.81168 0.298476 7.65662 0H50.7526C53.1115 0.219161 55.2946 1.39846 56.5923 3.39386C57.1553 4.26007 58.273 6.35149 56.9921 7.01524C55.5227 7.77499 55.2778 5.77959 54.7713 4.89668C53.9425 3.45439 52.381 2.57775 50.7443 2.35024L7.81151 2.34398C5.09891 2.57775 3.14399 4.58568 2.87608 7.26571V64.7735C3.00585 66.4099 3.69237 67.7541 5.02356 68.7247C5.83357 69.3154 8.60896 70.0918 6.96591 71.4945C5.91729 72.3899 3.59191 70.7472 2.7798 69.9457H2.78189Z" fill="#898989"/>
<path d="M16.476 5.51436C24.5636 5.89215 33.3439 4.87357 41.352 5.46635C47.0576 5.89006 47.0388 16.151 41.5006 16.7208C33.5951 16.2804 25.0408 17.3136 17.2107 16.7291C13.3364 16.4411 12.6499 13.2226 12.9031 9.92054C13.0706 7.74145 14.2281 5.95894 16.476 5.51436ZM16.7837 7.85207C15.0339 8.20691 15.1343 10.7262 15.2537 12.1184C15.3562 13.3019 15.7853 14.191 17.0746 14.3643L41.1887 14.3789C43.3111 14.2077 43.2943 11.726 43.1436 10.0854C43.0369 8.92283 42.7271 8.11924 41.4901 7.82703L16.7816 7.85207H16.7837Z" fill="#898989"/>
<path d="M13.8098 35.9779C20.6646 34.9051 22.2197 44.7673 15.9259 46.0551C8.82627 47.5078 7.39881 36.9819 13.8098 35.9779ZM14.1196 38.3198C10.4693 39.0733 11.9742 44.9823 15.7292 43.6715C18.9902 42.5339 17.6339 37.5934 14.1196 38.3198Z" fill="#898989"/>
<path d="M13.8137 50.8246C18.4456 50.1484 21.7756 55.1077 18.9291 58.8939C15.5007 63.4566 8.28171 59.9125 9.8536 54.3729C10.3245 52.7157 12.089 51.0751 13.8137 50.8225V50.8246ZM14.1213 53.1644C11.2873 53.6466 11.3355 58.1968 14.2532 58.5808C18.7261 59.1674 18.6193 52.3984 14.1213 53.1644Z" fill="#898989"/>
<path d="M47.3342 40.2024C48.0584 40.9267 47.5728 42.1686 46.52 42.1937L27.2367 42.1978C25.7946 42.0079 25.9202 39.9311 27.3979 39.8434C33.4552 40.263 40.2409 39.2987 46.2103 39.8393C46.541 39.8685 47.104 39.9728 47.3342 40.2045V40.2024Z" fill="#898989"/>
<path d="M27.1238 54.7212L46.5223 54.6836C48.0397 54.813 48.0397 56.9065 46.5223 57.0338H27.4022C26.0019 56.9003 25.7843 55.1741 27.1259 54.7212H27.1238Z" fill="#898989"/>
<path d="M27.2829 25.0409L46.2041 25.0054C47.7592 25.0784 48.3243 26.8943 46.6813 27.3577L27.2431 27.3535C25.7842 27.2074 25.8993 25.3205 27.2829 25.0429V25.0409Z" fill="#898989"/>
<path d="M19.2911 20.6595C20.457 20.4027 21.0075 21.2898 20.6621 22.3459L13.1836 29.7306C12.6959 29.9414 12.4092 29.8809 11.978 29.6075C11.685 29.4217 9.04982 26.7542 8.95773 26.5288C8.61237 25.6876 8.97866 24.6858 9.9896 24.74C10.8143 24.7839 11.9864 26.5288 12.6771 27.0339C13.1376 27.0339 18.2404 20.8932 19.2932 20.6615L19.2911 20.6595Z" fill="#898989"/>
<path d="M55.0115 61.5949C56.102 61.3486 56.8053 62.3505 56.2883 63.3398C55.7022 64.4649 53.1236 66.1618 52.3219 67.3515C51.1142 67.9046 50.164 67.051 50.5931 65.784C51.5454 65.1077 54.1136 61.7953 55.0115 61.5949Z" fill="#898989"/>
</g>
<defs>
<clipPath id="clip0_430_3095">
<rect width="74" height="80" fill="white" transform="translate(0.5)"/>
</clipPath>
</defs>
</svg>
