<svg width="111" height="80" viewBox="0 0 111 80" fill="none" xmlns="http://www.w3.org/2000/svg">
<g clip-path="url(#clip0_430_3107)">
<path d="M0.591322 58.7538C0.803301 56.3159 0.304863 53.4201 0.591322 51.0422C0.682988 50.2668 1.30174 48.4641 1.62544 47.6829C2.8257 44.7957 5.13455 42.7784 7.66971 41.0816C0.46528 34.3658 3.92856 22.0273 13.5049 19.9127C26.0174 17.1485 34.1241 32.2397 25.0663 41.0844C29.0366 43.5281 31.821 47.2108 32.1562 51.998C32.2908 53.9208 32.4168 58.7967 31.4687 60.3276C30.9015 61.2404 29.4806 62.2705 28.395 62.4021L13.8372 62.3506C12.4049 61.5437 12.8088 59.3719 14.5304 59.2774L28.2804 59.0771C28.7187 58.7538 28.8676 58.3189 28.9278 57.7952C29.5122 52.7963 28.6327 45.8058 23.1213 43.8715C21.0846 43.1561 19.9015 44.3837 17.839 44.5897C15.977 44.7786 14.5504 44.5182 12.7744 44.1261C12.2158 44.0031 11.6859 43.6225 11.196 43.5539C8.40591 43.1647 4.86242 47.5484 4.17205 50.0121C3.7882 51.3799 3.49314 57.3488 3.97153 58.482C4.51867 59.7811 6.73585 58.7595 8.002 59.6008C8.92153 60.2131 8.74965 62.1646 7.56085 62.3878C6.88481 62.5137 4.48143 62.4651 3.80252 62.2934C2.28429 61.9071 0.998092 60.2103 0.588457 58.7538H0.591322ZM15.3554 22.8313C3.40434 24.0818 4.88247 42.3778 17.226 41.4021C29.3976 40.4406 27.8192 21.5265 15.3554 22.8313Z" fill="#898989"/>
<path d="M110.5 51.0451V58.7566C110.105 60.2417 108.684 62.033 107.126 62.3506C106.358 62.5051 102.577 62.5366 101.812 62.3935C100.574 62.1617 100.431 60.1101 101.502 59.5235C103.367 58.5048 106.988 60.3791 107.286 57.7981C107.85 52.905 107.257 47.3538 102.754 44.5324C99.6806 42.6067 98.7382 44.4409 95.5928 44.6297C94.8824 44.6727 93.9543 44.6641 93.2468 44.5925C90.2705 44.2921 89.7291 42.5809 86.6926 44.5296C82.1064 47.4711 81.6968 52.5616 82.1551 57.5863C82.2324 58.4505 82.3728 59.0628 83.3353 59.1944C86.5408 59.6237 90.7403 58.894 94.0861 59.1773C96.2861 59.3633 97.3431 60.7253 95.5356 62.3535L82.6965 62.405C81.6108 62.2733 80.19 61.2432 79.6228 60.3304C78.6718 58.7996 78.7978 53.9265 78.9353 52.0008C79.2733 47.1764 82.052 43.5739 86.0251 41.0873C76.9473 32.2683 85.077 17.1542 97.5866 19.9155C107.192 22.0358 110.589 34.36 103.419 41.0873C105.986 42.744 108.237 44.8243 109.463 47.6886L110.497 51.0479L110.5 51.0451ZM93.708 22.8313C81.7569 24.0818 83.235 42.3778 95.5785 41.402C107.75 40.4406 106.172 21.5265 93.708 22.8313Z" fill="#898989"/>
<path d="M61.5558 58.3275H68.9608C73.2262 58.3275 76.2712 61.9014 76.5892 65.9246C77.0045 71.1496 76.89 79.0529 70.0321 79.7453C66.778 80.0744 59.0952 80.1002 55.8668 79.7482C52.8446 79.4191 49.9056 76.3774 49.559 73.4044L49.5074 52.2527C49.3957 51.9265 46.6314 51.0823 46.0241 50.8019C42.1311 48.982 38.4673 45.5569 36.3303 41.8399C35.5683 40.5151 33.967 37.1271 33.9327 35.6964C33.9012 34.3372 35.534 33.5847 36.5652 34.3229C36.909 34.569 38.3298 38.8011 38.8454 39.7568C39.5043 40.9815 40.6587 42.6325 41.5983 43.6512C41.8389 43.9116 42.028 44.2635 42.4491 44.192C43.2168 41.8285 45.4254 40.3062 47.3847 38.9441C41.2631 33.0954 43.6235 22.5739 51.6272 19.8269C62.59 16.0641 71.5876 28.2567 64.8673 37.7509C64.5551 38.1944 63.8131 38.5664 63.9048 39.1444C63.922 39.2532 65.423 40.0744 65.741 40.3434C67.0673 41.4651 67.9582 42.8042 68.9665 44.1891C76.8155 36.3889 76.234 23.3693 67.7892 16.2386C57.5168 7.56563 41.3032 12.3356 37.4103 25.1263C37.0436 26.3281 36.9462 29.3784 35.6886 29.6216C32.6035 30.2168 33.6863 26.5942 34.1446 24.8687C37.6738 11.6546 52.7272 4.9045 65.1394 10.7418C78.3051 16.934 81.8972 34.4345 72.3009 45.3766C69.3962 48.6873 65.678 50.7561 61.5616 52.224V58.3275H61.5558ZM54.4202 22.3993C43.254 23.9044 45.8035 41.2533 57.3134 38.9956C67.5829 36.9783 65.1709 20.9514 54.4202 22.3993ZM66.2795 46.5412C66.0246 44.6556 62.3522 41.2161 60.5905 41.2791C60.1665 41.2934 58.654 42.023 57.9207 42.1661C56.5485 42.4322 54.7209 42.4551 53.3488 42.2062C50.9798 41.7798 51.0629 40.6782 48.6137 42.0888C46.9178 43.0675 45.6918 44.4467 44.8668 46.2265C44.9212 46.8446 49.2324 48.7302 50.0517 48.8704C52.8532 44.5554 58.2071 44.6155 61.0488 48.859L66.2824 46.5384L66.2795 46.5412ZM54.8441 48.9534C53.7871 49.1709 52.8532 50.284 52.7501 51.3628C53.2199 58.2044 52.14 65.8359 52.7472 72.5803C52.9163 74.4688 54.3428 76.303 56.2936 76.5405C59.204 76.8953 66.3998 76.8095 69.4019 76.5434C71.0605 76.3975 72.3725 75.4446 72.9769 73.8994C73.5928 72.3285 73.5814 66.1592 73.0342 64.5454C71.4329 59.8212 63.5897 62.0559 59.7196 61.5523C59.1467 61.4779 58.8517 61.2633 58.5996 60.7425C57.6571 58.791 58.8717 53.2656 58.2329 50.8277C57.8577 49.3884 56.222 48.673 54.8413 48.9563L54.8441 48.9534Z" fill="#898989"/>
<path d="M48.8281 0.114689C52.1338 -0.629284 51.9161 6.30397 48.8052 4.54133C47.7911 3.96618 47.1093 0.500983 48.8281 0.114689Z" fill="#898989"/>
<path d="M32.2993 15.5489C33.0097 16.4131 32.517 18.0269 31.3454 18.2387C30.4889 18.3932 28.2115 17.0884 28.0654 16.2271C27.8535 14.9595 28.9506 13.8921 30.2225 14.2956C30.38 14.3471 32.222 15.4545 32.2993 15.5461V15.5489Z" fill="#898989"/>
<path d="M78.7915 15.5491C78.8689 15.4547 80.7079 14.3473 80.8683 14.2987C82.1402 13.8952 83.2373 14.9597 83.0254 16.2302C82.8821 17.0914 80.6019 18.3991 79.7454 18.2417C78.5738 18.03 78.0811 16.4162 78.7915 15.552V15.5491Z" fill="#898989"/>
<path d="M61.0663 0.111693C64.2717 -0.838303 63.6501 4.57839 61.6449 4.77869C58.935 5.05053 59.8316 0.477957 61.0663 0.111693Z" fill="#898989"/>
<path d="M39.1632 5.49101C40.1171 6.30365 41.2945 8.64145 39.6588 9.3797C38.3783 9.96057 37.2067 8.68437 36.6854 7.63994C35.7143 5.69703 37.6622 4.21195 39.1632 5.48815V5.49101Z" fill="#898989"/>
<path d="M71.9282 5.49108C73.4293 4.21488 75.3772 5.69996 74.4061 7.64287C73.8848 8.68444 72.7131 9.96064 71.4327 9.38263C69.797 8.64152 70.9743 6.30372 71.9282 5.49394V5.49108Z" fill="#898989"/>
</g>
<defs>
<clipPath id="clip0_430_3107">
<rect width="110" height="80" fill="white" transform="translate(0.5)"/>
</clipPath>
</defs>
</svg>
