<svg width="109" height="80" viewBox="0 0 109 80" fill="none" xmlns="http://www.w3.org/2000/svg">
<g clip-path="url(#clip0_430_3123)">
<path d="M98.1325 43.4752H103.001C103.397 43.4752 105.079 44.3052 105.532 44.5678C109.667 46.9701 110.217 53.0063 106.508 56.0394C107.785 57.5545 108.827 58.97 108.978 61.0464C109.157 63.4911 108.066 65.3774 106.508 67.1248C111.428 71.4256 108.507 79.1458 102.104 79.6981C91.3036 80.6277 79.1197 79.0341 68.1771 79.6317C63.1211 78.7474 60.4451 73.4567 62.7949 68.824H22.9268C22.8754 72.7505 20.1632 76.6136 16.7382 78.3732C14.9139 79.3118 8.61051 81.2373 9.38069 77.3682C9.60117 76.2635 11.1446 74.1599 11.1446 72.7867V68.827H6.49931C5.92545 68.827 4.46362 68.1238 3.88976 67.8129C1.57621 66.5514 0.437548 64.2909 0.25935 61.7074C-0.574256 49.623 0.884554 36.5608 0.295594 24.3739C0.35902 21.8568 3.82332 18.1234 6.27279 18.1234H29.2634V6.01493C29.2694 3.50088 33.1324 -0.0061215 35.7269 0.0180231L91.2311 0.00595078C94.1487 -0.157025 98.1295 3.35903 98.1295 6.24128V43.4782L98.1325 43.4752ZM94.5082 43.4752V6.46764C94.5082 5.77047 92.8591 3.81777 91.9741 3.79363L36.3944 3.63065C34.4825 3.69101 32.9421 5.22118 32.8848 7.13765V43.599C32.8606 45.274 34.3556 46.8494 35.9715 47.0788C38.1461 47.3866 43.9391 46.5808 45.4372 47.3534C46.9352 48.1261 46.1862 49.2095 46.2828 50.127C46.6121 53.3081 48.3004 56.2567 51.4687 57.2799C51.1184 55.1219 50.2455 48.8293 52.1543 47.4379C52.4926 47.1935 52.7584 47.1361 53.1631 47.0878C56.1593 46.7408 59.7927 47.3534 62.8613 47.0969C63.559 46.1522 64.1993 45.277 65.2142 44.6432C65.6974 44.3414 67.6727 43.4692 68.1167 43.4692H94.5082V43.4752ZM29.2694 21.7451H6.73188C5.63852 21.7451 3.78405 23.8065 3.89882 25.0258L4.05588 62.6732C4.31261 63.7446 5.55698 64.8643 6.602 65.1087C8.40513 65.5252 12.7816 64.6138 13.8689 65.7697C15.4968 67.4991 14.6481 73.1247 14.3189 75.3913C17.4872 74.3682 19.1786 71.4165 19.5048 68.2385C19.5924 67.3904 18.9551 66.9437 19.8521 65.8723C19.9729 65.7274 20.6767 65.2083 20.7733 65.2083H62.7919C61.324 62.2899 61.626 58.306 64.3745 56.3775V56.0455C62.7617 54.8926 61.9552 52.6713 61.8858 50.7246H54.637V54.6843C54.637 56.0576 56.1834 58.1611 56.4009 59.2658C57.1197 62.8844 51.6258 61.3905 49.8196 60.6299C45.9778 59.0092 42.9273 54.9529 42.8578 50.7216C38.2307 50.6311 32.9935 51.7477 30.239 47.0969C28.463 46.8313 23.9748 48.0748 23.8329 45.3857C23.8027 44.8273 24.5336 43.4813 25.0772 43.4813H29.2694V21.7511V21.7451ZM68.3976 47.1482C64.5255 48.2317 64.6554 53.4499 68.5909 54.3191L102.101 54.3433C106.302 53.5918 106.441 48.0687 102.304 47.115L68.3976 47.1482ZM68.4006 58.0163C64.441 59.0424 64.5739 64.324 68.5939 65.1842L102.101 65.2053C106.393 64.6077 106.487 58.8463 102.307 57.9801L68.4036 58.0133L68.4006 58.0163ZM68.4006 68.8813C64.441 69.9075 64.5739 75.1891 68.5939 76.0492L102.101 76.0704C106.393 75.4728 106.487 69.7113 102.307 68.8451L68.4036 68.8783L68.4006 68.8813Z" fill="#898989"/>
<path d="M65.5134 14.5017H69.7056C70.7204 14.5017 71.5993 17.2482 69.9563 17.9122C67.54 18.887 59.8684 16.3971 60.0617 20.9483C60.2037 24.2833 64.266 23.2511 66.2956 23.7974C72.7501 25.5298 72.2336 35.2872 65.5255 36.0176C65.5587 37.5839 65.8486 39.9682 63.5955 39.8716C61.6172 39.7871 61.8316 37.6624 61.892 36.2349H57.6998C57.6485 36.2349 56.975 35.7127 56.9025 35.6131C56.0085 34.412 56.6337 32.7882 58.1499 32.6072C60.1825 32.3687 64.7462 33.1836 66.205 32.0548C68.1954 30.5186 67.2682 27.5277 64.9274 27.1988C63.6197 27.0147 62.5263 27.3195 61.1098 26.9392C54.6312 25.2008 55.199 15.3951 61.889 14.7281C61.8316 13.1617 61.5628 10.7714 63.8099 10.865C66.3228 10.9706 65.2869 14.5017 65.5134 14.5017Z" fill="#898989"/>
<path d="M19.683 46.5721C19.4293 46.8497 18.9007 47.061 18.5172 47.1063C17.1157 47.2783 12.1564 47.3024 10.8184 47.0821C8.96693 46.7803 8.95485 43.895 10.6281 43.5238C11.649 43.2974 17.599 43.3125 18.7195 43.4906C20.1179 43.7109 20.6163 45.5489 19.68 46.5751L19.683 46.5721Z" fill="#898989"/>
</g>
<defs>
<clipPath id="clip0_430_3123">
<rect width="109" height="80" fill="white"/>
</clipPath>
</defs>
</svg>
